<svg xmlns="http://www.w3.org/2000/svg" width="512" height="512"><path d="M456.6 58.5a9.4 9.4 0 0 0-7-7.9L258.4.3a9.4 9.4 0 0 0-4.8 0L62.4 50.6c-3.7 1-6.5 4.1-7 7.9-.5 3.7-11.9 92 6 192.2 10.7 59.3 29.5 110.4 56 151.7 33.3 52.1 78.9 88.8 135.4 109a9.5 9.5 0 0 0 6.4 0 263.4 263.4 0 0 0 135.5-109C421 361 439.9 310 450.5 250.7a688.3 688.3 0 0 0 6-192.2zm-24.6 189c-10.2 56.8-28.1 105.5-53.2 144.7A245 245 0 0 1 256 492.5a245 245 0 0 1-122.6-100.1c-25.1-39.2-43-87.8-53.3-144.5a689 689 0 0 1-6.7-180.7l182.6-48 182.6 48c2.2 21.8 8.1 97.7-6.6 180.2z" fill="#3d3379"/><path d="M256 98.1c-80.1 0-145.3 65.2-145.3 145.3S175.9 388.7 256 388.7s145.3-65.2 145.3-145.3S336.1 98.1 256 98.1zm0 271.7c-37.4 0-71-16.3-94.2-42.1a103 103 0 0 1 153.3-42.5 103 103 0 0 1 35 42.5 126.1 126.1 0 0 1-94.1 42.1zm-43.5-165.5a43.6 43.6 0 1 1 87.1.1 43.6 43.6 0 0 1-87.1 0zm113.4 65.5c-10-7-20.7-12.3-32-16a62.3 62.3 0 1 0-75.8 0 121.5 121.5 0 0 0-69 57A126.6 126.6 0 0 1 256 117a126.6 126.6 0 0 1 106.9 194 122 122 0 0 0-37-41.1z" fill="#3d3379"/></svg>