<svg xmlns="http://www.w3.org/2000/svg" viewBox="0 0 342.3 342.3" width="512" height="512"><path d="M149.9 114.3a27.6 27.6 0 0 0-15.6-18.8c-4-1.6-8.4-2.4-13.2-2.4-6.8 0-12.8 1.6-17.2 4.4a24.3 24.3 0 0 0-9.6 12.8 55 55 0 0 0-3.2 21.2c0 8 1.2 14.4 4 20 2.4 5.6 6 9.6 10.8 12 4.8 2.4 10 4 15.6 4a29 29 0 0 0 22.4-9.2c5.6-6 8-15.2 8-27.6 0-6.4-.8-11.6-2-16.4zM131 149.1c-1.6 4-4.8 6-9.6 6-3.2 0-5.6-.8-7.6-2.8s-3.2-4.4-3.6-8c-.8-3.6-1.2-8.4-1.2-14s.4-10 1.2-13.6c.8-3.6 2-6.4 3.6-8 2-2 4.4-2.8 7.6-2.8 4.4 0 8 2 9.6 5.6 2 4 2.8 10 2.8 18.4a70 70 0 0 1-2.8 19.2zM218.3 94c-1.2-1.3-2.8-1.7-4.8-1.7s-3.6.4-4.8 1.6a19.4 19.4 0 0 0-3.6 5.2l-81.2 131.6c-1.2 2-2 3.6-2 4.8 0 2 .8 3.2 2.4 4.4a6.7 6.7 0 0 0 4.4 1.6c2.4 0 4.8-1.6 6.8-5.2L216.3 106c2.8-3.6 4-6.4 4-7.6 0-2-.8-3.2-2-4.4zM249.5 184.7a35 35 0 0 0-6-11.6c-2.8-3.2-6-5.6-9.6-6.8-3.6-1.6-8-2.4-13.2-2.4-10.4 0-18 3.2-22.8 9.6-4.8 6.4-7.2 16-7.2 28.4 0 8 1.2 14.4 4 20 2.8 5.2 6.4 9.2 10.8 12 4.8 2.4 10 4 15.6 4a29 29 0 0 0 22.4-9.2c5.6-6 8-15.2 8-27.6 0-6.4-.8-11.6-2-16.4zm-19.2 34.4c-1.6 4-4.8 6-9.6 6s-8-2-9.6-6c-2-4-2.8-10.4-2.8-19.2 0-5.6.4-10.4 1.2-13.6.8-3.6 2-6 4-8s4.4-2.8 7.6-2.8c4.4 0 8 2 9.6 5.6 2 4 2.8 10 2.8 18.4a53 53 0 0 1-3.2 19.6z" fill="#3d3379"/><path d="M322.7 171.1l17.6-28.8c3.2-2.8 2.4-7.2-.8-9.2l-27.2-20 5.2-33.6c.4-3.6-1.6-7.2-5.2-8l-33.2-8-8-32.8c-.8-3.6-4.4-6-8-5.2l-33.6 5.2-20-27.2c-2.4-2.8-6.4-4-9.6-2L171 18.7 142.3 1.1a7 7 0 0 0-9.6 2l-20 27.2L79 25.1c-3.6-.4-7.2 1.6-8 5.2l-8 33.2-32.8 8c-3.6.8-6 4.4-5.2 8l5.2 33.6-27.2 20c-2.8 2-4 6.4-2 9.6l17.6 28.8L1 200.3a7 7 0 0 0 2 9.6l27.2 20-5.6 33.6c-.4 3.6 1.6 7.2 5.2 8l32.8 8 8 32.8c.8 3.6 4.4 6 8 5.2l33.6-5.2 20 27.2c1.2 2 3.6 2.8 5.6 2.8 1.2 0 2.4-.4 3.6-1.2l28.8-17.6 28.8 17.6a7 7 0 0 0 9.6-2l20-27.2 33.6 5.2c3.6.4 7.2-1.6 8-5.2l8-32.8 32.8-8c3.6-.8 6-4.4 5.2-8l-5.2-33.6 27.2-20c2.8-2.4 4-6.4 2-9.6l-17.6-28.8zm-22.4 50.4a7.6 7.6 0 0 0-2.8 6.8l4.8 31.2-30.8 7.6c-2.8.8-4.8 2.8-5.2 5.2l-7.6 30.8-31.2-4.8c-2.8-.4-5.2.8-6.8 2.8l-18.8 25.6-27.2-16.4c-1.2-.8-2.4-1.2-3.6-1.2s-2.4.4-3.6 1.2l-27.2 16.4-18.8-25.6a7.6 7.6 0 0 0-6.8-2.8l-31.2 4.8-7.6-30.8c-.8-2.8-2.8-4.8-5.2-5.2l-30.8-7.6 4.8-31.2c.4-2.8-.8-5.2-2.8-6.8l-25.6-18.8 16.4-27.2a8.5 8.5 0 0 0 0-7.6l-16.4-27.2L41.9 122c2-1.6 3.2-4.4 2.8-6.8L39.9 84l30.8-7.6c2.8-.8 4.8-2.8 5.2-5.2l7.6-30.8 31.2 4.8c2.8.4 5.2-.8 6.8-2.8l18.8-25.6 27.2 16.4a8.5 8.5 0 0 0 7.6 0l27.2-16.4L221 42.3c1.6 2 4.4 3.2 6.8 2.8l31.2-4.8 7.6 30.8c.8 2.8 2.8 4.8 5.2 5.2l30.8 7.6-4.8 31.2c-.4 2.8.8 5.2 2.8 6.8l25.6 18.8-16.8 27.2a8.5 8.5 0 0 0 0 7.6l16.4 27.2-25.6 18.8z" fill="#3d3379"/></svg>