<svg xmlns="http://www.w3.org/2000/svg" viewBox="0 0 497.6 497.6" width="512" height="512"><g fill="#3d3379"><path d="M344.8 177.6h16v16h-16zM384.8 105.6h16v40h-16zM384.8 161.6h16v16h-16zM280.8 121.6h16v16h-16zM200.8 51.2v102.4h16v-113l32-21.4 32 21.4v65h16V51.2l19.6 13 8.8-13.2-76.4-51-76.4 51 8.8 13.3zM200.8 169.6h16v16h-16z"/><path d="M240.8 41.6h16v80h-16zM240.8 137.6h16v16h-16zM104.8 145.6h16v32h-16zM264.8 449.6h16v16h-16zM232.8 449.6h16v16h-16zM200.8 449.6h16v16h-16z"/><path d="M454.7 209.6h-13.9v-94.4l19.6 13 8.8-13.2-76.4-51-76.4 51 8.8 13.3 19.6-13v46.3h16v-57l32-21.4 32 21.4v105h-264v-54.4l19.6 13 8.8-13.2-76.4-51-76.4 51 8.8 13.3 19.6-13v38.3h16v-49l32-21.4 32 21.4v65H43l-37 120h35v168h416v-168h34.7l-36.9-120zm-427 104l27-88H294l-27.1 88H27.6zm269.1 168h-240v-152h222l18-58.8v210.8zm144 0h-128V270.8l18.1 58.8h110v152zm-98-168l-27.2-88H443l27 88H342.8z"/></g></svg>