<svg xmlns="http://www.w3.org/2000/svg" width="512" height="512"><path d="M437 75C388.7 26.6 324.4 0 256 0S123.3 26.6 75 75C26.6 123.3 0 187.6 0 256s26.6 132.7 75 181c48.3 48.4 112.6 75 181 75s132.7-26.6 181-75c48.4-48.3 75-112.6 75-181s-26.6-132.7-75-181zM256 491.6C126 491.6 20.4 385.9 20.4 256S126.1 20.4 256 20.4 491.6 126.1 491.6 256 385.9 491.6 256 491.6z" fill="#3d3379"/><path d="M462.1 298.1c-5.4-1.4-11 2-12.4 7.4a198.4 198.4 0 0 1-28.1 62.5 10.2 10.2 0 0 0 16.9 11.5 218.7 218.7 0 0 0 31-69c1.4-5.4-2-11-7.4-12.4zM466.1 245.8c-5.6 0-10.2 4.6-10.2 10.2 0 3 0 5.9-.2 8.7a10.2 10.2 0 1 0 20.4 1l.2-9.7c0-5.6-4.6-10.2-10.2-10.2zM256 172.9c-19.7 0-35.7 16-35.7 35.7V386a35.7 35.7 0 0 0 71.4 0V208.6c0-19.7-16-35.7-35.7-35.7zM271.3 386a15.3 15.3 0 0 1-30.6 0V208.6a15.3 15.3 0 0 1 30.6 0V386zM281.2 100.7a36 36 0 0 0-50.4 0 36 36 0 0 0 0 50.5 36 36 0 0 0 50.5 0 36 36 0 0 0 0-50.5zm-14.4 36a15.4 15.4 0 0 1-21.6 0 15.4 15.4 0 0 1 10.8-26.1 15.4 15.4 0 0 1 10.8 26.1z" fill="#3d3379"/></svg>