<?xml version="1.0" encoding="iso-8859-1"?>
<!-- Generator: Adobe Illustrator 19.0.0, SVG Export Plug-In . SVG Version: 6.00 Build 0)  -->
<svg xmlns="http://www.w3.org/2000/svg" xmlns:xlink="http://www.w3.org/1999/xlink" version="1.1" id="Layer_1" x="0px" y="0px" viewBox="0 0 490.453 490.453" style="enable-background:new 0 0 490.453 490.453;" xml:space="preserve" width="512px" height="512px">
<g>
	<g>
		<path d="M376.227,64.477l-19.6,26.9c49.2,35.7,78.5,93.3,78.5,153.9c0,104.7-85.2,189.9-189.9,189.9v-19.4c0-2.1-2.3-3.3-4.1-2.1    l-52.4,36c-1.5,1-1.5,3.2,0,4.3l52.4,36c1.7,1.2,4.1,0,4.1-2.1v-19.4c123.1,0,223.2-100.1,223.2-223.2    C468.427,173.977,433.927,106.477,376.227,64.477z" fill="#3d3379"/>
	</g>
</g>
<g>
	<g>
		<path d="M376.827,222.377l-26.1-4.4c-2.5-9.8-6.4-19.2-11.7-28.1l15.3-21.5c2.8-4,2.4-9.4-1.1-12.9l-9.2-9.2l-9.2-9.2    c-3.5-3.2-8.9-3.6-12.8-0.8l-21.5,15.3c-8.9-5.4-18.3-9.3-28.1-11.8l-4.4-26c-0.8-4.8-5-8.3-9.8-8.3h-13h-13c-4.8,0-9,3.5-9.8,8.3    l-4.4,26.1c-10,2.5-19.6,6.5-28.7,12.1l-21.3-15.1c-4-2.8-9.4-2.4-12.9,1.1l-9.2,9.2l-9.2,9.2c-3.4,3.4-3.9,8.9-1.1,12.9    l15.4,21.7c-5.2,8.9-9,18.5-11.5,28.1l-25.9,4.1c-4.8,0.8-8.3,5-8.3,9.8v13v13c0,4.8,3.5,9,8.3,9.8l26.2,4.4    c2.6,9.7,6.5,19.1,11.8,28l-15.1,21.3c-2.8,4-2.4,9.4,1.1,12.9l9.2,9.2l9.2,9.2c3.4,3.4,8.9,3.9,12.9,1.1l21.7-15.4    c8.9,5.2,18.5,9,28.1,11.5l4.3,25.8c0.8,4.8,5,8.3,9.8,8.3h13h13c4.8,0,9-3.5,9.8-8.3l4.4-26.2c9.5-2.5,18.8-6.3,27.4-11.4    l21.5,15.3c4,2.8,9.4,2.4,12.9-1.1l9.2-9.2l9.2-9.2c3.4-3.4,3.9-8.9,1.1-12.9l-15.1-21.6c5.2-8.9,9.1-18.3,11.6-28.1l26-4.4    c4.8-0.8,8.3-5,8.3-9.8v-13v-13C385.127,227.377,381.627,223.177,376.827,222.377z M282.527,281.177    c-20.2,20.2-52.9,20.2-73.1,0.1c-20.2-20.2-20.2-52.9-0.1-73.1c20.2-20.2,52.9-20.2,73.1-0.1    C302.727,228.177,302.727,260.977,282.527,281.177z" fill="#3d3379"/>
	</g>
</g>
<g>
	<g>
		<path d="M301.727,36.477l-52.4-36c-1.7-1.2-4.1,0-4.1,2.1v19.4c-123.1,0.1-223.2,100.2-223.2,223.3c0,71.3,34.4,138.8,92.2,180.8    l19.6-26.9c-49.2-35.7-78.5-93.3-78.5-153.9c0-104.7,85.2-190,189.9-190v19.4c0,2.1,2.3,3.3,4.1,2.1l52.4-36    C303.227,39.777,303.227,37.577,301.727,36.477z" fill="#3d3379"/>
	</g>
</g>
<g>
</g>
<g>
</g>
<g>
</g>
<g>
</g>
<g>
</g>
<g>
</g>
<g>
</g>
<g>
</g>
<g>
</g>
<g>
</g>
<g>
</g>
<g>
</g>
<g>
</g>
<g>
</g>
<g>
</g>
</svg>
