<svg xmlns="http://www.w3.org/2000/svg" viewBox="0 0 490.5 490.5" width="512" height="512"><path d="M376.2 64.5l-19.6 26.9a190.1 190.1 0 0 1-111.4 343.8v-19.4c0-2.1-2.3-3.3-4-2.1l-52.5 36c-1.5 1-1.5 3.2 0 4.3l52.4 36c1.7 1.2 4.1 0 4.1-2.1v-19.4a223.4 223.4 0 0 0 131-404z" fill="#3d3379"/><path d="M376.8 222.4l-26-4.4a106 106 0 0 0-11.8-28.1l15.3-21.5a10 10 0 0 0-1-13l-9.3-9.1-9.2-9.2a10.2 10.2 0 0 0-12.8-.8l-21.5 15.3a103 103 0 0 0-28-11.8l-4.5-26a10 10 0 0 0-9.8-8.3h-26a10 10 0 0 0-9.8 8.3l-4.4 26c-10 2.6-19.6 6.6-28.7 12.2L168 136.9a10 10 0 0 0-12.9 1l-9.2 9.3-9.2 9.2a10.1 10.1 0 0 0-1 12.9L151 191c-5.2 8.9-9 18.5-11.5 28l-25.9 4.2a10 10 0 0 0-8.3 9.8v26c0 4.8 3.5 9 8.3 9.8l26.2 4.4c2.6 9.7 6.5 19 11.8 28l-15 21.3a10 10 0 0 0 1 12.9l9.2 9.2 9.2 9.2c3.4 3.4 9 3.9 13 1l21.6-15.3c9 5.2 18.5 9 28.1 11.5l4.3 25.8a10 10 0 0 0 9.8 8.3h26c4.8 0 9-3.5 9.8-8.3l4.4-26.2c9.5-2.5 18.8-6.3 27.4-11.4l21.5 15.3a10 10 0 0 0 13-1.1l9.1-9.2 9.2-9.2c3.4-3.4 4-9 1.1-13l-15-21.5a109 109 0 0 0 11.5-28.1l26-4.4a10 10 0 0 0 8.3-9.8v-26c0-4.8-3.5-9-8.3-9.8zm-94.3 58.8a51.8 51.8 0 1 1-73.2-73.2 51.8 51.8 0 0 1 73.2 73.2z" fill="#3d3379"/><path d="M301.7 36.5L249.3.5a2.6 2.6 0 0 0-4 2V22A223.6 223.6 0 0 0 22 245.3 224 224 0 0 0 114.2 426l19.6-27A190.2 190.2 0 0 1 245.2 55.3v19.5c0 2 2.3 3.3 4.1 2l52.4-36c1.5-1 1.5-3.1 0-4.2z" fill="#3d3379"/></svg>