<svg xmlns="http://www.w3.org/2000/svg" width="512" height="512"><path d="M501.3 245.3c-5.9 0-10.6 4.8-10.6 10.7a233.2 233.2 0 0 1-68.8 166 234 234 0 0 1-257.2 50.2 234 234 0 0 1-125-124.9c-12.2-28.9-18.4-59.6-18.4-91.3A233.2 233.2 0 0 1 90.1 90a234 234 0 0 1 257.2-50.2c25.9 10.9 49.3 26.2 69.8 45.5h-39.2a10.7 10.7 0 0 0 0 21.4h64c6 0 10.7-4.8 10.7-10.7V32a10.7 10.7 0 0 0-21.4 0v37.4A256 256 0 1 0 512 256c0-5.9-4.8-10.7-10.7-10.7z" fill="#3d3379"/><path d="M106.7 149.3V320h298.6V149.3H106.7zM384 234.7v64H128v-128h256v64z" fill="#3d3379"/><path d="M255.8 180.7a53.3 53.3 0 1 0 0 106.6 53.3 53.3 0 0 0 0-106.6zm0 85.3a32 32 0 1 1 0-64 32 32 0 0 1 0 64zM394.7 330.7H117.3a10.7 10.7 0 0 0 0 21.3h277.4a10.7 10.7 0 1 0 0-21.3zM394.7 362.7H117.3a10.7 10.7 0 0 0 0 21.3h277.4a10.7 10.7 0 1 0 0-21.3z" fill="#3d3379"/></svg>