<?xml version="1.0" encoding="iso-8859-1"?>
<!-- Generator: Adobe Illustrator 21.1.0, SVG Export Plug-In . SVG Version: 6.00 Build 0)  -->
<svg version="1.1" id="Layer_1" xmlns="http://www.w3.org/2000/svg" xmlns:xlink="http://www.w3.org/1999/xlink" x="0px" y="0px"
	 viewBox="0 0 841.027 979.987" style="enable-background:new 0 0 841.027 979.987;" xml:space="preserve">
<g>
	<g transform="translate(0.000000,511.000000) scale(0.100000,-0.100000)">
		<path d="M408.7,1402.1v-3707.9h439.2h439.2v3707.9V5110H847.9H408.7V1402.1z"/>
		<path d="M6271.9,1581.8c514.8-463.7,853.9-900.9,1050.1-1346.3c320.7-735.4,239-1242.1-251.3-1571
			c-384.1-253.3-829.4-347.3-1262.5-265.6c-140.9,26.6-455.6,110.3-545.5,145c-28.6,12.3-32.7-28.6-32.7-427v-437.2l190-55.2
			c547.5-155.3,1115.4-145,1671.1,26.6c610.8,190,1039.9,600.6,1219.6,1166.5c183.9,572.2,116.5,1080.9-230.8,1771.4
			c-196.1,386.1-371.8,633.3-659.9,919.3l-228.8,230.9h-547.5h-545.5L6271.9,1581.8z"/>
		<path d="M3209.6-1237.4c-130.7-47-271.7-196.1-328.9-345.2c-36.8-98.1-42.9-149.2-36.8-273.8c14.3-239,118.5-406.6,310.5-500.5
			c239-116.5,474-81.7,655.8,98c69.5,71.5,116.5,141,138.9,206.4c42.9,126.6,44.9,343.2,2,467.8
			c-38.8,116.5-169.6,267.6-281.9,324.8C3556.8-1202.7,3334.2-1190.4,3209.6-1237.4z"/>
		<path d="M800.9-2612.3c-420.8-57.2-678.3-263.5-760-610.8c-38.8-161.4-18.4-476,38.8-604.7c51.1-114.4,145-222.7,237-271.7
			l61.3-30.7l-112.4-28.6c-61.3-16.3-147.1-38.8-188-49L0-4228.2v-234.9c0-214.5,4.1-234.9,36.8-224.7
			c18.4,6.1,365.7,83.8,770.2,175.7c404.5,89.9,755.9,167.5,782.4,173.6c42.9,10.2,45,18.4,45,245.2c0,173.7-6.1,234.9-24.5,234.9
			c-14.3,0-114.4-18.4-220.6-40.9c-355.5-73.5-584.3-42.9-762,104.2C423-3625.5,408.7-3345.6,596.7-3170
			c75.6,69.5,155.3,89.9,363.6,91.9c204.3,2,382-34.7,506.6-106.2l65.4-38.8v232.9c0,218.6-2,234.9-44.9,265.6
			C1360.7-2636.8,1031.8-2581.7,800.9-2612.3z"/>
	</g>
</g>
</svg>
