<?xml version="1.0" encoding="utf-8"?>
<!-- Generator: Adobe Illustrator 21.1.0, SVG Export Plug-In . SVG Version: 6.00 Build 0)  -->
<svg version="1.1" id="Capa_1" xmlns="http://www.w3.org/2000/svg" xmlns:xlink="http://www.w3.org/1999/xlink" x="0px" y="0px"
	 viewBox="0 0 163.2 126" style="enable-background:new 0 0 163.2 126;" xml:space="preserve">
<path d="M31.2,88.6l-12.1,36.8H3.4L43.2,8.5h18.2l39.9,116.9H85.2L72.7,88.6H31.2z M69.5,76.8L58.1,43.2c-2.6-7.6-4.3-14.6-6.1-21.3
	h-0.3C49.9,28.8,48,35.9,45.8,43L34.3,76.8H69.5z"/>
<path d="M118.3,125.4V53.1h-11.8V41.4h11.8v-4c0-11.8,2.6-22.6,9.7-29.3c5.7-5.6,13.4-7.8,20.5-7.8c5.4,0,10.1,1.2,13,2.4l-2.1,11.8
	c-2.3-1-5.4-1.9-9.7-1.9c-13,0-16.3,11.5-16.3,24.3v4.5h20.3v11.6h-20.3v72.3H118.3z"/>
</svg>
