<?xml version="1.0" encoding="utf-8"?>
<!-- Generator: Adobe Illustrator 21.1.0, SVG Export Plug-In . SVG Version: 6.00 Build 0)  -->
<svg version="1.1" id="Layer_1" xmlns="http://www.w3.org/2000/svg" xmlns:xlink="http://www.w3.org/1999/xlink" x="0px" y="0px"
	 viewBox="0 0 512 512" style="enable-background:new 0 0 512 512;" xml:space="preserve">
<path id="XMLID_352_" d="M372.4,294.8h-23.3v-46.5h23.3c12.9,0,23.3-10.4,23.3-23.3c0-12.9-10.4-23.3-23.3-23.3h-23.3v-85.3
	C349.1,52.2,296.9,0,232.7,0S116.4,52.2,116.4,116.4c0,12.9,10.4,23.3,23.3,23.3c12.9,0,23.3-10.4,23.3-23.3
	c0-38.5,31.3-69.8,69.8-69.8s69.8,31.3,69.8,69.8v85.3H186.2c-12.9,0-23.3,10.4-23.3,23.3c0,12.9,10.4,23.3,23.3,23.3h116.4v46.5
	H186.2c-12.9,0-23.3,10.4-23.3,23.3s10.4,23.3,23.3,23.3h116.4v147.4c0,12.9,10.4,23.3,23.3,23.3c12.9,0,23.3-10.4,23.3-23.3V341.3
	h23.3c12.9,0,23.3-10.4,23.3-23.3S385.2,294.8,372.4,294.8z"/>
</svg>
