<?xml version="1.0" encoding="iso-8859-1"?>
<!-- Generator: Adobe Illustrator 21.1.0, SVG Export Plug-In . SVG Version: 6.00 Build 0)  -->
<svg version="1.1" id="Layer_1" xmlns="http://www.w3.org/2000/svg" xmlns:xlink="http://www.w3.org/1999/xlink" x="0px" y="0px"
	 viewBox="0 0 980 734.864" style="enable-background:new 0 0 980 734.864;" xml:space="preserve">
<g>
	<g transform="translate(0.000000,511.000000) scale(0.100000,-0.100000)">
		<path d="M0,1436.465v-3675h459.4h459.4v1159.7v1157.6l637,751.3c506.3,596.2,643.1,745.2,659.5,720.7
			c12.3-14.3,508.4-873.8,1102.5-1909l1080-1880.4h518.6H5435l-51,87.8c-169.5,292-2425.5,4158.9-2507.2,4295.7l-98,167.4l1129,1374
			c620.7,757.5,1135.2,1386.3,1143.3,1400.6c10.2,18.4-106.2,24.5-504.3,24.5h-520.6L2497,3269.865
			c-841.2-1014.7-1537.4-1841.6-1547.6-1839.5c-12.3,4.1-22.5,677.8-26.5,1843.6l-4.1,1837.5H459.4H0V1436.465z"/>
		<path d="M5982.1,2834.965v-377.7h1276c702.3,0,1276-4.1,1276-8.2c0-4.1-643.1-951.3-1429.1-2102.9l-1429.2-2092.7v-247v-245
			h2062.1H9800v367.5v367.5H8319.8c-814.6,0-1480.2,4.1-1480.2,10.2c0,4.1,643.1,951.4,1429.2,2102.9l1429.2,2092.7v255.2v255.2
			H7840H5982.1V2834.965z"/>
	</g>
</g>
</svg>
