<?xml version="1.0" encoding="utf-8"?>
<!-- Generator: Adobe Illustrator 21.1.0, SVG Export Plug-In . SVG Version: 6.00 Build 0)  -->
<svg version="1.1" id="Layer_1" xmlns="http://www.w3.org/2000/svg" xmlns:xlink="http://www.w3.org/1999/xlink" x="0px" y="0px"
	 viewBox="0 0 537.6 361" style="enable-background:new 0 0 537.6 361;" xml:space="preserve">
<path d="M229.1,247.9H86.6l-29.5,67.1H17.6L139.1,46.7H177l121.9,268.2h-40.2L229.1,247.9z M215.7,217.2L157.9,85.8L100,217.2H215.7
	z M497.9,293.1c-15.2,14.1-37.2,22.2-66.1,24.5v43.3h-24.5v-43.3c-18.7-1-36.3-4.5-53.1-10.5c-16.7-6-30.1-13.6-40-22.8l14.2-29.9
	c9.2,8.4,20.8,15.4,34.9,20.9c14,5.5,28.7,8.8,44.1,9.8v-88.9c-17.9-4.3-32.8-9.1-44.6-14.2c-11.9-5.1-21.8-12.6-29.9-22.6
	c-8-10-12.1-23-12.1-39.1c0-20.2,7.3-37.3,22-51.3c14.7-14,36.2-22.2,64.6-24.5V0.7h24.5V44c14.6,0.5,28.7,2.8,42.3,6.9
	c13.7,4.1,25.5,9.6,35.4,16.5L497,98.1c-20.7-13-42.4-20.2-65.1-21.5v89.3c18.6,4.6,34,9.4,46,14.4c12,5,22.2,12.4,30.5,22.2
	c8.3,9.8,12.5,22.9,12.5,39.3C520.7,261.9,513.1,279.1,497.9,293.1z M370.9,144.4c8.4,6.1,20.6,11.2,36.4,15.3V77
	c-16.4,2-28.6,6.8-36.8,14.4c-8.2,7.5-12.3,16.7-12.3,27.4C358.3,129.7,362.5,138.3,370.9,144.4z M470.3,271.5
	c8.6-7.3,12.8-16.4,12.8-27.4c0-11.2-4.4-19.9-13.2-25.9c-8.8-6-21.5-11.3-38.1-15.9v82.4C448.9,283.1,461.8,278.7,470.3,271.5z"/>
</svg>
