<?xml version="1.0" encoding="utf-8"?>
<!-- Generator: Adobe Illustrator 21.1.0, SVG Export Plug-In . SVG Version: 6.00 Build 0)  -->
<svg version="1.1" id="Capa_1" xmlns="http://www.w3.org/2000/svg" xmlns:xlink="http://www.w3.org/1999/xlink" x="0px" y="0px"
	 viewBox="0 0 79 46.8" style="enable-background:new 0 0 79 46.8;" xml:space="preserve">
<path d="M34.4,35.9H11.2L6.4,46.8h-6.4L19.7,3.1h6.2l19.8,43.7h-6.5L34.4,35.9z M32.2,30.9L22.8,9.5l-9.4,21.4H32.2z M57.8,10.9v2.9
	h9.6v4.9h-9.5v28.1h-6V18.7h-5.6v-4.9h5.6v-2.9c0-3.3,1-5.9,2.9-7.8c1.9-1.9,4.6-2.9,8-2.9c1.3,0,2.6,0.2,3.7,0.5
	c1.2,0.3,2.2,0.8,3,1.4l-1.8,4.6c-1.4-1-2.9-1.6-4.6-1.6C59.6,5.1,57.8,7,57.8,10.9z M73.1,0.5h6v46.3h-6V0.5z"/>
</svg>
