<?xml version="1.0" encoding="iso-8859-1"?>
<!-- Generator: Adobe Illustrator 21.1.0, SVG Export Plug-In . SVG Version: 6.00 Build 0)  -->
<svg version="1.1" id="Capa_1" xmlns="http://www.w3.org/2000/svg" xmlns:xlink="http://www.w3.org/1999/xlink" x="0px" y="0px"
	 viewBox="0 0 86.858 50.533" style="enable-background:new 0 0 86.858 50.533;" xml:space="preserve">
<g>
	<g>
		<path d="M15.95,25.847L35.169,1.81c0.277-0.346,0.321-0.821,0.115-1.206C35.086,0.23,34.697,0,34.268,0h-8.219
			c-0.353,0-0.692,0.163-0.905,0.436L8.91,21.041V1.12C8.91,0.502,8.396,0,7.766,0H1.145C0.514,0,0,0.502,0,1.12v48.293
			c0,0.618,0.514,1.12,1.145,1.12h6.621c0.63,0,1.144-0.502,1.144-1.12V32.097l0.965-0.017L27.25,50.181
			c0.216,0.224,0.519,0.352,0.832,0.352h7.839c0.436,0,0.841-0.248,1.034-0.639c0.197-0.405,0.128-0.887-0.18-1.229L15.95,25.847z"
			/>
		<path d="M86.827,2.029c0-0.811-0.661-1.47-1.472-1.47h-7.652c-0.613,0-1.168,0.387-1.38,0.961L68.04,24.017
			c-1.501,4.254-2.663,7.78-3.586,10.881c-0.892-3.129-2.003-6.653-3.431-10.881L53.093,1.54c-0.205-0.588-0.764-0.981-1.386-0.981
			h-7.653c-0.809,0-1.468,0.657-1.472,1.467l-0.107,46.476c0,0.396,0.153,0.766,0.43,1.038c0.277,0.28,0.648,0.433,1.042,0.433
			l4.745,0.002V49.27l0.018,0.703c0.811,0,1.469-0.658,1.469-1.47c0-0.1-0.008-0.198-0.029-0.297l-0.006-29.83
			c0.754,2.444,1.623,5.133,2.654,8.192l7.555,22.135c0.205,0.594,0.764,0.994,1.392,0.994h4.55c0.618,0,1.176-0.391,1.381-0.971
			l8.168-22.543c1.19-3.254,2.252-6.29,3.213-9.179l-0.01,31.497c0,0.394,0.152,0.763,0.43,1.039
			c0.277,0.278,0.646,0.431,1.039,0.431h4.871c0.394,0,0.762-0.152,1.039-0.431c0.279-0.278,0.433-0.646,0.433-1.04L86.827,2.029z"
			/>
	</g>
</g>
</svg>
