<?xml version="1.0" encoding="utf-8"?>
<!-- Generator: Adobe Illustrator 21.1.0, SVG Export Plug-In . SVG Version: 6.00 Build 0)  -->
<svg version="1.1"
	 id="svg2" xmlns:cc="http://creativecommons.org/ns#" xmlns:dc="http://purl.org/dc/elements/1.1/" xmlns:rdf="http://www.w3.org/1999/02/22-rdf-syntax-ns#" xmlns:svg="http://www.w3.org/2000/svg"
	 xmlns="http://www.w3.org/2000/svg" xmlns:xlink="http://www.w3.org/1999/xlink" x="0px" y="0px" viewBox="0 0 227.5 387.3"
	 style="enable-background:new 0 0 227.5 387.3;" xml:space="preserve">
<path d="M200.7,264.3c0,12.8-2,24.7-6,35.6c-4,10.9-9.8,20.3-17.3,28.2c-7.5,7.9-16.7,14.1-27.5,18.5s-23,6.7-36.6,6.7
	c-1.5,0-4-0.6-7.5-1.7c-3.5-1.1-7.4-3.1-11.7-5.9c-4.3-2.8-8.8-6.4-13.4-11c-4.6-4.5-8.8-10.3-12.7-17.2c-3.9-6.9-7-15-9.5-24.4
	c-2.5-9.4-3.7-20.2-3.7-32.5v-87.7H0v-23.6h54.8V85.5l-1-0.2c-2.8,1.8-5.7,2.7-8.8,2.7c-2.2,0-4.4-0.5-6.6-1.4
	c-2.1-1-4.1-2.2-5.8-3.9c-1.7-1.6-3.1-3.5-4.1-5.7c-1-2.2-1.5-4.6-1.5-7.1c0-2.4,0.5-4.9,1.5-7.5c1-2.7,2.6-5.1,4.7-7.4
	c2.1-2.2,4.7-4.1,7.7-5.5c3.1-1.4,6.6-2.2,10.7-2.2c5.6,0,10.2,1.4,14,4.2c3.7,2.8,6.8,6.4,9.2,10.9c2.4,4.5,4,9.6,5.1,15.3
	c1,5.7,1.5,11.4,1.5,17.2v54.4h146.3v23.6H81.2v87.7c0,8.3,0.7,15.8,2.2,22.3c1.4,6.5,3.3,12.3,5.6,17.3c2.3,5,4.8,9.3,7.6,12.8
	c2.8,3.5,5.5,6.3,8.2,8.6c2.7,2.2,5.1,3.9,7.4,4.9c2.2,1,4,1.5,5.1,1.5c6.5,0,13.3-1.5,20.3-4.5c7-3,13.4-7.2,19-12.6
	c5.7-5.4,10.4-11.9,14-19.4s5.5-15.9,5.5-25.1c0-4.5-0.5-9-1.4-13.6c-1-4.6-2.5-9.4-4.7-14.4c-2.2,3.1-4.8,5.8-7.5,8.2
	c-2.8,2.4-5.7,4.3-8.8,5.9c-3.1,1.6-6.2,2.8-9.4,3.6c-3.2,0.8-6.2,1.2-9.1,1.2c-3.5,0-6.7-0.6-9.4-1.8c-2.7-1.2-5-2.8-6.8-4.8
	c-1.8-2-3.2-4.4-4.1-7c-0.9-2.6-1.4-5.4-1.4-8.3c0-5.2,1.1-10,3.2-14.1c2.1-4.2,5-7.7,8.5-10.7c3.5-2.9,7.5-5.2,12-6.7
	c4.5-1.6,9.1-2.3,13.8-2.3c8.3,0,15.6,1.8,21.8,5.4c6.2,3.6,11.3,8.3,15.4,14.2c4.1,5.9,7.1,12.6,9.2,20.2
	C199.7,248.8,200.7,256.4,200.7,264.3z"/>
</svg>
