<?xml version="1.0" encoding="iso-8859-1"?>
<!-- Generator: Adobe Illustrator 21.1.0, SVG Export Plug-In . SVG Version: 6.00 Build 0)  -->
<svg version="1.1"
	 id="svg2" xmlns:cc="http://creativecommons.org/ns#" xmlns:dc="http://purl.org/dc/elements/1.1/" xmlns:rdf="http://www.w3.org/1999/02/22-rdf-syntax-ns#" xmlns:svg="http://www.w3.org/2000/svg"
	 xmlns="http://www.w3.org/2000/svg" xmlns:xlink="http://www.w3.org/1999/xlink" x="0px" y="0px" viewBox="0 0 190.667 256.276"
	 style="enable-background:new 0 0 190.667 256.276;" xml:space="preserve">
<path d="M168.169,181.46c0,10.746-1.68,20.664-5.037,29.752c-3.357,9.09-8.193,16.947-14.506,23.573
	c-6.314,6.628-13.992,11.799-23.037,15.514s-19.254,5.574-30.623,5.574c-1.256,0-3.338-0.47-6.247-1.41
	c-2.911-0.94-6.179-2.573-9.806-4.902c-3.626-2.328-7.366-5.395-11.215-9.201c-3.851-3.805-7.388-8.597-10.611-14.372
	c-3.224-5.776-5.866-12.58-7.925-20.417c-2.061-7.834-3.089-16.9-3.089-27.199v-73.338H0.27V85.288h45.803V31.963l-0.806-0.134
	c-2.33,1.524-4.792,2.283-7.388,2.283c-1.88,0-3.717-0.403-5.507-1.208c-1.792-0.806-3.404-1.88-4.835-3.224
	c-1.433-1.343-2.575-2.932-3.425-4.769c-0.852-1.834-1.276-3.828-1.276-5.977c0-1.969,0.424-4.074,1.276-6.313
	c0.85-2.237,2.149-4.298,3.895-6.179s3.896-3.425,6.447-4.634c2.552-1.208,5.528-1.813,8.932-1.813c4.655,0,8.55,1.165,11.686,3.492
	c3.133,2.33,5.686,5.373,7.656,9.134c1.968,3.761,3.379,8.015,4.231,12.76c0.85,4.747,1.276,9.537,1.276,14.372v45.534h122.365
	v19.745H68.236v73.338c0,6.984,0.604,13.209,1.813,18.67c1.209,5.463,2.774,10.299,4.701,14.507c1.924,4.21,4.05,7.77,6.38,10.679
	c2.328,2.91,4.611,5.306,6.851,7.186c2.237,1.881,4.298,3.247,6.179,4.097c1.881,0.853,3.313,1.276,4.299,1.276
	c5.461,0,11.125-1.253,16.99-3.761c5.863-2.506,11.17-6.021,15.918-10.544c4.744-4.521,8.662-9.94,11.752-16.253
	c3.09-6.313,4.635-13.318,4.635-21.021c0-3.761-0.404-7.565-1.209-11.417c-0.807-3.849-2.105-7.878-3.896-12.088
	c-1.879,2.598-3.984,4.881-6.313,6.85c-2.33,1.971-4.791,3.627-7.387,4.97c-2.6,1.344-5.219,2.351-7.857,3.022
	c-2.643,0.672-5.172,1.008-7.59,1.008c-2.955,0-5.574-0.491-7.857-1.478c-2.283-0.984-4.188-2.328-5.709-4.03
	c-1.523-1.699-2.666-3.647-3.426-5.843c-0.762-2.193-1.141-4.499-1.141-6.917c0-4.387,0.895-8.328,2.686-11.82
	s4.164-6.469,7.119-8.933c2.955-2.461,6.313-4.342,10.074-5.641c3.762-1.298,7.609-1.948,11.551-1.948
	c6.984,0,13.074,1.5,18.268,4.5c5.193,3.001,9.49,6.964,12.895,11.887c3.402,4.926,5.955,10.545,7.656,16.857
	C167.318,168.499,168.169,174.925,168.169,181.46z"/>
</svg>
