<?xml version="1.0" encoding="iso-8859-1"?>
<!-- Generator: Adobe Illustrator 21.1.0, SVG Export Plug-In . SVG Version: 6.00 Build 0)  -->
<svg version="1.1" id="Layer_1" xmlns="http://www.w3.org/2000/svg" xmlns:xlink="http://www.w3.org/1999/xlink" x="0px" y="0px"
	 viewBox="0 0 512 232" style="enable-background:new 0 0 512 232;" xml:space="preserve">
<path d="M232.898,1.431v226.473h-41.021V37.325H94.451l-2.564,50.422c-1.429,30.486-4.133,55.911-8.119,76.274
	c-3.993,20.371-10.542,36.682-19.656,48.927c-9.12,12.252-21.792,18.374-38.03,18.374c-7.411,0-15.811-1.281-25.211-3.846
	l2.563-34.611c3.699,0.854,7.118,1.282,10.255,1.282c11.391,0,19.937-4.981,25.639-14.956c5.695-9.969,9.4-21.793,11.11-35.467
	c1.709-13.674,3.271-33.183,4.7-58.541l3.846-83.752H232.898z M510.644,165.517c0,19.943-7.478,35.326-22.434,46.149
	c-14.956,10.829-37.249,16.237-66.873,16.237H312.373V1.431H417.49c26.773,0,47.712,5.061,62.814,15.169
	c15.096,10.115,22.647,24.43,22.647,42.944c0,11.965-3.205,22.293-9.614,30.98c-6.41,8.693-15.316,15.316-26.707,19.87
	C495.968,117.805,510.644,136.18,510.644,165.517z M352.54,98.857h61.532c15.663,0,27.562-2.844,35.68-8.546
	c8.119-5.695,12.179-13.954,12.179-24.784c0-21.646-15.957-32.475-47.858-32.475H352.54V98.857z M456.803,188.164
	c8.546-5.408,12.819-13.814,12.819-25.211c0-11.678-3.919-20.364-11.751-26.066c-7.838-5.695-20.157-8.546-36.962-8.546H352.54
	v67.941h65.806C435.438,196.282,448.257,193.578,456.803,188.164z"/>
</svg>
