<?xml version="1.0" encoding="iso-8859-1"?>
<!-- Generator: Adobe Illustrator 21.1.0, SVG Export Plug-In . SVG Version: 6.00 Build 0)  -->
<svg version="1.1" id="Layer_1" xmlns="http://www.w3.org/2000/svg" xmlns:xlink="http://www.w3.org/1999/xlink" x="0px" y="0px"
	 viewBox="0 0 596.859 370.88" style="enable-background:new 0 0 596.859 370.88;" xml:space="preserve">
<path d="M7.234,10.347c20.369-4.289,52.531-7.505,85.229-7.505c46.634,0,76.651,8.041,99.165,26.266
	c18.761,13.937,30.018,35.377,30.018,63.787c0,34.842-23.049,65.395-61.107,79.332v1.072c34.306,8.576,74.507,36.986,74.507,90.588
	c0,31.09-12.329,54.675-30.553,72.363c-25.193,23.05-65.931,33.77-124.894,33.77c-32.162,0-56.819-2.144-72.364-4.288V10.347z
	 M53.869,158.29h42.346c49.314,0,78.26-25.729,78.26-60.571c0-42.346-32.162-58.963-79.332-58.963
	c-21.441,0-33.77,1.608-41.274,3.216V158.29z M53.869,331.426c9.113,1.608,22.513,2.145,39.13,2.145
	c48.243,0,92.733-17.689,92.733-70.22c0-49.314-42.346-69.684-93.269-69.684H53.869V331.426z M297.755,10.347
	c28.409-4.289,62.179-7.505,99.165-7.505c67.003,0,114.71,15.545,146.335,45.026c32.162,29.481,50.923,71.292,50.923,129.718
	c0,58.963-18.226,107.206-51.995,140.439c-33.77,33.77-89.516,51.994-159.735,51.994c-33.233,0-61.107-1.607-84.692-4.288V10.347z
	 M344.39,329.818c11.792,2.144,28.945,2.68,47.17,2.68c99.701,0,153.84-55.747,153.84-153.303
	c0.536-85.229-47.707-139.367-146.335-139.367c-24.122,0-42.347,2.145-54.675,4.825V329.818z"/>
</svg>
