<?xml version="1.0" encoding="iso-8859-1"?>
<!-- Generator: Adobe Illustrator 21.1.0, SVG Export Plug-In . SVG Version: 6.00 Build 0)  -->
<svg version="1.1" id="Layer_1" xmlns="http://www.w3.org/2000/svg" xmlns:xlink="http://www.w3.org/1999/xlink" x="0px" y="0px"
	 viewBox="0 0 974.812 466.017" style="enable-background:new 0 0 974.812 466.017;" xml:space="preserve">
<path d="M-0.636,4.426h246.533v49.578H58.451v152.13h173.184v48.899H58.451v207.142H-0.636V4.426z M330.112,10.539
	c25.808-5.433,66.557-9.508,107.985-9.508c59.086,0,97.119,10.187,125.643,33.278c23.771,17.658,38.033,44.824,38.033,80.819
	c0,44.145-29.204,82.857-77.424,100.515v1.358c43.466,10.867,94.402,46.862,94.402,114.777c0,39.391-15.62,69.273-38.712,91.686
	c-31.92,29.204-83.536,42.787-158.243,42.787c-40.749,0-71.99-2.717-91.686-5.434V10.539z M389.199,197.985h53.653
	c62.482,0,99.157-32.6,99.157-76.745c0-53.653-40.749-74.707-100.515-74.707c-27.167,0-42.787,2.038-52.295,4.075V197.985z
	 M389.199,417.352c11.545,2.037,28.524,2.717,49.578,2.717c61.124,0,117.493-22.412,117.493-88.969
	c0-62.482-53.652-88.29-118.172-88.29h-48.899V417.352z M971.229,372.527c0,33.958,0.679,63.841,2.716,89.648h-52.974l-3.396-53.653
	h-1.358c-15.621,26.487-50.258,61.124-108.665,61.124c-51.615,0-113.418-28.524-113.418-143.98V133.465H753.9v182.013
	c0,62.482,19.016,104.59,73.349,104.59c40.069,0,67.915-27.846,78.781-54.332c3.396-8.829,5.434-19.695,5.434-30.563V133.465h59.766
	V372.527z"/>
</svg>
