<?xml version="1.0" encoding="iso-8859-1"?>
<!-- Generator: Adobe Illustrator 21.1.0, SVG Export Plug-In . SVG Version: 6.00 Build 0)  -->
<svg version="1.1" id="Capa_1" xmlns="http://www.w3.org/2000/svg" xmlns:xlink="http://www.w3.org/1999/xlink" x="0px" y="0px"
	 viewBox="0 0 479.039 367" style="enable-background:new 0 0 479.039 367;" xml:space="preserve">
<path d="M220.539,202.393c9.073,11.54,13.613,26.125,13.613,43.754c0,23.597-8.885,41.749-26.642,54.449
	c-17.763,12.707-43.626,19.058-77.59,19.058H0.02V47.407h122.122c31.114,0,55.16,6.223,72.146,18.668
	c16.979,12.445,25.474,29.692,25.474,51.727c0,14.262-3.306,26.58-9.917,36.948c-6.612,10.373-15.496,18.279-26.641,23.724
	C199.015,182.886,211.461,190.859,220.539,202.393z M38.912,78.91v87.119h79.729c19.963,0,35.325-3.694,46.087-11.084
	c10.756-7.39,16.141-18.213,16.141-32.475c0-14.257-5.384-25.085-16.141-32.475c-10.762-7.39-26.125-11.084-46.087-11.084H38.912z
	 M178.147,277.261c11.145-7.256,16.724-18.668,16.724-34.226c0-30.336-22.168-45.504-66.506-45.504H38.912v90.619h89.452
	C150.4,288.15,166.996,284.522,178.147,277.261z M456.028,297.484c-15.43,14.263-37.792,22.558-67.089,24.892v43.948h-24.892
	v-43.948c-18.93-1.039-36.887-4.601-53.866-10.695c-16.984-6.09-30.53-13.807-40.642-23.142l14.39-30.336
	c9.334,8.557,21.13,15.624,35.393,21.196c14.256,5.579,29.169,8.885,44.726,9.918v-90.23c-18.151-4.405-33.253-9.2-45.31-14.39
	c-12.057-5.184-22.169-12.834-30.336-22.946c-8.167-10.112-12.251-23.335-12.251-39.67c0-20.479,7.45-37.853,22.363-52.116
	c14.906-14.256,36.753-22.558,65.533-24.891V0.736h24.892v43.949c14.778,0.522,29.103,2.856,42.976,7
	c13.868,4.15,25.863,9.723,35.976,16.724l-12.835,31.114c-21.001-13.223-43.042-20.479-66.116-21.78v90.62
	c18.923,4.667,34.48,9.528,46.671,14.584c12.184,5.056,22.49,12.58,30.919,22.557c8.423,9.984,12.64,23.275,12.64,39.865
	C479.169,265.854,471.452,283.229,456.028,297.484z M327.1,146.583c8.556,6.223,20.868,11.412,36.947,15.557V78.132
	c-16.596,2.078-29.041,6.94-37.337,14.584c-8.301,7.651-12.445,16.918-12.445,27.808C314.265,131.676,318.544,140.359,327.1,146.583
	z M428.026,275.511c8.684-7.39,13.028-16.657,13.028-27.809c0-11.406-4.473-20.157-13.418-26.252
	c-8.945-6.089-21.847-11.474-38.697-16.141v83.619C406.306,287.373,419.336,282.9,428.026,275.511z"/>
</svg>
