<?xml version="1.0" encoding="iso-8859-1"?>
<!-- Generator: Adobe Illustrator 21.1.0, SVG Export Plug-In . SVG Version: 6.00 Build 0)  -->
<svg version="1.1" id="Capa_1" xmlns="http://www.w3.org/2000/svg" xmlns:xlink="http://www.w3.org/1999/xlink" x="0px" y="0px"
	 viewBox="0 0 467.857 294.333" style="enable-background:new 0 0 467.857 294.333;" xml:space="preserve">
<path d="M236.152,166.152c9.703,12.342,14.559,27.941,14.559,46.795c0,25.237-9.502,44.651-28.494,58.235
	c-18.998,13.59-46.659,20.382-82.984,20.382H0.301V0.391h130.612c33.277,0,58.995,6.655,77.161,19.966
	c18.159,13.311,27.246,31.756,27.246,55.323c0,15.254-3.535,28.428-10.607,39.517c-7.071,11.094-16.573,19.55-28.493,25.374
	C213.131,145.289,226.442,153.816,236.152,166.152z M41.897,34.084v93.175h85.272c21.351,0,37.781-3.952,49.292-11.854
	c11.504-7.903,17.262-19.479,17.262-34.733c0-15.248-5.758-26.83-17.262-34.733c-11.511-7.903-27.941-11.855-49.292-11.855H41.897z
	 M190.812,246.225c11.92-7.761,17.886-19.966,17.886-36.604c0-32.445-23.709-48.667-71.129-48.667H41.897v96.918h95.671
	C161.136,257.871,178.886,253.991,190.812,246.225z M320.588,286.781c-16.639-4.849-29.677-11.023-39.101-18.511l16.638-31.613
	c9.704,6.936,21.487,12.479,35.357,16.639c13.863,4.16,27.869,6.239,42.012,6.239c34.941,0,52.411-9.982,52.411-29.949
	c0-6.655-2.359-11.92-7.071-15.807c-4.719-3.88-10.606-6.72-17.678-8.527c-7.071-1.8-17.126-3.809-30.157-6.031
	c-17.75-2.769-32.237-5.96-43.469-9.567c-11.23-3.601-20.869-9.703-28.909-18.302c-8.046-8.592-12.063-20.655-12.063-36.189
	c0-19.966,8.319-35.98,24.957-48.043c16.639-12.063,38.958-18.094,66.971-18.094c14.694,0,29.39,1.807,44.092,5.407
	c14.695,3.607,26.758,8.462,36.188,14.559l-17.055,31.613c-18.029-11.647-39.243-17.47-63.642-17.47
	c-16.918,0-29.813,2.775-38.685,8.319c-8.879,5.55-13.311,12.895-13.311,22.046c0,7.214,2.495,12.895,7.487,17.054
	c4.991,4.16,11.159,7.214,18.51,9.151c7.345,1.943,17.679,4.16,30.989,6.655c17.743,3.055,32.094,6.311,43.052,9.775
	c10.952,3.471,20.311,9.359,28.078,17.679c7.76,8.319,11.646,19.966,11.646,34.94c0,19.967-8.527,35.845-25.582,47.628
	c-17.054,11.79-40.283,17.679-69.673,17.679C354.554,294.061,337.226,291.63,320.588,286.781z"/>
</svg>
