<?xml version="1.0" encoding="iso-8859-1"?>
<!-- Generator: Adobe Illustrator 21.1.0, SVG Export Plug-In . SVG Version: 6.00 Build 0)  -->
<svg version="1.1" id="Layer_1" xmlns="http://www.w3.org/2000/svg" xmlns:xlink="http://www.w3.org/1999/xlink" x="0px" y="0px"
	 viewBox="0 0 512 398" style="enable-background:new 0 0 512 398;" xml:space="preserve">
<path d="M175.237,248.226c20.873-7.332,36.952-19.041,48.238-35.12c11.279-16.08,16.925-35.544,16.925-58.394
	c0-32.158-11.001-57.401-33.005-75.741c-22.003-18.334-52.191-27.504-90.551-27.504H1.327v296.197h42.313v-90.128h73.203
	c4.509,0,10.717-0.278,18.618-0.847l63.894,90.975h46.122L175.237,248.226z M115.574,221.568H43.641V88.279h71.934
	c26.796,0,47.246,5.712,61.355,17.137c14.103,11.425,21.157,27.861,21.157,49.295c0,21.441-7.054,37.944-21.157,49.507
	C162.82,215.789,142.371,221.568,115.574,221.568z"/>
<path d="M496.183,223.472c-9.17-10.855-20.383-19.041-33.64-24.542c-13.263-5.501-30.188-10.79-50.776-15.868V84.471
	c25.104,1.415,49.084,9.309,71.934,23.696l13.964-33.851c-11.002-7.617-24.053-13.679-39.141-18.195
	c-15.094-4.509-30.678-7.048-46.757-7.617V0.69h-27.081v48.238c-31.312,2.539-55.08,11.57-71.299,27.081
	c-16.225,15.518-24.33,34.42-24.33,56.701c0,17.772,4.443,32.159,13.329,43.16s19.888,19.325,33.005,24.965
	c13.117,5.646,29.547,10.863,49.295,15.656v98.168c-16.925-1.124-33.15-4.721-48.66-10.79
	c-15.518-6.063-28.351-13.752-38.506-23.061l-15.656,33.005c11.002,10.155,25.738,18.552,44.218,25.176
	c18.473,6.632,38.01,10.506,58.604,11.637v47.814h27.081v-47.814c31.874-2.539,56.205-11.563,72.991-27.081
	c16.78-15.511,25.177-34.413,25.177-56.7C509.935,248.794,505.347,234.335,496.183,223.472z M384.686,176.292
	c-17.494-4.509-30.889-10.155-40.198-16.925c-9.309-6.77-13.963-16.218-13.963-28.35c0-11.848,4.509-21.931,13.54-30.254
	c9.024-8.317,22.565-13.606,40.621-15.868V176.292z M454.292,299.637c-9.454,8.04-23.63,12.906-42.525,14.599v-90.975
	c18.334,5.077,32.37,10.936,42.103,17.56c9.731,6.632,14.598,16.152,14.598,28.563C468.467,281.515,463.74,291.598,454.292,299.637z
	"/>
</svg>
