<?xml version="1.0" encoding="iso-8859-1"?>
<!-- Generator: Adobe Illustrator 21.1.0, SVG Export Plug-In . SVG Version: 6.00 Build 0)  -->
<svg version="1.1" id="Layer_1" xmlns="http://www.w3.org/2000/svg" xmlns:xlink="http://www.w3.org/1999/xlink" x="0px" y="0px"
	 viewBox="0 0 979.985 509.715" style="enable-background:new 0 0 979.985 509.715;" xml:space="preserve">
<path d="M-0.01,250.21v250.21h29.82h29.62l-0.82-175.25c-0.82-131.13-1.84-183.21-4.08-207.72c-1.63-17.97-2.25-33.5-1.43-34.31
	c0.82-1.02,13.07,20.63,27.37,48s67.4,121.53,118.06,209.36l92.12,159.93h32.27h32.47V250.21V0h-29.82h-29.82l1.02,168.92
	c0.82,121.33,1.84,180.36,4.08,208.95c1.63,21.86,2.66,40.24,2.25,40.65c-1.63,1.84-4.9-3.68-31.46-54.54
	c-14.71-28.39-67.2-121.53-116.43-207.32L65.56,1.02L32.88,0.41L0,0v250.21H-0.01z M482.64,269c0.61,135.01,0.82,138.89,5.11,155.64
	c13.89,52.49,41.06,77.62,90.49,83.95c44.32,5.52,82.11-9.19,120.1-46.16c10.82-10.62,20.22-19.2,20.83-19.2s1.84,8.58,2.66,18.79
	c0.82,10.42,1.84,23.28,2.66,28.6l1.23,9.8h25.12h25.33V315.57V130.72h-30.64h-30.64v131.75v131.54l-18.59,19.4
	c-30.03,31.66-50.45,42.08-81.09,42.08c-38.61,0-58.42-16.54-66.79-56.17c-2.45-11.64-3.06-37.17-3.06-141.55V130.72h-31.87h-31.66
	L482.64,269z M919.14,416.88c-29.21,11.64-38.61,55.15-16.75,78.03c13.48,14.3,35.95,18.59,52.49,10.21
	c42.89-22.06,27.37-90.69-20.43-90.28C928.94,414.84,922,415.86,919.14,416.88z"/>
</svg>
