<?xml version="1.0" encoding="iso-8859-1"?>
<!-- Generator: Adobe Illustrator 21.1.0, SVG Export Plug-In . SVG Version: 6.00 Build 0)  -->
<svg version="1.1" id="Capa_1" xmlns="http://www.w3.org/2000/svg" xmlns:xlink="http://www.w3.org/1999/xlink" x="0px" y="0px"
	 viewBox="0 0 233.478 373.921" style="enable-background:new 0 0 233.478 373.921;" xml:space="preserve">
<g>
	<path d="M200.06,32.092C176.931,11.283,141.744,0.733,95.521,0.733L6.863,0C5.288,0.127,3.532,0.647,2.329,1.847
		c-1.206,1.2-1.888,2.82-1.888,4.522v361.186c0,3.516,2.85,6.366,6.366,6.366H52.99c3.516,0,6.366-2.85,6.366-6.366V231.979
		c9.854,1.537,20.531,1.791,30.801,1.791c48.512,0,89.001-14.664,113.921-41.21c19.511-20.084,29.4-47.298,29.4-80.883
		C233.479,79,221.575,50.702,200.06,32.092z M91.213,183.884c-13.057,0-23.546-0.798-31.862-2.427V50.008l37.17,0.077
		c29.146,0,78.052,8.281,78.052,63.718C174.572,158.337,144.185,183.884,91.213,183.884z"/>
</g>
</svg>
