<?xml version="1.0" encoding="iso-8859-1"?>
<!-- Generator: Adobe Illustrator 21.1.0, SVG Export Plug-In . SVG Version: 6.00 Build 0)  -->
<svg version="1.1" id="Layer_1" xmlns="http://www.w3.org/2000/svg" xmlns:xlink="http://www.w3.org/1999/xlink" x="0px" y="0px"
	 viewBox="0 0 177 105.208" style="enable-background:new 0 0 177 105.208;" xml:space="preserve">
<path d="M14.504,14.154v35.711h51.372v12.587H14.504v41.42H-0.132V1.421h72.302v12.733H14.504z M109.71,98.238
	c-8.246-4.537-14.709-10.78-19.393-18.734c-4.683-7.951-7.025-16.904-7.025-26.856c0-9.953,2.342-18.903,7.025-26.857
	c4.684-7.952,11.171-14.197,19.466-18.734c8.293-4.537,17.563-6.806,27.809-6.806c8,0,15.317,1.343,21.953,4.025
	c6.635,2.685,12.295,6.66,16.979,11.928l-9.514,9.221c-7.709-8.098-17.32-12.147-28.832-12.147c-7.611,0-14.49,1.708-20.637,5.123
	c-6.147,3.417-10.955,8.123-14.417,14.124c-3.464,6-5.196,12.71-5.196,20.125c0,7.416,1.732,14.124,5.196,20.124
	c3.462,6.001,8.27,10.709,14.417,14.124c6.146,3.417,13.025,5.122,20.637,5.122c11.416,0,21.025-4.098,28.832-12.294l9.514,9.221
	c-4.684,5.269-10.369,9.271-17.051,12.001c-6.685,2.733-14.027,4.099-22.027,4.099C127.2,105.043,117.954,102.775,109.71,98.238z"/>
</svg>
