<?xml version="1.0" encoding="iso-8859-1"?>
<!-- Generator: Adobe Illustrator 21.1.0, SVG Export Plug-In . SVG Version: 6.00 Build 0)  -->
<svg version="1.1" id="Capa_1" xmlns="http://www.w3.org/2000/svg" xmlns:xlink="http://www.w3.org/1999/xlink" x="0px" y="0px"
	 viewBox="0 0 512 176.623" style="enable-background:new 0 0 512 176.623;" xml:space="preserve">
<path d="M44.384,164.663c-13.819-7.603-24.65-18.065-32.499-31.395C4.037,119.943,0.112,104.94,0.112,88.261
	s3.924-31.678,11.773-45.007c7.849-13.325,18.721-23.791,32.621-31.395C58.402,4.256,73.939,0.454,91.108,0.454
	c13.405,0,25.669,2.25,36.791,6.745c11.118,4.499,20.603,11.16,28.451,19.99l-15.942,15.452
	c-12.919-13.57-29.026-20.357-48.318-20.357c-12.754,0-24.282,2.863-34.583,8.584c-10.302,5.726-18.357,13.613-24.159,23.669
	c-5.806,10.056-8.707,21.3-8.707,33.725c0,12.429,2.901,23.669,8.707,33.725c5.802,10.057,13.857,17.947,24.159,23.669
	c10.301,5.726,21.829,8.584,34.583,8.584c19.131,0,35.235-6.867,48.318-20.603l15.942,15.452
	c-7.849,8.83-17.375,15.536-28.574,20.112c-11.202,4.579-23.508,6.867-36.914,6.867C73.693,176.068,58.199,172.266,44.384,164.663z
	 M339.074,2.417v171.689h-24.527V97.582h-98.599v76.524h-24.527V2.417h24.527v73.826h98.599V2.417H339.074z M415.107,23.755v59.846
	h86.09v21.093h-86.09v69.412h-24.526V2.417h121.163v21.338H415.107z"/>
</svg>
