<?xml version="1.0" encoding="utf-8"?>
<!-- Generator: Adobe Illustrator 21.1.0, SVG Export Plug-In . SVG Version: 6.00 Build 0)  -->
<svg version="1.1" id="Capa_1" xmlns="http://www.w3.org/2000/svg" xmlns:xlink="http://www.w3.org/1999/xlink" x="0px" y="0px"
	 viewBox="0 0 857 294.5" style="enable-background:new 0 0 857 294.5;" xml:space="preserve">
<path d="M74.2,276.7C51.1,264,33,246.5,19.9,224.2C6.7,202,0.2,176.9,0.2,149c0-27.9,6.6-53,19.7-75.2C33,51.5,51.2,34,74.4,21.3
	C97.6,8.6,123.6,2.2,152.3,2.2c22.4,0,42.9,3.8,61.5,11.3c18.6,7.5,34.4,18.7,47.6,33.4l-26.6,25.8c-21.6-22.7-48.5-34-80.8-34
	c-21.3,0-40.6,4.8-57.8,14.4c-17.2,9.6-30.7,22.8-40.4,39.6C46,109.4,41.2,128.2,41.2,149c0,20.8,4.8,39.6,14.6,56.4
	c9.7,16.8,23.2,30,40.4,39.6c17.2,9.6,36.5,14.4,57.8,14.4c32,0,58.9-11.5,80.8-34.4l26.6,25.8c-13.1,14.8-29,26-47.8,33.6
	c-18.7,7.7-39.3,11.5-61.7,11.5C123.2,295.8,97.3,289.4,74.2,276.7z M566.8,5.5v287h-41V164.6H361v127.9h-41V5.5h41v123.4h164.8V5.5
	H566.8z M693.9,41.2v100h143.9v35.3H693.9v116h-41V5.5h202.5v35.7H693.9z"/>
</svg>
