<?xml version="1.0" encoding="utf-8"?>
<!-- Generator: Adobe Illustrator 21.1.0, SVG Export Plug-In . SVG Version: 6.00 Build 0)  -->
<svg version="1.1" id="Layer_1" xmlns="http://www.w3.org/2000/svg" xmlns:xlink="http://www.w3.org/1999/xlink" x="0px" y="0px"
	 viewBox="0 0 198.8 109.3" style="enable-background:new 0 0 198.8 109.3;" xml:space="preserve">
<style type="text/css">
	.st0{display:none;}
	.st1{display:inline;fill:none;}
	.st2{enable-background:new    ;}
</style>
<g>
	<title>background</title>
	<g id="canvasGrid" class="st0">
		<rect x="-13.1" y="-26" class="st1" width="300" height="160"/>
	</g>
</g>
<title>Layer 1</title>
<path id="svg_1" class="st2" d="M14.5,97.4c-7.9-8.1-11.9-19.8-11.9-35V1.9h15.2v59.9c0,22.8,10,34.2,30,34.2
	c9.7,0,17.2-2.8,22.4-8.4S78,73.3,78,61.8V1.9h14.8v60.5c0,15.3-4,27-11.9,35.1s-19,12.1-33.2,12.1C33.5,109.5,22.5,105.5,14.5,97.4
	z M139.1,15.1v37.1h53.4v13.1h-53.4v43h-15.2V1.9H199v13.2H139.1z"/>
</svg>
