<?xml version="1.0" encoding="utf-8"?>
<!-- Generator: Adobe Illustrator 21.1.0, SVG Export Plug-In . SVG Version: 6.00 Build 0)  -->
<svg version="1.1" id="Layer_1" xmlns="http://www.w3.org/2000/svg" xmlns:xlink="http://www.w3.org/1999/xlink" x="0px" y="0px"
	 viewBox="0 0 445.5 445.5" style="enable-background:new 0 0 445.5 445.5;" xml:space="preserve">
<g>
	<path d="M198.8,116.6c0,47.5-36.3,86.2-80.9,86.2h-77V0.5h-40v445h40V242.8h77c44.6,0,80.9,38.7,80.9,86.2v116.4h40V329
		c0-44.5-22.2-83.7-55.6-106.2c33.4-22.5,55.6-61.7,55.6-106.2V0.5h-40L198.8,116.6L198.8,116.6z"/>
	<polygon points="368.7,86.5 404.7,18.9 369.4,0.1 351.5,33.6 333.3,0 298.2,19.1 334.7,86.5 	"/>
	<path d="M351.4,405.5c-29.3,0-53.1-23.8-53.1-53.1V199.2c0-29.3,23.8-53.1,53.1-53.1s53.1,23.8,53.1,53.1h40
		c0-51.4-41.8-93.1-93.1-93.1s-93.1,41.8-93.1,93.1v153.1c0,51.4,41.8,93.1,93.1,93.1s93.1-41.8,93.1-93.1h-40
		C404.5,381.6,380.7,405.5,351.4,405.5z"/>
</g>
</svg>
