<?xml version="1.0" encoding="utf-8"?>
<!-- Generator: Adobe Illustrator 21.1.0, SVG Export Plug-In . SVG Version: 6.00 Build 0)  -->
<svg version="1.1" id="Layer_1" xmlns="http://www.w3.org/2000/svg" xmlns:xlink="http://www.w3.org/1999/xlink" x="0px" y="0px"
	 viewBox="0 0 158.1 153.5" style="enable-background:new 0 0 158.1 153.5;" xml:space="preserve">
<style type="text/css">
	.st0{enable-background:new    ;}
</style>
<g>
	<title>Layer 1</title>
	<g id="svg_2" class="st0">
		<path d="M11.2,23.2v39.1h39.5v13.8H11.2v45.4H0V9.2h55.6v14H11.2z"/>
		<path d="M124.3,2.5v119H114V108c-2.4,4.7-5.4,8.3-9.1,10.7c-3.7,2.5-7.7,3.7-12.2,3.7c-5.8,0-11-1.8-15.5-5.5
			c-4.6-3.6-8.2-8.7-10.8-15.3c-2.6-6.6-3.9-14.1-3.9-22.7c0-8.6,1.3-16.1,3.9-22.6c2.6-6.5,6.2-11.6,10.8-15.2
			c4.6-3.6,9.8-5.5,15.5-5.5c4.3,0,8.2,1.2,11.8,3.4c3.6,2.3,6.6,5.7,9,10.2V2.5H124.3z M103.8,105.2c3.1-2.5,5.5-6,7.2-10.6
			c1.7-4.5,2.6-9.8,2.6-15.6c0-5.9-0.9-11.1-2.6-15.6c-1.7-4.5-4.1-8-7.2-10.5c-3.1-2.5-6.5-3.7-10.2-3.7c-3.8,0-7.3,1.2-10.3,3.7
			c-3,2.5-5.4,6-7.2,10.5c-1.8,4.5-2.6,9.8-2.6,15.6c0,5.9,0.9,11.1,2.6,15.6c1.8,4.5,4.2,8.1,7.2,10.6c3,2.5,6.5,3.8,10.3,3.8
			C97.3,109,100.7,107.7,103.8,105.2z"/>
		<path d="M129.8,152.3c-2.3-0.9-4.1-2.1-5.6-3.8l3.5-11.9c2.3,2.7,5.2,4,8.8,4c2.9,0,5-1.3,6.6-3.8c1.5-2.5,2.3-6.2,2.3-11.1V36.5
			h10.8v88.9c0,8.8-1.7,15.7-5,20.7c-3.3,5-8,7.5-14.1,7.5C134.5,153.5,132.1,153.1,129.8,152.3z M145.5,17.2
			c-1.4-1.9-2.1-4.3-2.1-7.1c0-2.8,0.7-5.2,2.1-7.1c1.4-2,3.1-3,5.2-3c2.1,0,3.8,0.9,5.2,2.8c1.4,1.9,2.1,4.2,2.1,7
			c0,2.9-0.7,5.3-2.1,7.3c-1.4,2-3.1,3-5.2,3C148.7,20.1,146.9,19.1,145.5,17.2z"/>
	</g>
</g>
</svg>
