<?xml version="1.0" encoding="utf-8"?>
<!-- Generator: Adobe Illustrator 21.1.0, SVG Export Plug-In . SVG Version: 6.00 Build 0)  -->
<svg version="1.1" id="Layer_1" xmlns="http://www.w3.org/2000/svg" xmlns:xlink="http://www.w3.org/1999/xlink" x="0px" y="0px"
	 viewBox="0 0 504 423" style="enable-background:new 0 0 504 423;" xml:space="preserve">
<path d="M52.6,263.8h1.2c7-9.9,16.9-22.1,25-32l82.6-97.1h61.7L114.3,250.4l123.9,165.8h-62.2L78.8,281.2l-26.2,29.1v105.9H2V3.2
	h50.6V263.8z M284.7,222.5c0-33.2-0.6-61.7-2.3-87.8h44.8l1.7,55.3h2.3c12.8-37.8,43.6-61.7,77.9-61.7c5.8,0,9.9,0.6,14.5,1.7v48.3
	c-5.2-1.2-10.5-1.7-17.4-1.7c-36.1,0-61.7,27.3-68.6,65.7c-1.2,7-2.3,15.1-2.3,23.8v150.1h-50.6V222.5z M431.9,385.9
	c0-21.5,14.5-36.6,34.9-36.6c20.4,0,34.3,15.1,34.3,36.6c0,20.9-13.4,36.6-34.9,36.6C445.8,422.6,431.9,406.9,431.9,385.9z"/>
</svg>
