<?xml version="1.0" encoding="utf-8"?>
<!-- Generator: Adobe Illustrator 21.1.0, SVG Export Plug-In . SVG Version: 6.00 Build 0)  -->
<svg version="1.1" id="Layer_1" xmlns="http://www.w3.org/2000/svg" xmlns:xlink="http://www.w3.org/1999/xlink" x="0px" y="0px"
	 viewBox="0 0 1000 482.8" style="enable-background:new 0 0 1000 482.8;" xml:space="preserve">
<path d="M2.4,0h203.5c51,0,96.3,10.1,135.9,30.3c39.5,20.2,70.2,48.6,92.1,85.2c21.8,36.6,32.8,78.5,32.8,125.9
	c0,47.4-10.9,89.3-32.8,125.9c-21.8,36.6-52.5,65-92.1,85.2c-39.6,20.2-84.8,30.3-135.9,30.3H2.4V0z M201.7,422.8
	c39.1,0,73.5-7.6,103.1-22.8s52.5-36.4,68.6-63.8c16.1-27.4,24.1-59,24.1-94.8c0-35.9-8.1-67.5-24.1-94.8
	c-16.1-27.4-39-48.6-68.6-63.8S240.8,60,201.7,60H71.3v362.8H201.7z M872.8,362.1H616.2l-53.1,120.7h-71L710.7,0H779l219.3,482.8
	h-72.4L872.8,362.1z M848.6,306.9L744.5,70.4L640.3,306.9H848.6z"/>
</svg>
