<?xml version="1.0" encoding="utf-8"?>
<!-- Generator: Adobe Illustrator 21.1.0, SVG Export Plug-In . SVG Version: 6.00 Build 0)  -->
<svg version="1.1" id="Layer_1" xmlns="http://www.w3.org/2000/svg" xmlns:xlink="http://www.w3.org/1999/xlink" x="0px" y="0px"
	 viewBox="0 0 171.5 112" style="enable-background:new 0 0 171.5 112;" xml:space="preserve">
<style type="text/css">
	.st0{enable-background:new    ;}
</style>
<title>Layer 1</title>
<path id="svg_3" class="st0" d="M1.2,110.2V2.4h78v12.7H15.5v33h59.7v12.7H15.5v36.7h66.2v12.7H1.2z M118.9,50.7h23.2v10.9h-20.9
	c0.9,2.2,1.4,4.3,1.4,6.5c0,4.3-1,8.8-3.1,13.5c-2,4.8-5.4,9.6-10,14.6c3.9-1.1,7.4-1.6,10.6-1.6c4.1,0,8.7,0.6,13.8,1.8
	c8.4,2,14.1,3,17.1,3c3.6,0,8.3-1.4,14.1-4.1l4.3,12.1c-4.5,1.9-8,3.2-10.5,3.8s-4.9,0.9-7.4,0.9c-2.1,0-4.1-0.2-6.3-0.6
	c-1.3-0.2-4.5-1.1-9.5-2.7c-5-1.5-8.3-2.5-9.7-2.8c-2.3-0.4-4.6-0.6-6.9-0.6c-3.5,0-7.3,0.6-11.3,1.8c-4,1.2-7.6,2.9-10.9,5
	l-5.1-12.7c4.7-2.6,8.7-6.3,12-11.1c3.3-4.8,4.9-10.7,4.9-17.7c0-3-0.4-6-1.3-9.1H93V50.7h11.3c-1.6-5.5-2.6-9.5-3.1-12
	c-0.4-2.5-0.7-5-0.7-7.4c0-10.2,3.8-18.2,11.3-23.9c6.1-4.6,13.4-6.8,22.1-6.8c8.9,0,16.2,2.4,22,7.3c5.8,4.9,9.3,11.7,10.6,20.6
	l-13.2,2c-0.7-5.9-2.9-10.5-6.6-13.9c-3.7-3.4-8-5.1-13.1-5.1c-5.4,0-10,1.8-13.6,5.3c-3.6,3.5-5.4,7.7-5.4,12.7
	C114.7,34.8,116.1,41.9,118.9,50.7z"/>
</svg>
