<?xml version="1.0" encoding="utf-8"?>
<!-- Generator: Adobe Illustrator 21.1.0, SVG Export Plug-In . SVG Version: 6.00 Build 0)  -->
<svg version="1.1" id="Layer_1" xmlns="http://www.w3.org/2000/svg" xmlns:xlink="http://www.w3.org/1999/xlink" x="0px" y="0px"
	 viewBox="0 0 223 129.9" style="enable-background:new 0 0 223 129.9;" xml:space="preserve">
<style type="text/css">
	.st0{enable-background:new    ;}
</style>
<g>
	<title>Layer 1</title>
	<g id="svg_1" class="st0">
		<path d="M13.8,28.7v33.8h48.6v11.9H13.8v39.2H0V16.6h68.4v12H13.8z"/>
		<path d="M82.1,111c-5-2.4-9-5.9-12-10.3l8-9.4c5.4,7.7,12.1,11.5,20.2,11.5c5.4,0,9.6-1.7,12.4-5c2.8-3.3,4.2-8.2,4.2-14.7V28.7
			h-35v-12h48.7v65.8c0,10.7-2.6,18.8-7.7,24.2c-5.1,5.4-12.7,8.1-22.6,8.1C92.4,114.7,87,113.4,82.1,111z"/>
		<path d="M214.3,105.7c-5.5,5.1-13.5,8-23.9,8.9v15.6h-8.9v-15.6c-6.7-0.4-13.1-1.6-19.2-3.8c-6-2.2-10.9-4.9-14.5-8.2l5.1-10.8
			c3.3,3,7.5,5.6,12.6,7.5c5.1,2,10.4,3.2,15.9,3.5V70.6c-6.5-1.6-11.8-3.3-16.1-5.1c-4.3-1.8-7.9-4.6-10.8-8.2
			c-2.9-3.6-4.4-8.3-4.4-14.1c0-7.3,2.7-13.5,8-18.6c5.3-5.1,13.1-8,23.3-8.9V0h8.9v15.6c5.3,0.2,10.4,1,15.3,2.5
			c4.9,1.5,9.2,3.5,12.8,6L214,35.2c-7.5-4.7-15.3-7.3-23.5-7.8v32.3c6.7,1.7,12.3,3.4,16.6,5.2c4.3,1.8,8,4.5,11,8
			c3,3.6,4.5,8.3,4.5,14.2C222.6,94.4,219.8,100.6,214.3,105.7z M168.5,51.9c3,2.2,7.4,4.1,13.2,5.5V27.6
			c-5.9,0.7-10.3,2.5-13.3,5.2c-3,2.7-4.4,6-4.4,9.9C163.9,46.6,165.4,49.7,168.5,51.9z M204.4,97.8c3.1-2.6,4.6-5.9,4.6-9.9
			c0-4.1-1.6-7.2-4.8-9.3c-3.2-2.2-7.8-4.1-13.8-5.7v29.8C196.6,102.1,201.3,100.5,204.4,97.8z"/>
	</g>
</g>
</svg>
