<?xml version="1.0" encoding="utf-8"?>
<!-- Generator: Adobe Illustrator 21.1.0, SVG Export Plug-In . SVG Version: 6.00 Build 0)  -->
<svg version="1.1" id="Capa_1" xmlns="http://www.w3.org/2000/svg" xmlns:xlink="http://www.w3.org/1999/xlink" x="0px" y="0px"
	 viewBox="0 0 8.5 13.5" style="enable-background:new 0 0 8.5 13.5;" xml:space="preserve">
<path d="M0,13.5v-1c1.4-0.7,2.3-2,2.3-3.6c0-0.5,0-0.9-0.1-1.4H0.1V6.2H2C1.9,5.6,1.8,4.8,1.8,4c0-2.4,1.7-4,3.9-4
	c1.1,0,1.8,0.2,2.2,0.5L7.5,1.9c-0.4-0.2-1-0.4-1.8-0.4C4.1,1.5,3.5,2.6,3.5,4c0,0.9,0.1,1.5,0.2,2.2h2.9v1.3H3.9
	C3.9,8.3,4,9,3.8,9.8c-0.2,0.9-0.7,1.6-1.4,2.2v0h6.1v1.5H0z"/>
</svg>
