<?xml version="1.0" encoding="utf-8"?>
<!-- Generator: Adobe Illustrator 21.1.0, SVG Export Plug-In . SVG Version: 6.00 Build 0)  -->
<svg version="1.1"
	 id="svg2985" inkscape:version="0.48.4 r9939" sodipodi:docname="Sign_of_Georgian_Lari_(5).png" xmlns:cc="http://creativecommons.org/ns#" xmlns:dc="http://purl.org/dc/elements/1.1/" xmlns:inkscape="http://www.inkscape.org/namespaces/inkscape" xmlns:rdf="http://www.w3.org/1999/02/22-rdf-syntax-ns#" xmlns:sodipodi="http://sodipodi.sourceforge.net/DTD/sodipodi-0.dtd" xmlns:svg="http://www.w3.org/2000/svg"
	 xmlns="http://www.w3.org/2000/svg" xmlns:xlink="http://www.w3.org/1999/xlink" x="0px" y="0px" viewBox="0 0 1174.1 1378.3"
	 style="enable-background:new 0 0 1174.1 1378.3;" xml:space="preserve">
<style type="text/css">
	.st0{fill:#232020;stroke:#000000;}
</style>
<sodipodi:namedview  bordercolor="#666666" borderopacity="1" gridtolerance="10" guidetolerance="10" id="namedview2987" inkscape:current-layer="svg2985" inkscape:cx="814.6154" inkscape:cy="691.41801" inkscape:pageopacity="0" inkscape:pageshadow="2" inkscape:window-height="1003" inkscape:window-maximized="1" inkscape:window-width="1920" inkscape:window-x="-9" inkscape:window-y="-9" inkscape:zoom="0.22459761" objecttolerance="10" pagecolor="#ffffff" showgrid="false">
	</sodipodi:namedview>
<path id="path2995" class="st0" d="M517.1,0L429,88.5l-11,10.1l0.3,124.5l-11.8,3.7l-9.7,3.4l-10.3,3.2l-7.8,3.4l-9,3.5l-9.9,3.7
	l-8.8,4.3l-9,3.9l-8.1,3.9l-6.9,3.2l-8.5,4.6l-6.7,3.9l-6.9,3.9l-8.5,4.6l-6.8,3.7l-9.7,5.8l-10.6,6.9l-11.5,7.8l-8.8,5.8l-10.1,7.6
	l-6.4,4.9l-8.1,6.4l-7.4,5.8l-8,6.4l-7.3,5.8l-5.7,5.7l-6.9,6.3l-12.6,11.9l-5.5,5.3l-4.4,4.6l-6,5.8l-7.3,7.8l-6.9,7.4l-4.4,5.8
	l-5.5,6l-4.9,6.6l-5,6.4l-4.8,6.3l-4.9,6l-4.4,6l-4.6,5.7l-3.5,5.3l-4.1,6.6l-4.3,6.9l-3.7,4.9l-3.5,5.3l-5.5,8.8l-2.5,5.1l-3,5.3
	l-4.3,6.9l-3.3,5.3l-2,5.3l-4.1,6.9l-3.9,7.1l-4.3,8.7l-3.2,8.1l-3.5,8.7l-3.6,7.3l-2.8,6.3l-2.7,7.4l-4.1,9.2l-3.2,9.6l-4.6,13.6
	l-2.5,8.3l-2.8,9.4l-2.5,8.7l-2.1,8.7l-5.5,24l-1.4,7.4l-2.3,8.7l-1.6,10.6l-1.1,7.1l-1.6,11.1l-1.6,12.2L2,741.2l-1.3,13.6
	l-0.5,10.4L0,777.8l0.2,30.6l0.3,10.1L1.6,833l0.9,11.8l0.9,8.5l0.9,9l0.9,7.3l1.6,9l1.3,8.7l1.3,7.8l1.6,7.8l1.4,6.7l2.1,9.4
	l1.9,8.2l1.8,8.3l2.8,9l2.3,9.2l2.3,7.8l2.1,6.7l2.3,7.8l2.7,7.3l2.7,7.8l3,7.6l2.7,6.7l2.5,5.8l3.4,8.3l3.3,8.2l3.7,7.6l3.2,7.6
	l3.2,6.2l3.2,5.7l3.7,8.1l3.3,6.2l3.4,6.4l3.7,6.4l2.3,4.1l2.3,3.9l3.3,5.5l3,5.1l2.8,4.4l3.4,4.6l2.8,4.9l4.4,6.7l3.9,5.7l4.3,5.7
	l3,4.6l3.4,4.4l4.3,5.5l3.5,4.6l4.9,6l6.2,7.4l5.1,6.7l6,6.6l4.4,5.5l4.8,4.8l5.7,6l5.1,5.7l5.1,5.1l3.9,3.7l4.8,4.4l5,5l4.3,3.9
	l4.6,4.3l3.7,3.5l4.9,4.3l4.6,4.3l4.1,2.8l3.7,3.6l3.9,3l3.2,2.3l3.5,2.8l4.3,3.4l4.1,3.2l4.4,3.2l4.8,3.5l4.3,3.2l3,2l2.5,1.9
	l2.8,1.9l3,2.1l2.6,1.8l2.3,1.2H98.2l-98,98h984.9l97.7-98l-513.3-0.2l-11.1-0.2l-13.5-1.4l-19.4-1.6l-17.9-3.5l-13.8-2.5l-14.3-3.3
	l-12.4-2.7l-13.6-3.4l-9-2.7l-14.3-5.1l-12.2-4.4l-10.4-3.7l-9.7-4.1l-10.1-5.1l-9.2-4.4l-11.8-5.5l-11.7-6.4l-10.4-6.2l-10.1-6
	l-7.6-4.9l-9.9-5.8l-9-6.7l-7.8-5l-7.6-5.7l-8.7-7.3l-8.8-7.1l-9-8l-8.7-7.4l-9.2-9l-8.5-8.3l-5.8-5.7l-6.9-8.3l-5.5-5.8l-5.5-5.8
	l-6.9-8.5l-7.6-9.4c0,0-6.7-9-6.7-9.7c0-0.7-6.6-8.3-6.6-8.3l-7.4-11.2l-6-8.8l-6-9.4l-5.7-9.7l-4.8-8.2l-4.1-8.1l-6-11.2l-4.6-10.6
	l-4.4-10.3l-4.9-10.6l-3.4-8l-2.8-7.3l-3-9.2l-4.1-12.8l-4.2-13.4l-4.3-15l-2.7-12.9l-2.8-14.2l-2.7-12l-1.8-14.3l-1.4-13.4
	l-1.4-15.2l-0.7-8.8l-0.7-10.3v-9.4l0.2-8.8l0.5-9.2l0.3-14.7l0.7-11l0.5-11.5l0.9-8l1.4-11l1.6-10.1l1.3-10.3l1.8-8.7l2.3-10.8
	l1.8-8.8l1.6-6.7l2.3-8.8l2.5-7.6l2.8-10.6l2.8-7.6l3.7-10.6l3.5-9.9l3.6-8.7l3.9-11l5-10.6l3.5-6.4l4.1-8.7l4.6-9.2l3.7-6.9l5.1-9
	l5.8-9l3.9-7.1l4.6-6.7l6.7-9.8l5.7-8.1l5.1-7.6l5.3-7.1l4.6-6.4l4.3-4.8l5.1-5.7l4.1-5.1l3.9-4.3l4.8-4.8l4.1-5l6-5.5l5.3-5.5
	l10.6-10.3l3.7-3.9l4.9-4.4l5-4.4l4.4-4.1l5.3-4.6l6.2-4.8l5.8-4.4l5.8-4.6l6-3.7l7.3-5.5l6.9-4.9l7.4-4.8l5.3-3.9l7.1-4.1l6.4-3.9
	l4.8-3.2l6-2.7l4.6-2.8l6.2-3.2l6.9-3.5l6.9-3.2l4.1-2.5l6.5-2.5l5.7-2.5l6.6-3l5.3-2.3l5.3-2.1l5.2-1.8l2.8-1.3v461.2l98.5-98.2
	l0.2-388.5l1.2-0.5l4.3-0.7l5-0.5l6.7-1.1l6.5-0.5l4.2-0.2l0.1,0.1l1.7,0.2l8.2-0.9l8.8-0.5l10.7-0.3l33-0.2l12,0.6l10.3,0.7
	l7.7,0.7l7.3,0.8l7.9,1l5.9,0.9l5.3,0.7l0.2,486.6l98.8-98.2V327.4l1.5,0.4l3.3,1.4l4.7,1.9l6.3,2.3l4.3,2.1l6.4,2.8l7.1,3.2
	l6.6,3.2l6.4,3.3l7.1,3.5l7.8,4.2l5.6,2.9l4.9,2.7l4.2,2.8l4.9,2.8l4,2.1l5.1,3.4l4.4,2.9l5.4,3.3l4.7,3.2l4.7,3.4l4.8,3.4l4.7,3.3
	l5.5,4.2l5,3.9l3.9,3.1l4.2,3.3l4.5,3.5l4.9,4l5.8,5.5l5,4.3l4.8,4.6l5.2,4.6l5.1,5.3l3.9,3.2l3.6,3.9l5.8,6.2l5.1,5.4l3.4,4
	l3.6,4.1l5.4,6.1l5.7,6.9l4.8,5.8l2.7,4.3l3.5,5l4.3,5.5l3.5,4.7l3.3,4.7l3.3,4.8l3.9,5.8l3.3,5.4l3.1,4.6l2.8,4.1l2.8,4.4l2.8,4.4
	l2.6,5l2.3,4.5l2.9,5.4l2.6,4.2l2,4l2.3,4.9l2,3.5l2,4.1l3.1,6.6l3.1,7.2l1.8,3.7l1.7,4l1.7,3.9l1.5,4l1.8,5l1.5,4l2.1,4.4l1.4,3.6
	l1.2,3.6l1.6,4.9l1.1,3.5l1.5,4.8l1.4,5.2l1.6,5.2l1.8,5.4l1.8,7.1l1.6,5.8l2.1,9.6l1.2,4.9l1.2,5.5l1.4,7.4l0.4,1.4l1,5.8l1.3,6.9
	l0.9,7.5l1,7.4l1.2,9.5l1,8.7l0.7,10.3l0.6,9.1l0.7,11.9l0.4,13.4l90.8-90.8l0.2-1.7l-0.5-3.9l-0.8-4.8l-0.9-5.1l-0.7-4l-1.1-6.1
	l-1.3-5.3l-0.9-5l-2.1-8.5l-1.1-4.5l-1.4-5.5l-1.7-6.2l-1.4-5.2l-1.4-5.3l-1.3-4.3l-1.4-5l-1.8-5.6l-1.8-5.8l-2.5-7.3l-2-5.8
	l-1.8-5.7l-2.2-5.5l-1.8-4.7l-2.3-6.8l-2.3-5.2l-2.1-4.6l-2.4-5.7l-2.3-5.2l-2.8-6.7l-2.3-5.2l-2.6-4.8l-2.8-5.9l-2.3-4.5l-2.9-6
	l-2.5-4.5l-2.6-4.8l-2.9-5.1l-3.4-5.7l-3.1-5.8l-2.7-4.5l-2.8-4.9l-2.8-4.3l-2.8-5l-2.6-4l-3.2-4.5l-2.2-3.5l-2.3-3l-3.4-5.3l-3.5-5
	l-3.1-4.3l-2.8-4l-3.3-4.5l-3.5-4.5l-3.5-4.5l-2-3l-3.2-3.6l-2-2.5l-3.4-4.3l-3.2-3.8l-3.5-4.2l-5.4-6.4l-4.5-5.1l-4.2-4.2l-4-4.4
	l-4.4-4.4l-6.5-6.6l-5.6-5.2l-4.6-4.5l-5.6-5.5l-5-4.8l-4.4-3.7l-5.8-5.5l-4.9-4l-4.1-3.7l-5.4-4.2l-4.6-3.7l-5.3-4.3l-5.1-3.8
	l-5.7-4.1l-5-3.6l-5.8-4.5l-5.5-3.9l-4.4-3.3l-4.6-3l-4.8-3.1l-5.5-3.4l-5.8-3.7l-5.3-3.5l-4.6-2.8l-5.5-3l-4.9-2.8l-5.5-2.9
	l-5.8-3.3l-4.9-2.6l-5.8-3l-5.6-2.8l-4.9-2.5l-6.9-3.3l-6.2-2.9l-6.4-3l-7.9-3.4l-5.9-2.6l-6.8-2.6l-5.8-2.3l-5.4-1.9l-5.8-2.1
	l-7.8-3l-5.8-1.9l-6.6-2.3l-5.4-1.6l-3.4-0.6l-0.2-223l-99,98.4l0.1,103.6l-7.9-1.3l-10.5-1.2l-8.4-0.9l-14.2-1.1l-13.2-0.4
	l-7.8-0.3l-18.9,0.2l-12.4,0.2l-14.4,0.5l-10,0.5l-2.6,0.6l0,0l-8.6,0.7l-8.8,0.7l-6.2,1.3l-2.8,1.2L517.1,0z"/>
</svg>
