<?xml version="1.0" encoding="utf-8"?>
<!-- Generator: Adobe Illustrator 21.1.0, SVG Export Plug-In . SVG Version: 6.00 Build 0)  -->
<svg version="1.1" id="Capa_1" xmlns="http://www.w3.org/2000/svg" xmlns:xlink="http://www.w3.org/1999/xlink" x="0px" y="0px"
	 viewBox="0 0 495 211" style="enable-background:new 0 0 495 211;" xml:space="preserve">
<path d="M121,105h21.4v60.9c-7.7,6.4-16.7,11.3-27,14.7c-10.3,3.4-21,5.1-32.1,5.1c-15.8,0-30-3.5-42.6-10.4
	c-12.6-6.9-22.6-16.4-29.8-28.5C3.8,134.7,0.2,121,0.2,105.9S3.8,77,11,64.8c7.2-12.2,17.2-21.7,29.9-28.5
	c12.7-6.8,27-10.3,42.9-10.3c12.5,0,23.8,2,34,6.1c10.2,4.1,18.8,10.1,26,17.9L129.9,64c-12.5-12-27.6-18.1-45.3-18.1
	c-11.9,0-22.6,2.6-32,7.7C43.2,58.7,35.9,65.8,30.5,75s-8,19.4-8,30.9c0,11.3,2.7,21.5,8,30.7s12.7,16.3,22.2,21.5
	c9.4,5.2,20,7.8,31.8,7.8c14,0,26.2-3.3,36.6-10V105z M319.2,27.8v156.1h-22.3v-69.6h-89.6v69.6H185V27.8h22.3v67.1h89.6V27.8H319.2
	z M480.8,147.1l14.5,14c-6.7,7.6-14.8,13.5-24.3,17.6c-9.5,4.2-19.9,6.5-31.2,6.9v25h-14.5V185c-13.8-1.5-26.2-5.8-37.1-12.9
	c-10.9-7.1-19.5-16.5-25.6-28c-6.2-11.5-9.3-24.3-9.3-38.2c0-14,3.1-26.7,9.3-38.2c6.2-11.5,14.7-20.8,25.6-28s23.3-11.4,37.1-12.9
	V1.1h14.5v25c11.3,0.4,21.7,2.7,31.2,6.8c9.5,4.1,17.6,9.9,24.3,17.5l-14.5,14c-11-11.6-24.7-17.8-41-18.5v119.9
	C456,165.1,469.7,158.9,480.8,147.1z M382,133.5c4.2,8.3,10.1,15.2,17.6,20.7c7.5,5.5,16.1,9.1,25.8,10.7V46.8
	c-9.7,1.6-18.2,5.2-25.8,10.7c-7.5,5.5-13.4,12.4-17.6,20.7c-4.2,8.3-6.4,17.5-6.4,27.6C375.6,116,377.7,125.2,382,133.5z"/>
</svg>
