<?xml version="1.0" encoding="utf-8"?>
<!-- Generator: Adobe Illustrator 21.1.0, SVG Export Plug-In . SVG Version: 6.00 Build 0)  -->
<svg version="1.1" id="Layer_1" xmlns="http://www.w3.org/2000/svg" xmlns:xlink="http://www.w3.org/1999/xlink" x="0px" y="0px"
	 viewBox="0 0 275.6 385.3" style="enable-background:new 0 0 275.6 385.3;" xml:space="preserve">
<g>
	<path d="M1,50.3h121c30.3,0,57.3,6,80.8,18c23.5,12,41.7,28.9,54.7,50.6c13,21.7,19.5,46.7,19.5,74.8c0,28.2-6.5,53.1-19.5,74.8
		c-13,21.7-31.2,38.6-54.7,50.6c-23.5,12-50.4,18-80.8,18H1V50.3z M119.5,301.7c23.2,0,43.7-4.5,61.3-13.5s31.2-21.7,40.8-37.9
		c9.6-16.3,14.4-35.1,14.4-56.4s-4.8-40.1-14.4-56.4c-9.6-16.3-23.2-28.9-40.8-37.9S142.8,86,119.5,86H42v215.7H119.5z"/>
</g>
</svg>
