<?xml version="1.0" encoding="utf-8"?>
<!-- Generator: Adobe Illustrator 21.1.0, SVG Export Plug-In . SVG Version: 6.00 Build 0)  -->
<svg version="1.1" id="Layer_1" xmlns="http://www.w3.org/2000/svg" xmlns:xlink="http://www.w3.org/1999/xlink" x="0px" y="0px"
	 viewBox="0 0 838.5 871.1" style="enable-background:new 0 0 838.5 871.1;" xml:space="preserve">
<path d="M2.6,2.2h366.2c91.8,0,173.4,18.2,244.5,54.6c71.2,36.4,126.4,87.5,165.7,153.3c39.3,65.8,59,141.3,59,226.5
	c0,85.2-19.7,160.8-59,226.5s-94.5,116.9-165.7,153.3c-71.2,36.4-152.7,54.6-244.5,54.6H2.6V2.2z M361.3,763.1
	c70.3,0,132.2-13.7,185.6-41s94.5-65.6,123.5-114.8s43.5-106.1,43.5-170.7c0-64.5-14.5-121.4-43.5-170.7
	c-29-49.2-70.1-87.5-123.5-114.8s-115.2-41-185.6-41H126.7v652.9H361.3z"/>
</svg>
