<?xml version="1.0" encoding="utf-8"?>
<!-- Generator: Adobe Illustrator 21.1.0, SVG Export Plug-In . SVG Version: 6.00 Build 0)  -->
<svg version="1.1" id="Capa_1" xmlns="http://www.w3.org/2000/svg" xmlns:xlink="http://www.w3.org/1999/xlink" x="0px" y="0px"
	 viewBox="0 0 64.2 79.8" style="enable-background:new 0 0 64.2 79.8;" xml:space="preserve">
<path d="M60.9,79.1c-9.2-2.4-18.2-5.1-26-7.9c-1.4-0.5-2.8-1-4.1-1c-16.1-0.6-30-12.5-30-34.4C0.8,14,14.1,0,32.5,0
	c18.5,0,30.5,14.3,30.5,34.4c0,17.5-8.1,28.7-19.4,32.6v0.4c6.8,1.7,14.1,3.3,19.9,4.3L60.9,79.1z M53.6,34.8
	c0-13.6-7.1-27.6-21.5-27.6c-14.8,0-22.1,13.7-22,28.5C10.1,50,18,63,31.7,63C45.8,63,53.6,50.3,53.6,34.8z"/>
</svg>
