<?xml version="1.0" encoding="utf-8"?>
<!-- Generator: Adobe Illustrator 21.1.0, SVG Export Plug-In . SVG Version: 6.00 Build 0)  -->
<svg version="1.1" id="Layer_1" xmlns="http://www.w3.org/2000/svg" xmlns:xlink="http://www.w3.org/1999/xlink" x="0px" y="0px"
	 viewBox="0 0 704.7 782.4" style="enable-background:new 0 0 704.7 782.4;" xml:space="preserve">
<path d="M591,388.3h104.1v296c-37.6,31.1-81.3,54.9-131.2,71.6S462,780.9,407.8,780.9c-76.6,0-145.7-16.8-207.1-50.4
	C139.2,696.8,91,650.6,55.9,591.6c-35.1-58.9-52.6-125.2-52.6-199c0-73.7,17.5-140.3,52.6-199.5S139.4,87.6,201.2,54.3
	S332.6,4.4,410,4.4c60.7,0,115.8,10,165.4,29.8c49.5,19.9,91.6,49,126.3,87.3l-67.2,67.2C573.7,130.2,500.3,101,414.3,101
	c-57.8,0-109.7,12.5-155.6,37.4S176.8,198,150.8,242.5s-39,94.5-39,150.2c0,54.9,13,104.6,39,149.1c26,44.5,62,79.3,107.9,104.7
	s97.4,38,154.5,38c68,0,127.2-16.3,177.8-48.8V388.3z"/>
</svg>
