<?xml version="1.0" encoding="utf-8"?>
<!-- Generator: Adobe Illustrator 21.1.0, SVG Export Plug-In . SVG Version: 6.00 Build 0)  -->
<svg version="1.1" id="Layer_1" xmlns="http://www.w3.org/2000/svg" xmlns:xlink="http://www.w3.org/1999/xlink" x="0px" y="0px"
	 viewBox="0 0 512 395" style="enable-background:new 0 0 512 395;" xml:space="preserve">
<path d="M57,49.6v135.9h195.5v47.9H57v157.6H1.3V1.1h275.1v48.5H57z M513.1,373.7c-7.8,6.7-17.5,11.8-29,15.3
	c-11.5,3.5-23.4,5.3-35.6,5.3c-29.7,0-52.7-8-69.1-23.9c-16.3-16-24.5-38.8-24.5-68.5V139.8h-50.1v-44h50.1V31.2h53.5v64.6H493v44
	h-84.7v159.8c0,16,4,28.2,12,36.8c8,8.5,19.4,12.8,34.3,12.8c16.3,0,30.3-4.6,41.8-13.9L513.1,373.7z"/>
</svg>
