<?xml version="1.0" encoding="utf-8"?>
<!-- Generator: Adobe Illustrator 21.1.0, SVG Export Plug-In . SVG Version: 6.00 Build 0)  -->
<svg version="1.1" id="Layer_1" xmlns="http://www.w3.org/2000/svg" xmlns:xlink="http://www.w3.org/1999/xlink" x="0px" y="0px"
	 viewBox="0 0 512 358" style="enable-background:new 0 0 512 358;" xml:space="preserve">
<path d="M191.9,279.8l-60.3-85.9c-7.5,0.5-13.3,0.8-17.6,0.8H44.9v85.1h-40V0H114c36.2,0,64.7,8.7,85.5,26
	c20.8,17.3,31.2,41.2,31.2,71.5c0,21.6-5.3,40-16,55.1c-10.7,15.2-25.8,26.2-45.6,33.2l66.3,93.9H191.9z M170.7,144.3
	c13.3-10.9,20-26.5,20-46.8c0-20.2-6.7-35.8-20-46.6c-13.3-10.8-32.6-16.2-57.9-16.2H44.9v125.9h67.9
	C138.1,160.7,157.4,155.2,170.7,144.3z M457.3,79.5c16.2,9.1,29,21.7,38.2,38c9.2,16.3,13.8,35,13.8,56.3c0,21.3-4.6,40.2-13.8,56.5
	c-9.2,16.4-21.9,29.1-38.2,38.2c-16.3,9.1-34.6,13.6-55.1,13.6c-15.2,0-29.1-2.9-41.8-8.8c-12.7-5.9-23.4-14.4-32.2-25.6v109.5
	h-38.4V68h36.8v33.6c8.5-11.7,19.3-20.6,32.4-26.6c13-6,27.4-9,43.2-9C422.6,66,441,70.5,457.3,79.5z M435.5,239.2
	c10.8-6.3,19.3-15,25.6-26.4c6.3-11.3,9.4-24.3,9.4-39c0-14.6-3.1-27.6-9.4-39c-6.3-11.3-14.8-20-25.6-26.2
	c-10.8-6.1-23-9.2-36.6-9.2c-13.3,0-25.4,3.1-36.2,9.4c-10.8,6.3-19.3,15-25.6,26.2c-6.3,11.2-9.4,24.1-9.4,38.8
	c0,14.7,3.1,27.6,9.2,39c6.1,11.3,14.6,20.1,25.6,26.4c10.9,6.3,23,9.4,36.4,9.4C412.5,248.6,424.7,245.5,435.5,239.2z"/>
</svg>
