<?xml version="1.0" encoding="utf-8"?>
<!-- Generator: Adobe Illustrator 21.1.0, SVG Export Plug-In . SVG Version: 6.00 Build 0)  -->
<svg version="1.1" id="Capa_1" xmlns="http://www.w3.org/2000/svg" xmlns:xlink="http://www.w3.org/1999/xlink" x="0px" y="0px"
	 viewBox="0 0 345 512" style="enable-background:new 0 0 345 512;" xml:space="preserve">
<path d="M342.3,1.9l-34.7,51.3h-72.1C243,61.5,249.1,71,254,81.6c4.9,10.6,8.3,22.9,10.4,36.7h78l-34.7,51.3h-43.3
	c-2.8,16.9-8.3,32.4-16.5,46.6c-8.2,14.2-19,26.5-32.4,36.7c-13.4,10.3-29.3,18.3-47.7,24.1c-18.4,5.8-39,8.7-61.9,8.7L316.7,510
	h-92.2L21.1,291.3V240H72c15.9,0,30.7-1.5,44.4-4.5c13.6-3,25.8-7.5,36.4-13.5c10.6-6,19.5-13.3,26.5-22c7-8.7,12-18.8,14.7-30.3
	H3.7l34.7-51.3h155.3c-5.3-19.9-16.7-35.7-34.1-47.5c-17.4-11.8-41.2-17.7-71.2-17.7H3.7L38.4,1.9H342.3z"/>
</svg>
