<?xml version="1.0" encoding="utf-8"?>
<!-- Generator: Adobe Illustrator 21.1.0, SVG Export Plug-In . SVG Version: 6.00 Build 0)  -->
<svg version="1.1" id="Layer_1" xmlns="http://www.w3.org/2000/svg" xmlns:xlink="http://www.w3.org/1999/xlink" x="0px" y="0px"
	 viewBox="0 0 937.5 597" style="enable-background:new 0 0 937.5 597;" xml:space="preserve">
<path d="M24.1,221.5c1.5,42.6,19.3,76.2,81.1,76.2c38.6,0,71.2-11.9,107.4-32.2c6.4-3.5,9.9-7.9,9.9-11.9c0-26.7-17.3-61.8-46.5-94
	c-28.2-30.2-65.8-56.9-100.9-74.7C63.2,79,59.2,72.6,59.2,66.7c0-12.4,13.9-38.1,25.2-56.4l4-0.5c40.1,24.7,85.1,61.4,118.3,102.4
	c30.2,37.6,49,75.7,49,117.3c0,30.7-7.9,59.9-20.8,86.6c-44,26.2-91,46-137.5,46c-56.4,0-95-31.2-95-104.4c0-7.9,0-20.3,2.5-36.1
	H24.1z M348.9,303.4c0-37.5,25.3-63.8,60.8-63.8s59.8,26.3,59.8,63.8c0,36.5-23.3,63.8-60.8,63.8
	C373.3,367.3,348.9,339.9,348.9,303.4z M833,201.2c-62.3,24.2-121.2,50-168.2,78.2c-50,30.2-83.1,70.8-83.1,109.3
	c0,83.1,91,140,226.1,140c49,0,93.5-5.9,126.2-14.3l3.5,8.9c-25.2,18.8-52.4,38.1-83.1,55.4c-15.8,8.9-45,14.3-84.6,14.3
	c-120.2,0-221.7-56.9-221.7-184.6c0-64.8,34.6-118.3,82.1-159.8c-53.4-38.1-74.2-64.8-74.2-107.9c0-21.3,7.4-50.5,22.3-75.7
	c22.8-37.6,56.4-57.9,92-57.9c43.5,0,76.2,21.8,106.4,62.3L768.7,80C743,68.2,718.2,63.7,692,63.7c-54.9,0-99,27.7-99,48
	c0,22.3,12.9,40.1,43,62.8c17.8,12.9,42.6,26.7,52.4,26.7s18.8-4.9,27.2-8.9c44.5-21.3,89.1-40.6,133.6-57.4l2.5,1.5L833,201.2z"/>
</svg>
