<?xml version="1.0" encoding="utf-8"?>
<!-- Generator: Adobe Illustrator 21.1.0, SVG Export Plug-In . SVG Version: 6.00 Build 0)  -->
<svg version="1.1" id="Layer_1" xmlns="http://www.w3.org/2000/svg" xmlns:xlink="http://www.w3.org/1999/xlink" x="0px" y="0px"
	 viewBox="0 0 270.2 327.4" style="enable-background:new 0 0 270.2 327.4;" xml:space="preserve">
<path d="M251.3,140.2c-1.9-16.3-13.1-22.2-27-22.2c-11.2,0-22.5,4.5-33.4,11l0.5,43.1c0,32.1,5.9,44.7,16.8,53.2
	c5.3,4,13.1,6.2,21.4,6.2c9.4,0,16.3-2.4,21.1-6.7c-1.6-11.8-7.5-25.9-15-41.2c4.8-8,9.9-16.3,16-24.3h1.3
	c8.6,19.3,13.6,36.6,13.6,48.1c0,11.8-3.2,23.8-9.9,35.6c-7.8,13.4-19.3,20.9-34.8,20.9c-25.9,0-44.7-21.1-44.7-66.1
	c0-18.2-1.1-37.7-1.9-58l-0.8-0.8c-9.9,8.6-19,17.9-27.3,27c0.5,14.2,0.8,29.4,0.8,45.2c0,21.7-2.9,42.5-8.8,62
	c-16.3,25.1-43.1,41.5-70.3,41.5c-36.4,0-57.8-28.3-57.8-67.9c0-19,5.6-40.4,18.5-63.7l6.4,3.7c-7.5,17.1-10.4,31.6-10.4,43.6
	c0,26.5,17.1,48.9,43.3,48.9c19.5,0,34-7.5,47.1-17.9c11-8.8,16.6-16.3,18.2-23c0-19.3-0.8-37.7-2.1-55.6l-0.8-0.5
	c-2.1,2.4-4,5.1-7.2,8.8c-19,21.9-31,32.9-48.1,32.9c-17.9,0-33.2-18.5-33.2-44.4c0-27.3,10.7-54.8,30.5-82.6l6.4,4.5
	c-15,23.3-23,42.8-23,58.3c0,9.6,1.9,16.6,4.5,21.1C66.2,189.4,74,191,79,191c14.7,0,31.3-14.4,50.8-36.4c-2.1-31.8-4-61-6.2-82.1
	c-2.4-10.2-5.9-20.1-5.9-27c0-8.8,10.2-26.2,18.7-36.1l2.9,1.6c-0.5,3.2-0.5,6.2-0.5,9.4c0,12,7.2,27.3,19.8,43.6l-16.3,16l2.9,58.8
	h1.1c9.4-9.6,18.5-18.5,27.8-26.2c-1.1-22.2-3.2-50.3-6.4-86.9c4.8-7.8,9.6-15,15-22.2l2.1,0.5c4.3,26.2,5.6,59.6,5.6,96.5h0.8
	c14.4-10.2,28.3-16,40.9-16c15.8,0,28.1,8.3,28.1,25.4c0,9.4-2.1,20.3-5.9,31.3L251.3,140.2z M196.4,281.6
	c10.2,5.9,19.8,13.1,28.3,21.7c-4.3,8.3-9.9,15.8-16.3,22.5c-9.4-8.3-19-15.2-28.3-21.4L196.4,281.6z M239.8,277.6
	c9.9,6.4,19,13.9,27.3,22.5c-4.3,8.8-9.6,15.8-15.2,22.5c-8.8-8.3-18.2-15.5-27.5-22.2L239.8,277.6z"/>
</svg>
