<?xml version="1.0" encoding="utf-8"?>
<!-- Generator: Adobe Illustrator 21.1.0, SVG Export Plug-In . SVG Version: 6.00 Build 0)  -->
<svg version="1.1" id="Capa_1" xmlns="http://www.w3.org/2000/svg" xmlns:xlink="http://www.w3.org/1999/xlink" x="0px" y="0px"
	 viewBox="0 0 395.1 285.2" style="enable-background:new 0 0 395.1 285.2;" xml:space="preserve">
<path d="M47.2,1h39.1L32.5,42.7H3.7L47.2,1z M11.7,60.9h32v224.3h-32V60.9z M172.5,206.1l-35.2,32.7v46.5h-30.8V47.5h30.8V200
	l92.6-84.6h37.2l-71.5,70.2l78.5,99.7h-37.8L172.5,206.1z M354.9,121.5c10.5-5.1,23.2-7.7,38.1-7.7v29.8c-1.7-0.2-4.1-0.3-7-0.3
	c-16.7,0-29.8,5-39.3,14.9c-9.5,9.9-14.3,24.1-14.3,42.5v84.6h-30.8V115.4h29.5v28.5C336.5,134.1,344.4,126.6,354.9,121.5z"/>
</svg>
