<?xml version="1.0" encoding="utf-8"?>
<!-- Generator: Adobe Illustrator 21.1.0, SVG Export Plug-In . SVG Version: 6.00 Build 0)  -->
<svg version="1.1" id="Capa_1" xmlns="http://www.w3.org/2000/svg" xmlns:xlink="http://www.w3.org/1999/xlink" x="0px" y="0px"
	 viewBox="0 0 47.5 65.5" style="enable-background:new 0 0 47.5 65.5;" xml:space="preserve">
<path d="M13.5,50.1c-4.2-2.3-7.5-5.5-9.9-9.6C1.2,36.5,0,31.9,0,26.8s1.2-9.7,3.6-13.7C6,9,9.3,5.8,13.6,3.5c4.2-2.3,9-3.5,14.2-3.5
	c4.1,0,7.8,0.7,11.2,2.1c3.4,1.4,6.3,3.4,8.7,6.1l-4.9,4.7C38.9,8.7,34,6.7,28.1,6.7c-3.9,0-7.4,0.9-10.5,2.6
	c-3.1,1.7-5.6,4.2-7.4,7.2C8.4,19.6,7.5,23,7.5,26.8c0,3.8,0.9,7.2,2.7,10.3c1.8,3.1,4.2,5.5,7.4,7.2c3.1,1.7,6.7,2.6,10.5,2.6
	c5.8,0,10.7-2.1,14.7-6.3l4.9,4.7c-2.4,2.7-5.3,4.7-8.7,6.1c-3.4,1.4-7.2,2.1-11.3,2.1C22.5,53.6,17.7,52.4,13.5,50.1z M47.6,58.3H0
	v7.1h47.6V58.3z"/>
</svg>
