<?xml version="1.0" encoding="utf-8"?>
<!-- Generator: Adobe Illustrator 21.1.0, SVG Export Plug-In . SVG Version: 6.00 Build 0)  -->
<svg version="1.1" id="Layer_1" xmlns="http://www.w3.org/2000/svg" xmlns:xlink="http://www.w3.org/1999/xlink" x="0px" y="0px"
	 viewBox="0 0 173.6 98" style="enable-background:new 0 0 173.6 98;" xml:space="preserve">
<style type="text/css">
	.st0{display:none;}
	.st1{display:inline;fill:none;}
	.st2{enable-background:new    ;}
</style>
<g>
	<title>background</title>
	<g id="canvasGrid" class="st0">
		<rect x="-40.5" y="-29.8" class="st1" width="250" height="160"/>
	</g>
</g>
<g>
	<title>Layer 1</title>
	<g id="svg_9" class="st2">
		<path d="M25,91.4c-7.7-4.2-13.7-10-18-17.4C2.6,66.6,0.4,58.3,0.4,49c0-9.2,2.2-17.6,6.5-24.9C11.3,16.7,17.3,10.9,25,6.7
			c7.7-4.2,16.3-6.3,25.8-6.3c7.4,0,14.2,1.2,20.4,3.7c6.2,2.5,11.4,6.2,15.8,11.1l-8.8,8.6C71,16.2,62.1,12.4,51.4,12.4
			c-7.1,0-13.5,1.6-19.2,4.8c-5.7,3.2-10.2,7.5-13.4,13.1C15.6,35.9,14,42.1,14,49c0,6.9,1.6,13.1,4.8,18.7
			c3.2,5.6,7.7,9.9,13.4,13.1c5.7,3.2,12.1,4.8,19.2,4.8c10.6,0,19.5-3.8,26.8-11.4l8.8,8.6c-4.4,4.9-9.6,8.6-15.8,11.1
			c-6.2,2.5-13,3.8-20.5,3.8C41.2,97.7,32.6,95.6,25,91.4z"/>
		<path d="M120.1,13.3v33.2h47.7v11.7h-47.7v38.5h-13.6V1.4h67.2v11.8H120.1z"/>
	</g>
</g>
</svg>
