<?xml version="1.0" encoding="utf-8"?>
<!-- Generator: Adobe Illustrator 21.1.0, SVG Export Plug-In . SVG Version: 6.00 Build 0)  -->
<svg version="1.1" id="Layer_1" xmlns="http://www.w3.org/2000/svg" xmlns:xlink="http://www.w3.org/1999/xlink" x="0px" y="0px"
	 viewBox="0 0 686.4 385.4" style="enable-background:new 0 0 686.4 385.4;" xml:space="preserve">
<style type="text/css">
	.st0{display:none;}
	.st1{display:inline;fill:none;}
	.st2{enable-background:new    ;}
</style>
<g>
	<title>background</title>
	<g id="canvasGrid" class="st0">
		<rect x="321.1" y="406.4" class="st1" width="250" height="160"/>
	</g>
</g>
<g>
	<title>Layer 1</title>
	<g id="svg_9" class="st2">
		<path d="M97.4,360.4c-30.5-16.6-54.3-39.6-71.3-68.9C8.7,262.2,0,229.3,0,192.5c0-36.4,8.7-69.7,25.7-98.6
			C43.2,64.6,66.9,41.6,97.4,25S162,0,199.6,0c29.3,0,56.2,4.8,80.8,14.7c24.6,9.9,45.2,24.6,62.6,44l-34.9,34.1
			C279.6,62.6,244.4,47.5,202,47.5c-28.1,0-53.5,6.3-76.1,19s-40.4,29.7-53.1,51.9s-19,46.7-19,74.1s6.3,51.9,19,74.1
			s30.5,39.2,53.1,51.9c22.6,12.7,47.9,19,76.1,19c42,0,77.2-15.1,106.2-45.2l34.9,34.1c-17.4,19.4-38,34.1-62.6,44
			c-24.6,9.9-51.5,15.1-81.2,15.1C161.6,385.4,127.5,377.1,97.4,360.4z"/>
		<path d="M474.1,51.1v131.5h188.9v46.3H474.1v152.5h-53.9V4h266.2v46.7H474.1V51.1z"/>
	</g>
</g>
</svg>
