<?xml version="1.0" encoding="utf-8"?>
<!-- Generator: Adobe Illustrator 21.1.0, SVG Export Plug-In . SVG Version: 6.00 Build 0)  -->
<svg version="1.1" id="Layer_1" xmlns="http://www.w3.org/2000/svg" xmlns:xlink="http://www.w3.org/1999/xlink" x="0px" y="0px"
	 viewBox="0 0 763 385.4" style="enable-background:new 0 0 763 385.4;" xml:space="preserve">
<path d="M125.1,214.7L55,285.9v99.2H0.1V1.5H55v214.3L263.2,1.5h62.5L161.8,174.1l174.2,211h-64.1L125.1,214.7z M394.2,1.5h161.7
	c40.6,0,76.5,8.1,108,24.1c31.4,16.1,55.8,38.7,73.1,67.7c17.3,29.1,26,62.4,26,100s-8.7,71-26,100c-17.3,29.1-41.7,51.6-73.1,67.7
	c-31.5,16.1-67.4,24.1-108,24.1H394.2V1.5z M552.5,337.5c31.1,0,58.4-6.1,81.9-18.1c23.6-12,41.7-28.9,54.6-50.7
	c12.8-21.7,19.2-46.9,19.2-75.3s-6.4-53.6-19.2-75.3c-12.8-21.7-31-38.7-54.6-50.7c-23.6-12-50.9-18-81.9-18H448.9v288.3H552.5
	L552.5,337.5z"/>
</svg>
