<?xml version="1.0" encoding="utf-8"?>
<!-- Generator: Adobe Illustrator 21.1.0, SVG Export Plug-In . SVG Version: 6.00 Build 0)  -->
<svg version="1.1" id="Layer_1" xmlns="http://www.w3.org/2000/svg" xmlns:xlink="http://www.w3.org/1999/xlink" x="0px" y="0px"
	 viewBox="0 0 1000 503" style="enable-background:new 0 0 1000 503;" xml:space="preserve">
<path d="M166.4,280.9L75,373.7V503H3.5V3H75v279.3L346.4,3h81.4L214.2,228l227.1,275h-83.6L166.4,280.9z M517.1,3h210.7
	c52.9,0,99.7,10.5,140.7,31.4c40.9,21,72.7,50.4,95.3,88.2c22.6,37.9,33.9,81.3,33.9,130.3c0,49-11.3,92.5-33.9,130.3
	c-22.6,37.9-54.4,67.3-95.3,88.2c-41,21-87.9,31.4-140.7,31.4H517.1V3z M723.5,440.9c40.5,0,76.1-7.9,106.8-23.6
	c30.7-15.7,54.4-37.7,71.1-66.1c16.7-28.3,25-61.1,25-98.2c0-37.1-8.3-69.9-25-98.2c-16.7-28.3-40.4-50.4-71.1-66.1
	C799.5,73,763.9,65.2,723.5,65.2h-135v375.7H723.5z"/>
</svg>
