<?xml version="1.0" encoding="utf-8"?>
<!-- Generator: Adobe Illustrator 21.1.0, SVG Export Plug-In . SVG Version: 6.00 Build 0)  -->
<svg version="1.1" id="Layer_1" xmlns="http://www.w3.org/2000/svg" xmlns:xlink="http://www.w3.org/1999/xlink" x="0px" y="0px"
	 viewBox="0 0 1000 579.4" style="enable-background:new 0 0 1000 579.4;" xml:space="preserve">
<g>
	<g transform="translate(0.000000,511.000000) scale(0.100000,-0.100000)">
		<path d="M3133,3327.7c0-1032.1-8.2-1882.3-20.4-2017.2c-22.5-247.3-75.6-488.5-143.1-647.9c-65.4-149.2-210.5-339.3-331.1-431.3
			c-329-253.4-966.7-425.1-1334.6-355.6c-255.5,47-498.7,210.5-590.7,394.5c-92,186-65.4,508.9,69.5,805.2
			c32.7,75.6,61.3,141,61.3,145.1s-126.7,4.1-280,2l-282-6.1l-55.2-104.2C138.8,948.7,102,775,100,521.5
			c0-359.7,85.8-582.5,312.7-807.3c304.5-302.5,797.1-449.6,1306-390.4C2327.8-604.7,2859.1-386,3178-77.4
			c239.1,230.9,355.6,459.9,447.6,866.6c47,202.3,47,210.5,53.1,2262.5l8.2,2058.1h-278H3133V3327.7z"/>
		<path d="M9325.7,3225.5c0-2062.2-4.1-2121.5-118.6-2456.6C9064,352,8763.6,94.4,8256.7-50.7C7805-177.4,7520.9-171.3,7238.9-28.2
			C7108.1,37.2,6965,168,6907.8,276.3c-92,167.6-42.9,568.2,100.2,852.3l49.1,98.1H6771h-286.1l-63.3-124.7
			c-155.4-308.6-161.5-817.5-16.4-1107.7c155.3-304.5,447.6-523.2,854.3-631.5c230.9-63.3,633.6-61.3,932,2.1
			c578.4,122.6,962.6,312.7,1250.8,623.4c153.3,161.4,249.4,333.1,322.9,564.1c118.5,380.1,118.5,365.8,126.7,2550.6l8.2,2007H9614
			h-288.2V3225.5H9325.7z"/>
		<path d="M4935.6,973.2c-94-32.7-198.3-141-224.8-233c-89.9-296.3,94-553.9,376-531.4c239.1,20.4,388.3,237.1,333.1,482.3
			C5368.9,924.2,5148.2,1050.9,4935.6,973.2z"/>
	</g>
</g>
</svg>
