<?xml version="1.0" encoding="utf-8"?>
<!-- Generator: Adobe Illustrator 21.1.0, SVG Export Plug-In . SVG Version: 6.00 Build 0)  -->
<svg version="1.1" id="Layer_1" xmlns="http://www.w3.org/2000/svg" xmlns:xlink="http://www.w3.org/1999/xlink" x="0px" y="0px"
	 viewBox="0 0 157.3 139.3" style="enable-background:new 0 0 157.3 139.3;" xml:space="preserve">
<style type="text/css">
	.st0{display:none;}
	.st1{display:inline;fill:none;}
	.st2{enable-background:new    ;}
</style>
<g>
	<title>background</title>
	<g id="canvasGrid" class="st0">
		<rect x="-55.2" y="-6.2" class="st1" width="250" height="160"/>
	</g>
</g>
<g>
	<title>Layer 1</title>
	<g id="svg_10" class="st2">
		<path d="M0,17.8h14.8v90.8H71v12.9H0V17.8z"/>
		<path d="M148.5,113c-5.9,5.4-14.4,8.6-25.6,9.5v16.7h-9.5v-16.7c-7.2-0.4-14.1-1.8-20.5-4.1c-6.5-2.3-11.6-5.3-15.5-8.8L83,98.1
			c3.6,3.3,8,6,13.5,8.1c5.4,2.1,11.1,3.4,17,3.8V75.6c-6.9-1.7-12.7-3.5-17.3-5.5c-4.6-2-8.4-4.9-11.6-8.7
			c-3.1-3.9-4.7-8.9-4.7-15.1c0-7.8,2.8-14.4,8.5-19.9c5.7-5.4,14-8.6,25-9.5V0h9.5v16.7c5.6,0.2,11.1,1.1,16.4,2.7
			c5.3,1.6,9.9,3.7,13.7,6.4l-4.9,11.9c-8-5-16.4-7.8-25.2-8.3v34.5c7.2,1.8,13.1,3.6,17.8,5.6c4.6,1.9,8.6,4.8,11.8,8.6
			c3.2,3.8,4.8,8.9,4.8,15.2C157.3,101,154.4,107.6,148.5,113z M99.4,55.6c3.3,2.4,7.9,4.3,14.1,5.9v-32c-6.3,0.8-11.1,2.6-14.2,5.6
			c-3.2,2.9-4.7,6.4-4.7,10.6C94.5,49.9,96.2,53.2,99.4,55.6z M137.9,104.7c3.3-2.8,5-6.3,5-10.6c0-4.3-1.7-7.7-5.1-10
			c-3.4-2.3-8.3-4.4-14.7-6.1v31.9C129.6,109.2,134.6,107.5,137.9,104.7z"/>
	</g>
</g>
</svg>
