<?xml version="1.0" encoding="utf-8"?>
<!-- Generator: Adobe Illustrator 21.1.0, SVG Export Plug-In . SVG Version: 6.00 Build 0)  -->
<svg version="1.1" id="Layer_1" xmlns="http://www.w3.org/2000/svg" xmlns:xlink="http://www.w3.org/1999/xlink" x="0px" y="0px"
	 viewBox="0 0 1000 548.7" style="enable-background:new 0 0 1000 548.7;" xml:space="preserve">
<path d="M4.9,1.9H83v478.9H379v68H4.9V1.9z M468.9,1.9h230.4c57.8,0,109.1,11.5,153.9,34.4c44.8,22.9,79.5,55.1,104.3,96.5
	c24.7,41.4,37.1,88.9,37.1,142.6c0,53.6-12.4,101.2-37.1,142.6c-24.7,41.4-59.5,73.6-104.3,96.5c-44.8,22.9-96.1,34.4-153.9,34.4
	H468.9V1.9z M694.6,480.7c44.3,0,83.2-8.6,116.8-25.8c33.6-17.2,59.5-41.3,77.7-72.3c18.2-31,27.3-66.8,27.3-107.4
	s-9.1-76.4-27.3-107.4c-18.2-31-44.1-55.1-77.7-72.3c-33.6-17.2-72.5-25.8-116.8-25.8H547v410.9H694.6z"/>
</svg>
