<?xml version="1.0" encoding="utf-8"?>
<!-- Generator: Adobe Illustrator 21.1.0, SVG Export Plug-In . SVG Version: 6.00 Build 0)  -->
<svg version="1.1" id="Layer_1" xmlns="http://www.w3.org/2000/svg" xmlns:xlink="http://www.w3.org/1999/xlink" x="0px" y="0px"
	 viewBox="0 0 1000 489.5" style="enable-background:new 0 0 1000 489.5;" xml:space="preserve">
<path d="M2.7,2.1h205.4c51.5,0,97.2,10.2,137.2,30.6c39.9,20.4,70.9,49.1,92.9,86c22,36.9,33.1,79.3,33.1,127.1
	c0,47.8-11,90.2-33.1,127.1c-22.1,36.9-53,65.6-92.9,86c-39.9,20.4-85.6,30.6-137.2,30.6H2.7V2.1z M203.9,428.9
	c39.4,0,74.1-7.7,104.1-23c29.9-15.3,53-36.8,69.3-64.4c16.2-27.6,24.4-59.5,24.4-95.7c0-36.2-8.1-68.1-24.4-95.7
	C361,122.4,338,101,308,85.6s-64.6-23-104.1-23H72.3v366.2H203.9z M996.9,2.1v487.4h-69.6V272.2H647.4v217.2h-69.6V2.1h69.6v209.6
	h279.9V2.1H996.9z"/>
</svg>
