<?xml version="1.0" encoding="utf-8"?>
<!-- Generator: Adobe Illustrator 21.1.0, SVG Export Plug-In . SVG Version: 6.00 Build 0)  -->
<svg version="1.1" id="Layer_1" xmlns="http://www.w3.org/2000/svg" xmlns:xlink="http://www.w3.org/1999/xlink" x="0px" y="0px"
	 viewBox="0 0 786.2 385.4" style="enable-background:new 0 0 786.2 385.4;" xml:space="preserve">
<g>
	<path d="M0,0h162.4c40.7,0,76.9,8.1,108.5,24.2c31.6,16.2,56.1,38.8,73.5,68c17.4,29.2,26.2,62.7,26.2,100.5
		c0,37.8-8.7,71.3-26.2,100.5c-17.4,29.2-41.9,51.8-73.5,68c-31.6,16.2-67.7,24.2-108.5,24.2H0V0z M159.1,337.5
		c31.2,0,58.6-6.1,82.3-18.2s41.9-29.1,54.8-50.9c12.8-21.8,19.3-47.1,19.3-75.7s-6.4-53.9-19.3-75.7
		c-12.9-21.8-31.1-38.8-54.8-50.9s-51.1-18.2-82.3-18.2H55.1v289.6H159.1z"/>
	<path d="M786.2,0v385.4h-55.1V213.6H509.8v171.8h-55.1V0h55.1v165.7h221.3V0H786.2z"/>
</g>
</svg>
