<?xml version="1.0" encoding="utf-8"?>
<!-- Generator: Adobe Illustrator 21.1.0, SVG Export Plug-In . SVG Version: 6.00 Build 0)  -->
<svg version="1.1" id="Layer_1" xmlns="http://www.w3.org/2000/svg" xmlns:xlink="http://www.w3.org/1999/xlink" x="0px" y="0px"
	 viewBox="0 0 1000 754.1" style="enable-background:new 0 0 1000 754.1;" xml:space="preserve">
<path d="M11.1,15.6h94.4v729.8H11.1V15.6z M754.7,516.3H331.8c5.9,45.9,26.1,82.8,60.5,110.7c34.4,27.9,77.2,41.8,128.4,41.8
	c62.3,0,112.4-21,150.5-62.9l52.1,61c-23.6,27.5-53,48.5-88,62.9c-35.1,14.4-74.3,21.6-117.5,21.6c-55.1,0-103.9-11.3-146.6-33.9
	c-42.6-22.6-75.6-54.3-98.8-94.9c-23.3-40.6-34.9-86.6-34.9-137.7c0-50.5,11.3-96.1,33.9-136.7c22.6-40.6,53.8-72.3,93.4-94.9
	c39.7-22.6,84.4-33.9,134.3-33.9c49.8,0,94.3,11.3,133.3,33.9c39,22.6,69.5,54.3,91.5,94.9c22,40.7,32.9,87.2,32.9,139.7
	C756.7,495,756,504.5,754.7,516.3z M385.4,340.2c-30.5,27.5-48.4,63.6-53.6,108.2h334.4c-5.3-43.9-23.1-79.8-53.6-107.7
	c-30.5-27.9-68.4-41.8-113.6-41.8C453.7,298.9,415.9,312.7,385.4,340.2z M889,106.1c-12.1-11.8-18.2-26.2-18.2-43.3
	c0-17,6.1-31.6,18.2-43.8c12.1-12.1,27.4-18.2,45.7-18.2c18.3,0,33.6,5.7,45.7,17.2c12.1,11.5,18.2,25.7,18.2,42.8
	c0,17.7-6.1,32.6-18.2,44.8c-12.1,12.1-27.4,18.2-45.7,18.2C916.3,123.8,901.1,117.9,889,106.1z M887.5,224.1h94.4v521.3h-94.4
	V224.1z"/>
</svg>
