<?xml version="1.0" encoding="utf-8"?>
<!-- Generator: Adobe Illustrator 21.1.0, SVG Export Plug-In . SVG Version: 6.00 Build 0)  -->
<svg version="1.1" id="Layer_1" xmlns="http://www.w3.org/2000/svg" xmlns:xlink="http://www.w3.org/1999/xlink" x="0px" y="0px"
	 viewBox="0 0 980 721.4" style="enable-background:new 0 0 980 721.4;" xml:space="preserve">
<g>
	<g transform="translate(0.000000,511.000000) scale(0.100000,-0.100000)">
		<path d="M1797.8,3222.1C1445.6,2181.9,896.9,560.2,579.5-381.7L0-2097.7h464.8h464.8l49.2,159.7c26.6,86,182.2,579.5,344,1095.5
			l296.9,935.8h1320.7h1320.7L4599-1002.2l337.8-1095.5h487.4c454.6,0,487.3,2,477.1,36.9c-6.1,18.4-554.9,1638.1-1218.4,3597.7
			L3479,5099.8l-520.1,6.1l-520.1,4.1L1797.8,3222.1z M2981.4,4286.9c71.7-268.2,385-1335.1,497.6-1695.5
			c149.5-481.2,522.1-1670.9,538.5-1724.1c10.2-34.8-51.2-36.9-1075-36.9c-597.9,0-1087.3,4.1-1087.3,8.2
			c0,14.3,266.2,868.2,430,1384.2c172,544.7,391.1,1281.8,524.2,1775.3c59.4,223.2,110.6,374.7,124.9,374.7
			C2948.6,4372.9,2969.1,4334,2981.4,4286.9z"/>
		<path d="M8931.8,3338.8c-393.1-100.3-788.3-413.6-1079.1-858c-69.6-108.5-135.2-196.6-143.3-196.6c-16.4,0-32.8,129-59.4,522.2
			c-12.3,170-26.6,337.9-32.8,374.7l-10.2,65.5h-366.5h-368.6V574.5v-2672.2h450.5h450.5v1726.2v1726.2l92.1,188.4
			c372.7,767.9,913.2,1120.1,1525.5,997.2c96.3-18.4,192.5-36.9,215-36.9c34.8-4.1,47.1,34.8,116.7,333.8
			c106.5,473,108.5,428-24.6,477.1C9546.1,3367.5,9108,3381.8,8931.8,3338.8z"/>
	</g>
</g>
</svg>
