<?xml version="1.0" encoding="utf-8"?>
<!-- Generator: Adobe Illustrator 21.1.0, SVG Export Plug-In . SVG Version: 6.00 Build 0)  -->
<svg version="1.1" id="Layer_1" xmlns="http://www.w3.org/2000/svg" xmlns:xlink="http://www.w3.org/1999/xlink" x="0px" y="0px"
	 viewBox="0 0 454.7 287" style="enable-background:new 0 0 454.7 287;" xml:space="preserve">
<g>
	<path d="M226.3,215.3H73.8L42.2,287H0L130,0h40.6l130.4,287h-43.1L226.3,215.3z M212,182.5L150.1,41.8L88.2,182.5H212z"/>
	<path d="M405.9,77.5c13.4-6.6,29.7-9.8,48.8-9.8v38.1c-2.2-0.3-5.2-0.4-9-0.4c-21.3,0-38.1,6.4-50.2,19.1
		c-12.2,12.7-18.2,30.8-18.2,54.3V287h-39.4V69.7h37.7v36.5C382.4,93.6,392.5,84,405.9,77.5z"/>
</g>
</svg>
