<?xml version="1.0" encoding="utf-8"?>
<!-- Generator: Adobe Illustrator 21.1.0, SVG Export Plug-In . SVG Version: 6.00 Build 0)  -->
<svg version="1.1" id="Capa_1" xmlns="http://www.w3.org/2000/svg" xmlns:xlink="http://www.w3.org/1999/xlink" x="0px" y="0px"
	 viewBox="0 0 541.8 191" style="enable-background:new 0 0 541.8 191;" xml:space="preserve">
<path d="M182.8,129.7v58.6h-25.5v-34.8H32v34.8H6.3v-58.6h7.9c9.6-0.6,16.2-7.4,19.8-20.4c3.6-13,6-31.4,7.4-55.2l2.3-50.7h116.3
	v126.2H182.8z M61.6,103c-2.4,12.4-6.6,21.3-12.9,26.7h84V27.3H67.7l-1.4,28.9C65.5,75,63.9,90.7,61.6,103z M353.2,87.6H231.5
	c1.7,13.2,7.5,23.8,17.4,31.8c9.9,8,22.2,12,36.9,12c17.9,0,32.4-6,43.3-18.1l15,17.5c-6.8,7.9-15.2,14-25.3,18.1
	c-10.1,4.2-21.4,6.2-33.8,6.2c-15.8,0-29.9-3.3-42.2-9.8c-12.3-6.5-21.7-15.6-28.4-27.3c-6.7-11.7-10-24.9-10-39.6
	c0-14.5,3.3-27.6,9.8-39.3c6.5-11.7,15.5-20.8,26.9-27.3c11.4-6.5,24.3-9.8,38.6-9.8c14.3,0,27.1,3.3,38.3,9.8
	c11.2,6.5,20,15.6,26.3,27.3c6.3,11.7,9.5,25.1,9.5,40.2C353.7,81.5,353.5,84.2,353.2,87.6z M246.9,36.9
	c-8.8,7.9-13.9,18.3-15.4,31.1h96.2c-1.5-12.6-6.6-23-15.4-31c-8.8-8-19.7-12-32.7-12C266.6,25.1,255.7,29,246.9,36.9z M395.9,3.5
	h27.2v63.7h85.5V3.5h27.2v150h-27.2V90.7h-85.5v62.8h-27.2V3.5z"/>
</svg>
