<?xml version="1.0" encoding="utf-8"?>
<!-- Generator: Adobe Illustrator 21.1.0, SVG Export Plug-In . SVG Version: 6.00 Build 0)  -->
<svg version="1.1" id="Capa_1" xmlns="http://www.w3.org/2000/svg" xmlns:xlink="http://www.w3.org/1999/xlink" x="0px" y="0px"
	 viewBox="0 0 1095.4 385.4" style="enable-background:new 0 0 1095.4 385.4;" xml:space="preserve">
<path d="M365.1,264.2v121.2h-52.8v-72H53.2v72H0V264.2h16.3c19.9-1.2,33.5-15.3,41-42.2s12.4-65,15.3-114.2L77.4,2.9H318V264h47.2
	V264.2z M114.4,208.9c-5,25.7-13.7,44.1-26.7,55.2h173.8V52.3H127l-2.9,59.8C122.5,151,119.2,183.5,114.4,208.9z M717.6,177.1H465.9
	c3.5,27.3,15.5,49.2,36,65.8c20.5,16.5,45.9,24.8,76.3,24.8c37,0,67-12.4,89.6-37.4l31,36.2c-14.1,16.3-31.4,29-52.3,37.4
	c-20.9,8.7-44.3,12.8-69.9,12.8c-32.7,0-61.9-6.8-87.3-20.3s-44.9-32.3-58.8-56.5c-13.9-24.2-20.7-51.5-20.7-81.9
	c0-30,6.8-57.1,20.3-81.3c13.4-24.2,32.1-43,55.6-56.5C509.3,6.8,536,0,565.6,0s56.1,6.8,79.2,20.3c23.2,13.4,41.4,32.3,54.4,56.5
	s19.7,51.9,19.7,83.2C718.7,164.5,718.3,170,717.6,177.1z M497.7,72.2c-18.2,16.3-28.8,37.9-31.9,64.3h199
	c-3.1-26.1-13.7-47.6-31.9-64.1s-40.8-24.8-67.6-24.8C538.5,47.8,515.9,55.9,497.7,72.2z M806,3.1h56.3v131.8h176.9V3.1h56.3v310.3
	h-56.3V183.5H862.2v129.9H806L806,3.1L806,3.1z"/>
</svg>
