<?xml version="1.0" encoding="utf-8"?>
<!-- Generator: Adobe Illustrator 21.1.0, SVG Export Plug-In . SVG Version: 6.00 Build 0)  -->
<svg version="1.1" id="Layer_1" xmlns="http://www.w3.org/2000/svg" xmlns:xlink="http://www.w3.org/1999/xlink" x="0px" y="0px"
	 viewBox="0 0 262.3 82.7" style="enable-background:new 0 0 262.3 82.7;" xml:space="preserve">
<style type="text/css">
	.st0{display:none;}
	.st1{display:inline;fill:none;}
	.st2{enable-background:new    ;}
</style>
<g>
	<title>background</title>
	<g id="canvasGrid" class="st0">
		<rect y="-38" class="st1" width="250" height="160"/>
	</g>
</g>
<g>
	<title>Layer 1</title>
	<g id="svg_12" class="st2">
		<path d="M57.6,72l-0.1-44.3l-22,36.9h-4L9.5,28v44H1.2V11.3h7.1L33.7,54l25-42.7h7.1L65.9,72H57.6z"/>
		<path d="M95,68.7c-4.9-2.7-8.8-6.4-11.6-11.2c-2.8-4.7-4.2-10-4.2-15.9c0-5.8,1.4-11.1,4.2-15.9c2.8-4.7,6.7-8.5,11.6-11.2
			c4.9-2.7,10.5-4,16.6-4c6.1,0,11.6,1.3,16.5,4c4.9,2.7,8.8,6.4,11.6,11.1c2.8,4.7,4.2,10,4.2,15.9c0,5.9-1.4,11.2-4.2,15.9
			c-2.8,4.7-6.6,8.4-11.6,11.1c-4.9,2.7-10.4,4-16.5,4C105.5,72.7,99.9,71.4,95,68.7z M123.6,62c3.6-2,6.4-4.8,8.4-8.4
			c2.1-3.6,3.1-7.5,3.1-11.9c0-4.4-1-8.4-3.1-11.9c-2.1-3.6-4.9-6.4-8.4-8.4c-3.6-2-7.6-3-12-3c-4.5,0-8.5,1-12.1,3
			c-3.6,2-6.5,4.8-8.5,8.4c-2.1,3.6-3.1,7.5-3.1,11.9c0,4.4,1,8.4,3.1,11.9c2.1,3.6,4.9,6.4,8.5,8.4c3.6,2,7.7,3,12.1,3
			C116.1,65,120.1,64,123.6,62z"/>
		<path d="M199.4,16.9c4.5,3.8,6.8,8.9,6.8,15.5c0,6.6-2.3,11.8-6.8,15.5c-4.5,3.8-10.7,5.6-18.6,5.6h-15V72h-8.7V11.3h23.7
			C188.7,11.3,194.9,13.1,199.4,16.9z M193.1,42.6c2.9-2.3,4.3-5.7,4.3-10.1c0-4.4-1.4-7.8-4.3-10.1c-2.9-2.3-7.1-3.5-12.6-3.5
			h-14.8v27.3h14.8C186,46.1,190.2,44.9,193.1,42.6z"/>
		<path d="M255.9,67.1c-3.4,3.2-8.4,5-15,5.6v9.8h-5.6v-9.8c-4.2-0.2-8.2-1-12-2.4c-3.8-1.4-6.8-3.1-9.1-5.2l3.2-6.8
			c2.1,1.9,4.7,3.5,7.9,4.7c3.2,1.2,6.5,2,10,2.2V45.1c-4.1-1-7.4-2.1-10.1-3.2c-2.7-1.2-5-2.9-6.8-5.1s-2.7-5.2-2.7-8.9
			c0-4.6,1.7-8.5,5-11.6c3.3-3.2,8.2-5,14.6-5.6V0.8h5.6v9.8c3.3,0.1,6.5,0.6,9.6,1.6c3.1,0.9,5.8,2.2,8,3.7l-2.9,6.9
			c-4.7-3-9.6-4.6-14.8-4.9v20.2c4.2,1,7.7,2.1,10.4,3.3c2.7,1.1,5,2.8,6.9,5c1.9,2.2,2.8,5.2,2.8,8.9
			C261.1,60,259.3,63.9,255.9,67.1z M227.1,33.4c1.9,1.4,4.7,2.5,8.3,3.5V18.1c-3.7,0.5-6.5,1.5-8.3,3.3c-1.9,1.7-2.8,3.8-2.8,6.2
			C224.2,30.1,225.2,32,227.1,33.4z M249.6,62.2c1.9-1.6,2.9-3.7,2.9-6.2c0-2.5-1-4.5-3-5.9c-2-1.4-4.9-2.6-8.6-3.6v18.7
			C244.8,64.8,247.7,63.8,249.6,62.2z"/>
	</g>
</g>
</svg>
