<?xml version="1.0" encoding="utf-8"?>
<!-- Generator: Adobe Illustrator 21.1.0, SVG Export Plug-In . SVG Version: 6.00 Build 0)  -->
<svg version="1.1" id="Layer_1" xmlns="http://www.w3.org/2000/svg" xmlns:xlink="http://www.w3.org/1999/xlink" x="0px" y="0px"
	 viewBox="0 0 980 546.8" style="enable-background:new 0 0 980 546.8;" xml:space="preserve">
<g>
	<g transform="translate(0.000000,511.000000) scale(0.100000,-0.100000)">
		<path d="M8.2,3299.4c8.2-1969.8,6.1-1945.3,126.6-2361.7C298.1,376.4,616.5-11.5,1079.9-205.4
			c422.5-177.6,1083.9-204.1,1545.2-59.2c643,202.1,1018.6,673.6,1177.8,1481.9c44.9,224.5,44.9,269.5,53.1,2061.7l6.1,1831h-328.6
			h-326.6V3370.8c0-1857.5-4.1-1951.4-102.1-2271.9C2919,498.8,2484.3,200.8,1847.4,237.5C1235,272.2,892,600.8,734.8,1303
			c-44.9,202.1-46.9,226.6-53.1,2006.5l-8.1,1800.4H336.8H0L8.2,3299.4z"/>
		<path d="M5309.3,2425.7V-258.5h318.4h318.4L5936,1562.3c-8.2,1435-16.3,1900.4-42.9,2190.3c-36.7,430.7-40.8,557.3-14.3,528.7
			c10.2-10.2,108.2-265.4,216.4-569.5c106.2-302.1,436.8-1200.2,730.8-1994.3l532.8-1445.2h187.8h189.9l42.9,118.4
			c83.7,222.5,1139,3098.6,1275.8,3476.2c138.8,383.8,163.3,442.9,179.6,426.6c6.1-6.1-2-165.3-18.4-357.2
			c-53.1-675.7-69.4-1261.5-69.4-2718.9V-258.4h326.6H9800v2684.1v2684.2h-404.1h-404.2l-53.1-157.2
			c-28.6-87.8-273.5-773.6-543-1526.8c-269.5-751.2-561.3-1577.9-647.1-1833c-93.9-273.5-169.4-461.3-181.7-457.2
			c-12.2,4.1-57.1,104.1-98,220.4c-42.9,116.4-363.4,1008.4-714.4,1984.1l-638.8,1769.7h-402.1h-404.2V2425.7z"/>
	</g>
</g>
</svg>
