<?xml version="1.0" encoding="utf-8"?>
<!-- Generator: Adobe Illustrator 21.1.0, SVG Export Plug-In . SVG Version: 6.00 Build 0)  -->
<svg version="1.1" id="Layer_1" xmlns="http://www.w3.org/2000/svg" xmlns:xlink="http://www.w3.org/1999/xlink" x="0px" y="0px"
	 viewBox="0 0 833.1 540.9" style="enable-background:new 0 0 833.1 540.9;" xml:space="preserve">
<path d="M438.9,310.2c-26.2,32.9-63.1,55.5-110.7,67.9l91.4,162.8h-75.7l-87.1-152.9h-13.6H109.6l-30,152.9H7.5l100-500h186.4
	c58.6,0,103.9,12.7,136.1,38.2c32.1,25.5,48.2,61.5,48.2,108.2C478.2,236.4,465.1,277.4,438.9,310.2z M364.6,293.1
	c28.1-22.9,42.1-55.9,42.1-99.3c0-30-10.2-52.6-30.7-67.9c-20.5-15.2-50-22.9-88.6-22.9H166.8l-45,224.3h123.6
	C296.7,327.4,336.5,315.9,364.6,293.1z M705.3,79.9c-11.9,11.2-20.5,28.7-25.7,52.5l-6.4,30h110l-11.4,56.4H663.9l-65,322.1h-68.6
	l65-322.1h-65l10.7-56.4h65.7l7.1-35.7c7.6-38.6,23.2-68.2,46.8-88.9s54.6-31.1,93.2-31.1c15.7,0,30.6,2,44.6,6.1
	c14,4.1,25.6,9.9,34.6,17.5L804.6,81c-13.3-11.9-30.2-17.9-50.7-17.9C733.4,63.1,717.2,68.7,705.3,79.9z"/>
</svg>
