<?xml version="1.0" encoding="utf-8"?>
<!-- Generator: Adobe Illustrator 21.1.0, SVG Export Plug-In . SVG Version: 6.00 Build 0)  -->
<svg version="1.1" id="Layer_1" xmlns="http://www.w3.org/2000/svg" xmlns:xlink="http://www.w3.org/1999/xlink" x="0px" y="0px"
	 viewBox="0 0 1000 530.8" style="enable-background:new 0 0 1000 530.8;" xml:space="preserve">
<g>
	<g transform="translate(0.000000,511.000000) scale(0.100000,-0.100000)">
		<path d="M100,2455.7V-198.5h306.2h306.2v1680.3c0,1472-6.1,1747.7-40.8,2237.7c-36.7,518.6-38.8,598.2-10.2,569.6
			c6.1-6.1,120.5-316.5,255.2-692.1s459.4-1259.7,720.8-1968.2l477.8-1286.2H2305h189.9l385.9,1051.5
			c212.3,577.8,534.9,1463.9,720.7,1966.1c183.8,504.3,338.9,920.8,345,926.9c28.6,28.6,28.6-24.5-2-351.2
			c-26.5-277.7-34.7-724.8-40.8-2239.7l-8.2-1894.7H4212h318.5v2654.2v2654.2l-400.2-4.1l-400.2-6.1l-524.7-1470
			c-289.9-808.5-602.3-1692.6-694.2-1964.1c-93.9-273.6-177.6-496.1-185.8-496.1c-18.4,0,16.3-89.8-530.8,1429.2
			c-249.1,690.1-553.3,1537.4-677.8,1884.5L890.2,5110H494H100V2455.7z"/>
		<path d="M5980,2455.7V-198.5h336.9h336.9v847.3v847.3l451.2,530.8c249.1,292,453.3,530.8,457.3,530.8
			c2,0,361.4-620.7,796.3-1378.1l792.2-1378.1h373.6H9900l-93.9,159.3c-51,85.7-483.9,824.8-959.6,1641.5l-865.7,1484.3l798.3,975.9
			c439,537,812.6,992.2,831,1012.7c28.6,32.7,10.2,34.7-347.1,34.7h-377.7L7774.6,3770.5L6664,2433.3l-6.1,1337.3l-4.1,1339.3
			h-336.9H5980V2455.7z"/>
	</g>
</g>
</svg>
