<?xml version="1.0" encoding="utf-8"?>
<!-- Generator: Adobe Illustrator 21.1.0, SVG Export Plug-In . SVG Version: 6.00 Build 0)  -->
<svg version="1.1" id="Capa_1" xmlns="http://www.w3.org/2000/svg" xmlns:xlink="http://www.w3.org/1999/xlink" x="0px" y="0px"
	 viewBox="0 0 498 235.3" style="enable-background:new 0 0 498 235.3;" xml:space="preserve">
<path d="M160.9,235.3l-50.3-71.7c-6.2,0.4-11.1,0.7-14.7,0.7H38.3v71H5V2h91c30.2,0,54,7.2,71.3,21.7c17.3,14.4,26,34.3,26,59.7
	c0,18-4.4,33.3-13.3,46c-8.9,12.7-21.6,21.9-38,27.7l55.3,78.3H160.9z M143.3,122.3c11.1-9.1,16.7-22.1,16.7-39
	c0-16.9-5.6-29.8-16.7-38.8C132.1,35.5,116,31,94.9,31H38.3v105h56.7C116,136,132.1,131.4,143.3,122.3z M463.5,235.3l-0.3-170
	L378.9,207h-15.3L279.2,66.3v169h-32V2h27.3l97.3,164l96-164h27.3l0.3,233.3H463.5z"/>
</svg>
