<?xml version="1.0" encoding="utf-8"?>
<!-- Generator: Adobe Illustrator 21.1.0, SVG Export Plug-In . SVG Version: 6.00 Build 0)  -->
<svg version="1.1" id="Layer_1" xmlns="http://www.w3.org/2000/svg" xmlns:xlink="http://www.w3.org/1999/xlink" x="0px" y="0px"
	 viewBox="0 0 216.8 158.4" style="enable-background:new 0 0 216.8 158.4;" xml:space="preserve">
<style type="text/css">
	.st0{display:none;}
	.st1{display:inline;fill:none;}
	.st2{enable-background:new    ;}
</style>
<g>
	<title>background</title>
	<g id="canvasGrid" class="st0">
		<rect x="-33.2" class="st1" width="250" height="160"/>
	</g>
</g>
<g>
	<title>Layer 1</title>
	<g id="svg_14" class="st2">
		<path d="M101.3,20.2V138H87.5L16.8,50.2V138H0V20.2h13.8l70.7,87.8V20.2H101.3z"/>
		<path d="M206.5,128.4c-6.7,6.2-16.4,9.8-29,10.8v19h-10.8v-19c-8.2-0.4-16-2-23.3-4.6c-7.3-2.6-13.2-6-17.6-10l6.2-13.1
			c4,3.7,9.1,6.8,15.3,9.2c6.2,2.4,12.6,3.8,19.3,4.3v-39c-7.9-1.9-14.4-4-19.6-6.2c-5.2-2.2-9.6-5.6-13.1-9.9
			c-3.5-4.4-5.3-10.1-5.3-17.2c0-8.9,3.2-16.4,9.7-22.5c6.4-6.2,15.9-9.8,28.4-10.8V0h10.8v19c6.4,0.2,12.6,1.2,18.6,3
			c6,1.8,11.2,4.2,15.6,7.2l-5.6,13.5c-9.1-5.7-18.6-8.9-28.6-9.4v39.2c8.2,2,14.9,4.1,20.2,6.3c5.3,2.2,9.7,5.4,13.4,9.8
			c3.6,4.3,5.5,10.1,5.5,17.2C216.5,114.7,213.2,122.3,206.5,128.4z M150.7,63.1c3.7,2.7,9,4.9,16,6.7V33.5
			c-7.2,0.9-12.6,3-16.2,6.3c-3.6,3.3-5.4,7.3-5.4,12C145.2,56.7,147,60.5,150.7,63.1z M194.4,118.9c3.8-3.2,5.6-7.2,5.6-12
			c0-4.9-1.9-8.7-5.8-11.4c-3.9-2.6-9.5-5-16.7-7v36.2C185,124.1,190.6,122.1,194.4,118.9z"/>
	</g>
</g>
</svg>
