<?xml version="1.0" encoding="utf-8"?>
<!-- Generator: Adobe Illustrator 21.1.0, SVG Export Plug-In . SVG Version: 6.00 Build 0)  -->
<svg version="1.1" id="Capa_1" xmlns="http://www.w3.org/2000/svg" xmlns:xlink="http://www.w3.org/1999/xlink" x="0px" y="0px"
	 viewBox="0 0 77.7 58.2" style="enable-background:new 0 0 77.7 58.2;" xml:space="preserve">
<path d="M11.4,48.4c-3.5-1.9-6.2-4.5-8.2-7.9c-2-3.4-3-7.1-3-11.3s1-8,3-11.3c2-3.4,4.7-6,8.2-7.9C14.9,8,18.9,7,23.2,7
	c3.4,0,6.5,0.6,9.3,1.7c2.8,1.1,5.2,2.8,7.2,5l-4,3.9c-3.3-3.4-7.3-5.1-12.2-5.1c-3.2,0-6.1,0.7-8.7,2.2c-2.6,1.4-4.6,3.4-6.1,6
	c-1.5,2.5-2.2,5.4-2.2,8.5c0,3.1,0.7,6,2.2,8.5c1.5,2.5,3.5,4.5,6.1,6c2.6,1.4,5.5,2.2,8.7,2.2c4.8,0,8.9-1.7,12.2-5.2l4,3.9
	c-2,2.2-4.4,3.9-7.2,5.1c-2.8,1.2-5.9,1.7-9.3,1.7C18.8,51.2,14.9,50.3,11.4,48.4z M73.9,47.2c-2.4,2.3-6,3.6-10.6,3.9v7h-4v-7
	c-3-0.2-5.9-0.7-8.5-1.7c-2.7-1-4.8-2.2-6.4-3.7l2.3-4.8c1.5,1.4,3.4,2.5,5.6,3.4c2.3,0.9,4.6,1.4,7.1,1.6V31.6
	c-2.9-0.7-5.3-1.5-7.2-2.3c-1.9-0.8-3.5-2-4.8-3.6s-1.9-3.7-1.9-6.3c0-3.2,1.2-6,3.5-8.3c2.4-2.3,5.8-3.6,10.4-3.9v-7h4v7
	c2.3,0.1,4.6,0.5,6.8,1.1c2.2,0.7,4.1,1.5,5.7,2.7l-2,4.9c-3.3-2.1-6.8-3.2-10.5-3.5v14.4c3,0.7,5.5,1.5,7.4,2.3
	c1.9,0.8,3.6,2,4.9,3.6c1.3,1.6,2,3.7,2,6.3C77.5,42.2,76.3,45,73.9,47.2z M53.4,23.3c1.4,1,3.3,1.8,5.9,2.5V12.4
	c-2.6,0.3-4.6,1.1-5.9,2.3c-1.3,1.2-2,2.7-2,4.4C51.4,20.9,52.1,22.3,53.4,23.3z M69.4,43.7c1.4-1.2,2.1-2.6,2.1-4.4
	c0-1.8-0.7-3.2-2.1-4.2c-1.4-1-3.5-1.8-6.1-2.6v13.3C66,45.6,68.1,44.9,69.4,43.7z"/>
</svg>
