<?xml version="1.0" encoding="utf-8"?>
<!-- Generator: Adobe Illustrator 21.1.0, SVG Export Plug-In . SVG Version: 6.00 Build 0)  -->
<svg version="1.1" id="Capa_1" xmlns="http://www.w3.org/2000/svg" xmlns:xlink="http://www.w3.org/1999/xlink" x="0px" y="0px"
	 viewBox="0 0 24 29.4" style="enable-background:new 0 0 24 29.4;" xml:space="preserve">
<path d="M24,22.2l-0.1,0.1l-1.6,0.4c-0.4-5.9-0.9-7.7-3.9-9.6c-1-0.6-2.6-0.9-3.8-0.7c-1,2.4-2.9,4-5.3,5.3c2.4,2.8,6.3,5.5,11,8.1
	l-2,3.6H18c-4.9-3.8-8.9-7.6-11.6-11.5c-1.4-2-2.1-3.7-2.1-4.7c0-0.5,0.1-1,0.5-1.5c0.4-0.6,1.3-0.9,2.7-0.9c1.2,0,2.5,0.1,3.6,0.2
	c0.6-1,1-2.6,1-4.3c0-1-0.1-2.3-0.3-3.5H1.7L0.3,0.4l0.2-0.3h20.3l1.4,2.7L22,3.1h-7c0.3,1.5,0.4,3.1,0.4,4.8c0,0.3,0,0.7,0,1l0,0
	c1.2,0,2.5,0.4,3.4,0.9C22.3,12,23.7,14,24,22.2z"/>
</svg>
