<?xml version="1.0" encoding="UTF-8" standalone="no"?>
<!-- Created with Inkscape (http://www.inkscape.org/) -->
<svg
   xmlns:dc="http://purl.org/dc/elements/1.1/"
   xmlns:cc="http://creativecommons.org/ns#"
   xmlns:rdf="http://www.w3.org/1999/02/22-rdf-syntax-ns#"
   xmlns:svg="http://www.w3.org/2000/svg"
   xmlns="http://www.w3.org/2000/svg"
   xmlns:sodipodi="http://sodipodi.sourceforge.net/DTD/sodipodi-0.dtd"
   xmlns:inkscape="http://www.inkscape.org/namespaces/inkscape"
   id="svg2"
   sodipodi:version="0.32"
   inkscape:version="0.46"
   width="101"
   height="168"
   version="1.0"
   sodipodi:docname="Parag-guarani-G.svg"
   inkscape:output_extension="org.inkscape.output.svg.inkscape">
  <metadata
     id="metadata7">
    <rdf:RDF>
      <cc:Work
         rdf:about="">
        <dc:format>image/svg+xml</dc:format>
        <dc:type
           rdf:resource="http://purl.org/dc/dcmitype/StillImage" />
      </cc:Work>
    </rdf:RDF>
  </metadata>
  <defs
     id="defs5">
    <inkscape:perspective
       sodipodi:type="inkscape:persp3d"
       inkscape:vp_x="0 : 526.18109 : 1"
       inkscape:vp_y="0 : 1000 : 0"
       inkscape:vp_z="744.09448 : 526.18109 : 1"
       inkscape:persp3d-origin="372.04724 : 350.78739 : 1"
       id="perspective9" />
  </defs>
  <sodipodi:namedview
     inkscape:window-height="750"
     inkscape:window-width="1280"
     inkscape:pageshadow="2"
     inkscape:pageopacity="0.0"
     guidetolerance="10.0"
     gridtolerance="10.0"
     objecttolerance="10.0"
     borderopacity="1.0"
     bordercolor="#666666"
     pagecolor="#ffffff"
     id="base"
     showgrid="false"
     inkscape:zoom="2.75"
     inkscape:cx="98.334367"
     inkscape:cy="58.322042"
     inkscape:window-x="-8"
     inkscape:window-y="-8"
     inkscape:current-layer="svg2" />
  <path
     style="fill:#000000"
     d="M 15.157141,163.67965 L 19.096992,152.25366 C 23.627545,140.06027 24.126281,139.35013 23.620918,138.97603 C 22.515645,138.15784 21.383521,136.96792 19.35845,135.80976 C 13.904632,132.69065 5.6489639,124.29899 1.4770957,106.93729 C -0.99166379,96.663267 -0.41731425,73.901871 2.0339857,64.317391 C 6.0328457,48.68199 15.245303,36.760132 28.272989,30.361444 C 37.212649,25.970634 45.231041,24.407019 55.036842,25.142397 L 62.536842,25.704854 L 66.66195,14.005536 C 70.649439,2.696526 70.409996,1.818401 71.29942,2.0618714 C 71.773129,2.191544 77.575668,3.7077717 78.054552,3.8294431 C 78.758321,4.0082521 77.875071,5.4981258 74.648843,15.470095 C 70.812356,27.328316 70.877278,28.066971 70.99113,28.131253 C 71.615764,28.483931 75.77401,30.156219 78.37579,31.806219 C 80.97757,33.456219 83.315671,34.806219 83.57157,34.806219 C 83.82747,34.806219 84.036842,33.546219 84.036842,32.006219 C 84.036842,28.804762 84.545545,26.647439 88.201658,26.806219 C 91.781769,26.961699 92.11025,30.282896 91.817686,42.94118 C 91.579785,53.23436 91.496238,55.811242 89.786842,56.194174 C 84.972117,57.272748 84.664209,55.728072 83.817203,50.766489 C 83.303196,47.755548 81.972465,45.300524 79.459398,42.726909 C 76.183023,39.371597 68.337588,35.677408 67.38103,35.771182 C 66.345853,35.872663 34.036842,133.52799 34.036842,134.56855 C 34.036842,136.21399 47.027953,138.80622 55.274149,138.80622 C 63.149748,138.80622 71.240162,137.06492 79.125752,133.67263 L 84.036842,131.55993 L 84.036842,115.68308 L 84.036842,99.80622 L 68.971101,99.80622 C 53.331016,99.80622 49.913467,100.01887 50.036842,95.806219 C 50.177014,91.123285 53.20948,91.806219 75.536842,91.806219 C 97.627025,91.806219 101.10577,91.318647 101.03684,95.641403 C 100.9768,99.49807 98.998582,99.80622 95.336842,99.80622 L 92.036842,99.80622 L 92.036842,118.15818 L 92.036842,136.51014 L 85.286842,139.58125 C 75.255392,144.14535 68.599861,145.82224 58.036842,146.447 C 51.06404,146.85941 46.541686,146.56264 41.036842,145.33141 C 36.911842,144.40881 32.165992,143.72108 31.587193,143.20735 C 31.432027,143.06963 29.072042,150.54388 27.708605,154.46531 C 26.049962,159.23578 24.820485,163.04341 23.749163,166 L 15.157141,163.67965 z M 42.912535,83.052451 C 51.919166,56.792024 59.912979,34.405913 59.548899,33.988037 C 58.623649,32.926076 46.39171,32.600239 39.743362,34.294839 C 27.810789,37.336337 17.282581,45.288953 11.855277,60.328668 C 9.4089667,67.107687 7.9651987,73.302658 8.1920427,88.298384 C 8.0763674,104.95081 10.736197,120.67829 25.721918,130.80245 C 26.170126,130.80038 33.905904,109.31288 42.912535,83.052451 z"
     id="path2384"
     sodipodi:nodetypes="ccssssscccssssssssssssssscccccssscccccsssscccsssccc" />
</svg>
