<?xml version="1.0" encoding="utf-8"?>
<!-- Generator: Adobe Illustrator 21.1.0, SVG Export Plug-In . SVG Version: 6.00 Build 0)  -->
<svg version="1.1" id="Capa_1" xmlns="http://www.w3.org/2000/svg" xmlns:xlink="http://www.w3.org/1999/xlink" x="0px" y="0px"
	 viewBox="0 0 537.6 313" style="enable-background:new 0 0 537.6 313;" xml:space="preserve">
<path d="M287.4,282.2c-8.3,9.8-17.9,17.2-28.9,22.3c-11,5.1-22.8,7.7-35.5,7.7c-16.1,0-31.2-3.8-45.2-11.5
	c-14-7.7-30.1-20.8-48.1-39.3c-24.1-1.2-45.9-7.7-65.3-19.4S29.9,214.7,19,195.4C8.2,176,2.8,154.5,2.8,130.8
	c0-24.6,5.9-46.9,17.7-66.9c11.8-20,28.1-35.7,48.8-47c20.7-11.3,44-17,69.9-17c25.6,0,48.8,5.7,69.5,17
	c20.7,11.3,36.9,26.9,48.6,46.8c11.7,19.9,17.6,42.2,17.6,67.1c0,21-4.2,40.2-12.6,57.8s-20.2,32.3-35.5,44.3
	c-15.2,12-32.7,20.2-52.5,24.9c8.5,9,16.8,15.5,24.7,19.6c7.9,4,16,6,24.3,6c18,0,33.7-7.3,46.8-21.9L287.4,282.2z M52.3,181.1
	c8.7,15,20.6,26.8,35.8,35.3c15.2,8.5,32.2,12.8,51,12.8c18.5,0,35.4-4.3,50.5-12.8c15.1-8.5,27-20.3,35.7-35.3
	c8.7-15,13-31.8,13-50.3c0-18.5-4.3-35.3-13-50.3c-8.7-15-20.5-26.8-35.7-35.3c-15.1-8.5-31.9-12.8-50.5-12.8
	c-18.8,0-35.8,4.3-51,12.8C72.9,53.7,61,65.5,52.3,80.5c-8.7,15-13,31.8-13,50.3C39.3,149.3,43.7,166.1,52.3,181.1z M502.1,258.8
	l-55.2-78.6c-6.8,0.5-12.2,0.7-16.1,0.7h-63.3v77.9h-36.6V2.8h99.9c33.2,0,59.3,7.9,78.3,23.8c19,15.9,28.5,37.7,28.5,65.5
	c0,19.8-4.9,36.6-14.6,50.5c-9.8,13.9-23.7,24-41.7,30.4l60.7,86H502.1z M482.7,134.8c12.2-10,18.3-24.3,18.3-42.8
	c0-18.5-6.1-32.7-18.3-42.6c-12.2-9.9-29.9-14.8-53-14.8h-62.2v115.2h62.2C452.8,149.8,470.5,144.8,482.7,134.8z"/>
</svg>
