<?xml version="1.0" encoding="utf-8"?>
<!-- Generator: Adobe Illustrator 21.1.0, SVG Export Plug-In . SVG Version: 6.00 Build 0)  -->
<svg version="1.1" id="Capa_1" xmlns="http://www.w3.org/2000/svg" xmlns:xlink="http://www.w3.org/1999/xlink" x="0px" y="0px"
	 viewBox="0 0 491 252.7" style="enable-background:new 0 0 491 252.7;" xml:space="preserve">
<g>
	<path d="M175.4,177.3l-13.6-0.5V3.9c0-2.1-1.7-3.9-3.9-3.9H49c-2.1,0-3.9,1.7-3.9,3.9V54c0,35.2-4.4,60.5-10.7,82.1
		c-4.5,15-11.6,28.8-18,40.7l-12.8,0.5c-2.1,0.1-3.8,1.8-3.7,3.9l1.8,67.7c0.1,2.1,1.8,3.8,3.9,3.8h19.9c2.1,0,3.8-1.6,3.9-3.7
		l1.6-43.8h117.1l1.6,43.8c0.1,2.1,1.8,3.7,3.9,3.7h19.9c2.1,0,3.8-1.7,3.9-3.8l1.8-67.7C179.2,179.1,177.5,177.4,175.4,177.3z
		 M128.6,28.8v147.6h-77c4.5-8.7,9.7-20.1,13.4-32.5c6.8-21.6,11.7-48.4,11.7-81.7V28.8H128.6z M331,59.5v141.8
		c0,2.1-1.7,3.9-3.9,3.9h-24.6c-2.1,0-3.9-1.7-3.9-3.9v-60.1c0-17.1,0.3-27.8,1-42.1c-5.3,10.4-10.2,19.2-16.3,29.9
		c-6.7,10.9-13.8,23.1-21.2,35.5c-7.6,12.8-15.4,26.1-23.1,38.7c-0.7,1.1-1.9,1.8-3.3,1.8h-29.6c-2.1,0-3.9-1.7-3.9-3.9V59.5
		c0-2.1,1.7-3.9,3.9-3.9h24.3c2.1,0,3.9,1.7,3.9,3.9v59.8c0,16.8-0.2,28.7-0.7,40.8c4.8-9.5,9.2-17.9,15.7-29.3l44.3-73.3
		c0.7-1.1,1.9-1.9,3.3-1.9h30.2C329.2,55.7,331,57.4,331,59.5z M490.7,59.5v141.8c0,2.1-1.7,3.9-3.9,3.9h-25.5
		c-2.1,0-3.9-1.7-3.9-3.9V141h-59.7v60.3c0,2.1-1.7,3.9-3.9,3.9h-25.5c-2.1,0-3.9-1.7-3.9-3.9V59.5c0-2.1,1.7-3.9,3.9-3.9h25.5
		c2.1,0,3.9,1.7,3.9,3.9v53.3h59.7V59.5c0-2.1,1.7-3.9,3.9-3.9h25.5C489,55.7,490.7,57.4,490.7,59.5z"/>
</g>
</svg>
