<?xml version="1.0" encoding="utf-8"?>
<!-- Generator: Adobe Illustrator 21.1.0, SVG Export Plug-In . SVG Version: 6.00 Build 0)  -->
<svg version="1.1" id="Layer_1" xmlns="http://www.w3.org/2000/svg" xmlns:xlink="http://www.w3.org/1999/xlink" x="0px" y="0px"
	 viewBox="0 0 380 512" style="enable-background:new 0 0 380 512;" xml:space="preserve">
<path d="M104.9,284.6v49.7h202.7V382H104.9v127.4h-67V382H3.4v-47.7h34.5v-49.7H3.4v-58h34.5V3.2h158.5c45.3,0,79.6,4.6,102.9,13.8
	c23.5,9,42.2,25,56.3,48c14,23,21.1,48.5,21.1,76.3c0,28.1-5.2,51.3-15.5,69.8c-10.4,18.4-24.1,33.1-41.3,44
	c-17.2,10.9-36.8,18.6-59,23c-22.2,4.4-45.2,6.6-68.9,6.6H104.9z M191.9,226.6c15.4,0,30.2-1.2,44.2-3.6c14-2.4,26.4-6.8,36.9-13.3
	c10.6-6.4,19-15.1,25.2-26.1c6.2-10.9,9.3-25,9.3-42.3c0-15-2.8-27.6-8.5-38C293.5,93,285.8,84.5,276,78
	c-9.8-6.6-21.2-11.3-34.4-14.3c-13.1-3-27.3-4.5-42.5-4.5h-94.3v167.5H191.9z"/>
</svg>
