<?xml version="1.0" encoding="utf-8"?>
<!-- Generator: Adobe Illustrator 21.1.0, SVG Export Plug-In . SVG Version: 6.00 Build 0)  -->
<svg version="1.1" id="Layer_1" xmlns="http://www.w3.org/2000/svg" xmlns:xlink="http://www.w3.org/1999/xlink" x="0px" y="0px"
	 viewBox="0 0 175.2 98" style="enable-background:new 0 0 175.2 98;" xml:space="preserve">
<style type="text/css">
	.st0{display:none;}
	.st1{display:inline;fill:none;}
	.st2{enable-background:new    ;}
</style>
<g>
	<title>background</title>
	<g id="canvasGrid" class="st0">
		<rect x="-55.5" y="-31" class="st1" width="250" height="160"/>
	</g>
</g>
<g>
	<title>Layer 1</title>
	<g id="svg_15" class="st2">
		<path d="M65.7,98L44.6,67.9c-2.6,0.2-4.7,0.3-6.2,0.3H14.2V98h-14V0h38.2c12.7,0,22.7,3,30,9.1c7.3,6.1,10.9,14.4,10.9,25.1
			c0,7.6-1.9,14-5.6,19.3c-3.7,5.3-9.1,9.2-16,11.6L81,98H65.7z M58.3,50.5c4.7-3.8,7-9.3,7-16.4c0-7.1-2.3-12.5-7-16.3
			c-4.7-3.8-11.4-5.7-20.3-5.7H14.2v44.1H38C46.9,56.3,53.6,54.4,58.3,50.5z"/>
		<path d="M119.9,12.2v34.2h49.2v12h-49.2v15.3H151v8h-31.1V98h-14V81.6H91.5v-8h14.4V0h69.2v12.2H119.9z"/>
	</g>
</g>
</svg>
