<?xml version="1.0" encoding="utf-8"?>
<!-- Generator: Adobe Illustrator 21.1.0, SVG Export Plug-In . SVG Version: 6.00 Build 0)  -->
<svg version="1.1" id="Capa_1" xmlns="http://www.w3.org/2000/svg" xmlns:xlink="http://www.w3.org/1999/xlink" x="0px" y="0px"
	 viewBox="0 0 537.6 304" style="enable-background:new 0 0 537.6 304;" xml:space="preserve">
<path d="M52.9,292.2c-20.6-6.9-36.9-15.8-48.7-26.8l15.6-32.9C31,242.7,45.4,250.9,63,257.2c17.6,6.3,35.6,9.5,54.1,9.5
	c24.4,0,42.7-4.1,54.8-12.4C184,246,190,235,190,221.2c0-10.1-3.3-18.3-9.9-24.6c-6.6-6.3-14.7-11.2-24.4-14.5
	c-9.7-3.4-23.4-7.2-41.1-11.4c-22.2-5.3-40.1-10.7-53.7-16c-13.6-5.3-25.3-13.5-35-24.6c-9.7-11.1-14.5-26.1-14.5-44.9
	c0-15.7,4.1-29.9,12.4-42.6c8.3-12.6,20.9-22.8,37.7-30.3S99.3,0.8,124.3,0.8c17.4,0,34.5,2.3,51.4,6.7c16.9,4.5,31.3,11,43.4,19.4
	l-13.9,33.7c-12.4-7.9-25.6-13.8-39.6-17.9c-14-4.1-27.8-6.1-41.3-6.1c-23.9,0-41.8,4.4-53.7,13.1c-11.9,8.7-17.9,19.9-17.9,33.7
	c0,10.1,3.4,18.3,10.1,24.6c6.7,6.3,15.1,11.2,25.1,14.7c10,3.5,23.5,7.2,40.7,11.2c22.2,5.3,40,10.7,53.5,16
	c13.5,5.3,25.1,13.5,34.8,24.4c9.7,11,14.5,25.7,14.5,44.2c0,15.5-4.2,29.6-12.6,42.3c-8.4,12.8-21.2,22.9-38.3,30.3
	c-17.1,7.4-38.2,11.2-63.2,11.2C94.9,302.5,73.5,299.1,52.9,292.2z M490,299.1l-63.6-90.6c-7.9,0.6-14,0.8-18.5,0.8H335v89.7h-42.1
	V4.2h115c38.2,0,68.3,9.1,90.2,27.4c21.9,18.3,32.9,43.4,32.9,75.4c0,22.8-5.6,42.1-16.9,58.1c-11.2,16-27.2,27.7-48,35l69.9,99H490
	z M467.7,156.3c14-11.5,21.1-27.9,21.1-49.3c0-21.3-7-37.7-21.1-49.1c-14-11.4-34.4-17.1-61.1-17.1H335v132.7h71.6
	C433.3,173.6,453.6,167.8,467.7,156.3z"/>
</svg>
