<?xml version="1.0" encoding="utf-8"?>
<!-- Generator: Adobe Illustrator 21.1.0, SVG Export Plug-In . SVG Version: 6.00 Build 0)  -->
<svg version="1.1" id="Layer_1" xmlns="http://www.w3.org/2000/svg" xmlns:xlink="http://www.w3.org/1999/xlink" x="0px" y="0px"
	 viewBox="0 0 245.7 156.8" style="enable-background:new 0 0 245.7 156.8;" xml:space="preserve">
<style type="text/css">
	.st0{display:none;}
	.st1{display:inline;fill:none;}
	.st2{enable-background:new    ;}
</style>
<g>
	<title>background</title>
	<g id="canvasGrid" class="st0">
		<rect x="-5.7" class="st1" width="250" height="160"/>
	</g>
</g>
<g>
	<title>Layer 1</title>
	<g id="svg_16" class="st2">
		<path d="M20.3,133.6c-8.1-2.7-14.5-6.2-19.2-10.5l6.1-12.9c4.4,4,10.1,7.2,17,9.7c6.9,2.5,14,3.7,21.3,3.7
			c9.6,0,16.8-1.6,21.6-4.9c4.8-3.3,7.1-7.6,7.1-13c0-4-1.3-7.2-3.9-9.7c-2.6-2.5-5.8-4.4-9.6-5.7c-3.8-1.3-9.2-2.8-16.2-4.5
			c-8.7-2.1-15.8-4.2-21.1-6.3c-5.4-2.1-9.9-5.3-13.8-9.7c-3.8-4.4-5.7-10.3-5.7-17.7c0-6.2,1.6-11.8,4.9-16.7
			c3.3-5,8.2-9,14.8-11.9c6.6-3,14.9-4.5,24.7-4.5c6.9,0,13.6,0.9,20.2,2.7c6.6,1.8,12.3,4.3,17.1,7.6l-5.5,13.3
			c-4.9-3.1-10.1-5.4-15.6-7c-5.5-1.6-10.9-2.4-16.3-2.4c-9.4,0-16.4,1.7-21.1,5.1c-4.7,3.4-7,7.9-7,13.3c0,4,1.3,7.2,4,9.7
			c2.7,2.5,5.9,4.4,9.9,5.8c3.9,1.4,9.3,2.8,16,4.4c8.7,2.1,15.8,4.2,21.1,6.3c5.3,2.1,9.9,5.3,13.7,9.6c3.8,4.3,5.7,10.1,5.7,17.4
			c0,6.1-1.7,11.6-5,16.7c-3.3,5-8.3,9-15.1,11.9c-6.7,2.9-15,4.4-24.9,4.4C36.8,137.7,28.4,136.3,20.3,133.6z"/>
		<path d="M114.7,20.3h16.6v116.1h-16.6V20.3z"/>
		<path d="M235,126.9c-6.6,6.1-16.1,9.6-28.6,10.6v18.7h-10.6v-18.7c-8.1-0.4-15.7-2-23-4.6c-7.2-2.6-13-5.9-17.3-9.9l6.1-12.9
			c4,3.6,9,6.7,15.1,9c6.1,2.4,12.4,3.8,19.1,4.2V85c-7.7-1.9-14.2-3.9-19.3-6.1c-5.1-2.2-9.5-5.5-12.9-9.8
			c-3.5-4.3-5.2-9.9-5.2-16.9c0-8.7,3.2-16.1,9.5-22.2c6.4-6.1,15.7-9.6,27.9-10.6V0.4h10.6v18.7c6.3,0.2,12.4,1.2,18.3,3
			c5.9,1.8,11,4.1,15.3,7.1l-5.5,13.3c-9-5.6-18.4-8.7-28.2-9.3v38.6c8.1,2,14.7,4.1,19.9,6.2c5.2,2.2,9.6,5.4,13.2,9.6
			c3.6,4.3,5.4,9.9,5.4,17C244.9,113.4,241.6,120.8,235,126.9z M180,62.6c3.6,2.7,8.9,4.9,15.8,6.6V33.4c-7.1,0.9-12.4,3-15.9,6.2
			c-3.5,3.3-5.3,7.2-5.3,11.9C174.6,56.2,176.4,59.9,180,62.6z M223.1,117.5c3.7-3.2,5.6-7.1,5.6-11.9c0-4.9-1.9-8.6-5.7-11.2
			c-3.8-2.6-9.3-4.9-16.5-6.9v35.7C213.8,122.6,219.4,120.7,223.1,117.5z"/>
	</g>
</g>
</svg>
