<?xml version="1.0" encoding="utf-8"?>
<!-- Generator: Adobe Illustrator 21.1.0, SVG Export Plug-In . SVG Version: 6.00 Build 0)  -->
<svg version="1.1" id="Capa_1" xmlns="http://www.w3.org/2000/svg" xmlns:xlink="http://www.w3.org/1999/xlink" x="0px" y="0px"
	 viewBox="0 0 72.5 41.1" style="enable-background:new 0 0 72.5 41.1;" xml:space="preserve">
<path d="M6.6,39.7c-2.8-0.9-5-2.1-6.6-3.6l2.1-4.5C3.7,33,5.6,34.1,8,34.9c2.4,0.9,4.8,1.3,7.4,1.3c3.3,0,5.8-0.6,7.4-1.7
	c1.6-1.1,2.5-2.6,2.5-4.5c0-1.4-0.4-2.5-1.3-3.3c-0.9-0.9-2-1.5-3.3-2c-1.3-0.5-3.2-1-5.6-1.5c-3-0.7-5.4-1.4-7.3-2.2
	c-1.9-0.7-3.4-1.8-4.7-3.3c-1.3-1.5-2-3.5-2-6.1c0-2.1,0.6-4.1,1.7-5.8c1.1-1.7,2.8-3.1,5.1-4.1c2.3-1,5.1-1.5,8.5-1.5
	c2.4,0,4.7,0.3,7,0.9c2.3,0.6,4.3,1.5,5.9,2.6l-1.9,4.6c-1.7-1.1-3.5-1.9-5.4-2.4C20,5.3,18.2,5,16.3,5C13.1,5,10.6,5.6,9,6.8
	c-1.6,1.2-2.4,2.7-2.4,4.6c0,1.4,0.5,2.5,1.4,3.3c0.9,0.9,2,1.5,3.4,2c1.4,0.5,3.2,1,5.5,1.5c3,0.7,5.4,1.5,7.3,2.2
	c1.8,0.7,3.4,1.8,4.7,3.3s2,3.5,2,6c0,2.1-0.6,4-1.7,5.8c-1.1,1.7-2.9,3.1-5.2,4.1c-2.3,1-5.2,1.5-8.6,1.5
	C12.3,41.1,9.4,40.6,6.6,39.7z M66,40.6l-8.6-12.3c-1.1,0.1-1.9,0.1-2.5,0.1h-9.9v12.2h-5.7V0.6h15.6c5.2,0,9.3,1.2,12.2,3.7
	c3,2.5,4.5,5.9,4.5,10.2c0,3.1-0.8,5.7-2.3,7.9s-3.7,3.8-6.5,4.7l9.5,13.4H66z M63,21.2c1.9-1.6,2.9-3.8,2.9-6.7
	c0-2.9-1-5.1-2.9-6.7c-1.9-1.5-4.7-2.3-8.3-2.3h-9.7v18h9.7C58.3,23.6,61,22.8,63,21.2z"/>
</svg>
