<?xml version="1.0" encoding="utf-8"?>
<!-- Generator: Adobe Illustrator 21.1.0, SVG Export Plug-In . SVG Version: 6.00 Build 0)  -->
<svg version="1.1" id="Layer_1" xmlns="http://www.w3.org/2000/svg" xmlns:xlink="http://www.w3.org/1999/xlink" x="0px" y="0px"
	 viewBox="0 0 247.1 130.5" style="enable-background:new 0 0 247.1 130.5;" xml:space="preserve">
<style type="text/css">
	.st0{display:none;}
	.st1{display:inline;fill:none;}
</style>
<g>
	<title>background</title>
	<g id="canvasGrid" class="st0">
		<rect y="-19.3" class="st1" width="250" height="160"/>
	</g>
</g>
<g>
	<path d="M22,125.4c-8.9-3-15.9-6.8-20.9-11.5l6.7-14.1c4.8,4.3,11,7.9,18.6,10.6c7.5,2.7,15.3,4.1,23.3,4.1
		c10.5,0,18.4-1.8,23.6-5.3c5.2-3.6,7.8-8.3,7.8-14.2c0-4.3-1.4-7.9-4.3-10.6c-2.8-2.7-6.3-4.8-10.5-6.3C62,76.6,56.1,75,48.5,73.1
		c-9.5-2.3-17.2-4.6-23.1-6.9c-5.9-2.3-10.9-5.8-15-10.6c-4.2-4.8-6.3-11.2-6.3-19.3c0-6.8,1.8-12.9,5.3-18.3c3.6-5.4,9-9.8,16.2-13
		c7.2-3.3,16.2-4.9,27-4.9c7.5,0,14.9,1,22.1,2.9C82,5,88.2,7.7,93.4,11.4l-6,14.5c-5.3-3.4-11-5.9-17-7.7c-6-1.7-12-2.6-17.8-2.6
		c-10.3,0-18,1.9-23.1,5.6c-5.1,3.7-7.7,8.6-7.7,14.5c0,4.3,1.4,7.9,4.3,10.6c2.9,2.7,6.5,4.8,10.8,6.3c4.3,1.5,10.1,3.1,17.5,4.8
		c9.5,2.3,17.2,4.6,23,6.9c5.8,2.3,10.8,5.8,14.9,10.5c4.2,4.7,6.3,11.1,6.3,19c0,6.6-1.8,12.7-5.4,18.2c-3.6,5.5-9.1,9.8-16.5,13
		c-7.4,3.2-16.4,4.8-27.2,4.8C40.1,129.8,30.8,128.4,22,125.4z"/>
	<path d="M125.1,1.6h53.4c13.4,0,25.3,2.7,35.7,8c10.4,5.3,18.4,12.8,24.2,22.4c5.7,9.6,8.6,20.6,8.6,33.1c0,12.4-2.9,23.5-8.6,33.1
		c-5.7,9.6-13.8,17.1-24.2,22.4c-10.4,5.3-22.3,8-35.7,8h-53.4V1.6z M177.5,112.6c10.3,0,19.3-2,27.1-6c7.8-4,13.8-9.6,18-16.8
		c4.2-7.2,6.3-15.5,6.3-24.9c0-9.4-2.1-17.7-6.3-24.9c-4.2-7.2-10.2-12.8-18-16.8c-7.8-4-16.8-6-27.1-6h-34.2v95.3H177.5z"/>
</g>
</svg>
