<?xml version="1.0" encoding="utf-8"?>
<!-- Generator: Adobe Illustrator 21.1.0, SVG Export Plug-In . SVG Version: 6.00 Build 0)  -->
<svg version="1.1" id="Layer_1" xmlns="http://www.w3.org/2000/svg" xmlns:xlink="http://www.w3.org/1999/xlink" x="0px" y="0px"
	 viewBox="0 0 512 413" style="enable-background:new 0 0 512 413;" xml:space="preserve">
<path d="M51.4,355.2C29.9,348,13,338.7,0.7,327.3L16.9,293c11.7,10.5,26.7,19.1,45,25.7c18.3,6.6,37.1,9.9,56.5,9.9
	c25.5,0,44.5-4.3,57.1-13c12.6-8.6,18.9-20.1,18.9-34.5c0-10.5-3.4-19.1-10.3-25.7c-6.9-6.6-15.4-11.6-25.5-15.2
	c-10.1-3.5-24.4-7.5-42.8-11.9c-23.1-5.6-41.8-11.1-56-16.7c-14.2-5.6-26.4-14.1-36.5-25.7c-10.1-11.6-15.2-27.2-15.2-46.8
	c0-16.4,4.3-31.2,13-44.4c8.6-13.2,21.7-23.7,39.3-31.6c17.6-7.9,39.4-11.9,65.5-11.9c18.2,0,36,2.3,53.6,7
	c17.6,4.7,32.7,11.4,45.3,20.2l-14.5,35.1c-12.9-8.2-26.7-14.4-41.3-18.7c-14.6-4.2-29-6.4-43.1-6.4c-24.9,0-43.6,4.5-56,13.6
	c-12.5,9.1-18.7,20.8-18.7,35.1c0,10.5,3.5,19.1,10.5,25.7c7,6.6,15.7,11.7,26.1,15.4c10.4,3.7,24.5,7.5,42.4,11.6
	c23.1,5.6,41.7,11.1,55.8,16.7c14.1,5.6,26.1,14.1,36.2,25.5c10.1,11.4,15.2,26.8,15.2,46.1c0,16.1-4.4,30.8-13.2,44.2
	c-8.8,13.3-22.1,23.9-40,31.6c-17.9,7.8-39.8,11.6-65.9,11.6C95.3,365.9,72.9,362.4,51.4,355.2z M484.1,337.4
	c-17.4,16.1-42.7,25.5-75.8,28.1v49.6h-28.1v-49.6c-21.4-1.2-41.7-5.2-60.8-12.1c-19.2-6.9-34.5-15.6-45.9-26.1l16.3-34.3
	c10.5,9.7,23.9,17.6,40,23.9c16.1,6.3,33,10,50.5,11.2V226.2c-20.5-5-37.6-10.4-51.2-16.3c-13.6-5.9-25-14.5-34.3-25.9
	c-9.2-11.4-13.8-26.4-13.8-44.8c0-23.1,8.4-42.8,25.3-58.9c16.8-16.1,41.5-25.5,74-28.1V2.2h28.1v49.6c16.7,0.6,32.9,3.2,48.5,7.9
	c15.7,4.7,29.2,11,40.6,18.9L483,113.8c-23.7-14.9-48.6-23.1-74.7-24.6v102.4c21.4,5.3,38.9,10.8,52.7,16.5
	c13.8,5.7,25.4,14.2,34.9,25.5c9.5,11.3,14.3,26.3,14.3,45C510.3,301.7,501.6,321.3,484.1,337.4z M338.5,166.9
	c9.7,7,23.6,12.9,41.7,17.6V89.6c-18.7,2.3-32.8,7.8-42.2,16.5c-9.4,8.6-14.1,19.1-14.1,31.4C324,150.1,328.8,159.9,338.5,166.9z
	 M452.5,312.6c9.8-8.3,14.7-18.8,14.7-31.4c0-12.9-5.1-22.8-15.2-29.7c-10.1-6.9-24.7-13-43.7-18.2v94.5
	C428,326,442.7,320.9,452.5,312.6z"/>
</svg>
