<?xml version="1.0" encoding="utf-8"?>
<!-- Generator: Adobe Illustrator 21.1.0, SVG Export Plug-In . SVG Version: 6.00 Build 0)  -->
<svg version="1.1" id="Layer_1" xmlns="http://www.w3.org/2000/svg" xmlns:xlink="http://www.w3.org/1999/xlink" x="0px" y="0px"
	 viewBox="0 0 980 775.1" style="enable-background:new 0 0 980 775.1;" xml:space="preserve">
<g>
	<g transform="translate(0.000000,511.000000) scale(0.100000,-0.100000)">
		<path d="M0,1300v-3810.1h2155.3h2155.3v408.6v408.6H2635.4H960.2v3401.4V5110H480.1H0V1300z"/>
		<path d="M7162.5,3238.7c-1189-214.5-2047-1291.1-2134.9-2678.3c-40.8-659.9,67.4-1270.7,314.6-1767.1
			c143-286,267.6-459.7,498.5-690.5c373.8-373.8,749.7-576.1,1291.1-698.7c183.9-40.9,265.6-47,610.8-45
			c439.2,0,623.1,28.6,996.9,153.2c187.9,63.3,706.9,310.5,794.7,380l45,36.8l-165.5,308.5L9248.2-1456l-155.3-87.8
			c-888.7-506.7-1893.8-457.6-2510.7,124.6c-349.4,328.9-553.7,792.6-625.2,1428l-12.2,96H7853c1687.5,0,1910.1,4.1,1920.4,30.6
			c26.6,73.5,36.8,588.4,14.3,837.6c-53.1,592.5-198.1,1041.9-457.6,1430c-120.5,181.8-410.6,453.5-602.7,570
			C8308.6,3222.3,7673.2,3330.6,7162.5,3238.7z M7926.5,2482.8c420.8-98.1,743.6-402.4,900.9-845.8
			c77.7-220.6,118.6-435.1,134.9-696.6l12.2-222.7H7456.7H5938.8l14.3,120.5c18.4,161.4,100.1,461.7,175.7,643.5
			c167.5,398.4,518.9,772.2,868.2,921.4C7258.5,2513.4,7652.8,2548.2,7926.5,2482.8z"/>
	</g>
</g>
</svg>
