<?xml version="1.0" encoding="utf-8"?>
<!-- Generator: Adobe Illustrator 21.1.0, SVG Export Plug-In . SVG Version: 6.00 Build 0)  -->
<svg version="1.1" id="Capa_1" xmlns="http://www.w3.org/2000/svg" xmlns:xlink="http://www.w3.org/1999/xlink" x="0px" y="0px"
	 viewBox="0 0 405.9 209.7" style="enable-background:new 0 0 405.9 209.7;" xml:space="preserve">
<style type="text/css">
	.st0{enable-background:new    ;}
</style>
<g class="st0">
	<path d="M35.9,202.3c-13.6-4.5-24.4-10.4-32.2-17.7l10.3-21.7c7.4,6.7,16.9,12.1,28.5,16.3c11.6,4.2,23.5,6.3,35.8,6.3
		c16.1,0,28.2-2.7,36.2-8.2c8-5.5,12-12.8,12-21.9c0-6.7-2.2-12.1-6.5-16.3c-4.4-4.2-9.7-7.4-16.1-9.6c-6.4-2.2-15.5-4.7-27.1-7.5
		c-14.7-3.5-26.5-7.1-35.5-10.6c-9-3.5-16.7-9-23.1-16.3c-6.4-7.3-9.6-17.2-9.6-29.6c0-10.4,2.7-19.8,8.2-28.1
		c5.5-8.4,13.8-15,24.9-20c11.1-5,25-7.5,41.5-7.5c11.5,0,22.8,1.5,34,4.5c11.1,3,20.7,7.2,28.7,12.8l-9.2,22.3
		c-8.2-5.2-16.9-9.1-26.2-11.8c-9.3-2.7-18.4-4-27.3-4c-15.8,0-27.6,2.9-35.5,8.6c-7.9,5.8-11.8,13.2-11.8,22.3
		c0,6.7,2.2,12.1,6.7,16.3s10,7.4,16.6,9.7c6.6,2.3,15.5,4.8,26.9,7.4c14.7,3.5,26.4,7.1,35.4,10.6c8.9,3.5,16.6,8.9,23,16.1
		c6.4,7.2,9.6,17,9.6,29.2c0,10.2-2.8,19.5-8.4,28c-5.6,8.4-14,15.1-25.3,20c-11.3,4.9-25.2,7.4-41.8,7.4
		C63.7,209.1,49.6,206.8,35.9,202.3z"/>
	<path d="M314,74.2c11,10.9,16.6,26.8,16.6,47.7v84.9h-26.7V125c0-14.3-3.4-25.1-10.3-32.3c-6.9-7.2-16.7-10.9-29.5-10.9
		c-14.5,0-25.9,4.2-34.2,12.7c-8.4,8.4-12.5,20.6-12.5,36.3v76h-26.7V0.3h26.7v79.9c5.6-7.1,12.8-12.5,21.9-16.4
		c9-3.9,19.1-5.8,30.2-5.8C288.1,57.9,303,63.3,314,74.2z"/>
	<path d="M373.2,203.1c-3.7-3.6-5.6-8.2-5.6-13.8c0-5.4,1.9-9.9,5.6-13.5c3.7-3.6,8.2-5.4,13.4-5.4c5.2,0,9.6,1.8,13.1,5.3
		c3.5,3.5,5.3,8.1,5.3,13.6c0,5.6-1.8,10.2-5.4,13.8c-3.6,3.6-7.9,5.4-12.9,5.4C381.3,208.5,376.9,206.7,373.2,203.1z"/>
</g>
</svg>
