<?xml version="1.0" encoding="utf-8"?>
<!-- Generator: Adobe Illustrator 21.1.0, SVG Export Plug-In . SVG Version: 6.00 Build 0)  -->
<svg version="1.1" id="Layer_1" xmlns="http://www.w3.org/2000/svg" xmlns:xlink="http://www.w3.org/1999/xlink" x="0px" y="0px"
	 viewBox="0 0 240.5 131.8" style="enable-background:new 0 0 240.5 131.8;" xml:space="preserve">
<style type="text/css">
	.st0{display:none;}
	.st1{display:inline;fill:none;}
	.st2{enable-background:new    ;}
</style>
<g>
	<title>background</title>
	<g id="canvasGrid" class="st0">
		<rect x="-7" y="-8" class="st1" width="250" height="160"/>
	</g>
</g>
<g>
	<title>Layer 1</title>
	<g id="svg_20" class="st2">
		<path d="M0.2,7.5h51.9c13,0,24.6,2.6,34.7,7.7c10.1,5.2,17.9,12.4,23.5,21.7c5.6,9.3,8.4,20,8.4,32.1c0,12.1-2.8,22.8-8.4,32.1
			c-5.6,9.3-13.4,16.6-23.5,21.7c-10.1,5.2-21.6,7.7-34.7,7.7H0.2V7.5z M51,115.3c10,0,18.7-1.9,26.3-5.8
			c7.6-3.9,13.4-9.3,17.5-16.3c4.1-7,6.2-15,6.2-24.2s-2.1-17.2-6.2-24.2c-4.1-7-9.9-12.4-17.5-16.3C69.8,24.7,61,22.8,51,22.8H17.8
			v92.5H51z"/>
		<path d="M216.7,42.5c7.2,4,12.8,9.6,16.8,16.7c4,7.2,6.1,15.4,6.1,24.8c0,9.4-2,17.7-6.1,24.9s-9.6,12.8-16.8,16.8
			c-7.2,4-15.2,6-24.3,6c-6.9,0-13.3-1.3-19-4c-5.7-2.7-10.5-6.6-14.3-11.8v14.8H143V0.1h16.9v51.4c3.8-4.9,8.4-8.6,14.1-11.2
			c5.6-2.5,11.8-3.8,18.5-3.8C201.5,36.5,209.6,38.5,216.7,42.5z M207.2,112.8c4.7-2.8,8.5-6.6,11.3-11.6c2.8-5,4.1-10.7,4.1-17.2
			c0-6.4-1.4-12.2-4.1-17.2c-2.8-5-6.5-8.8-11.3-11.5c-4.8-2.7-10.1-4-16.1-4c-5.9,0-11.2,1.3-16,4c-4.8,2.7-8.6,6.5-11.3,11.5
			c-2.7,5-4,10.7-4,17.2c0,6.5,1.3,12.2,4,17.2c2.7,5,6.4,8.9,11.3,11.6c4.8,2.8,10.1,4.1,16,4.1C197,116.9,202.4,115.5,207.2,112.8
			z"/>
	</g>
</g>
</svg>
