<?xml version="1.0" encoding="utf-8"?>
<!-- Generator: Adobe Illustrator 21.1.0, SVG Export Plug-In . SVG Version: 6.00 Build 0)  -->
<svg version="1.1" id="Layer_1" xmlns="http://www.w3.org/2000/svg" xmlns:xlink="http://www.w3.org/1999/xlink" x="0px" y="0px"
	 viewBox="0 0 987.4 598.8" style="enable-background:new 0 0 987.4 598.8;" xml:space="preserve">
<path d="M174.1,517h313.2v72.1H1.8V517h90.3V326.4H1.8v-54.7h90.3v-53.8c0-43.6,9.5-81.6,28.6-113.9c19.1-32.3,46.9-57.3,83.7-75
	C241,11.4,285.1,2.5,336.5,2.5c33.7,0,63.6,3.3,89.9,9.9c26.2,6.6,50.7,17.1,73.3,31.5l-27.3,68.8C436.4,88.4,388.6,76.3,329,76.3
	c-50.8,0-89.3,12.2-115.6,36.5c-26.2,24.3-39.4,59.1-39.4,104.4v54.7h220.4v54.7H174.1V517z M633.5,575.4
	c-40.6-13.5-72.5-31.1-95.7-52.6l30.7-64.6c22.1,19.9,50.4,36,84.9,48.5c34.5,12.4,70,18.6,106.5,18.6c48,0,83.9-8.1,107.7-24.4
	c23.7-16.3,35.6-38,35.6-65c0-19.9-6.5-36-19.5-48.5c-13-12.4-29-22-48.1-28.6c-19.1-6.6-46-14.1-80.8-22.4
	c-43.6-10.5-78.8-21-105.6-31.5c-26.8-10.5-49.7-26.6-68.8-48.5c-19.1-21.8-28.6-51.2-28.6-88.2c0-30.9,8.1-58.8,24.4-83.7
	c16.3-24.9,41-44.7,74.1-59.6C683.6,10,724.7,2.5,773.9,2.5c34.2,0,67.9,4.4,101.1,13.3c33.1,8.8,61.6,21.5,85.3,38.1l-27.3,66.3
	C908.6,104.7,882.7,93,855.1,85c-27.6-8-54.7-12-81.2-12c-46.9,0-82.2,8.6-105.6,25.7c-23.5,17.1-35.2,39.2-35.2,66.3
	c0,19.9,6.6,36,19.9,48.5c13.3,12.4,29.7,22.1,49.3,29c19.6,6.9,46.3,14.2,79.9,22c43.6,10.5,78.7,21,105.2,31.5
	c26.5,10.5,49.3,26.5,68.3,48.1c19.1,21.5,28.6,50.5,28.6,87c0,30.4-8.3,58.1-24.9,83.3c-16.6,25.1-41.7,45-75.4,59.6
	c-33.7,14.6-75.1,22-124.3,22C716.2,595.7,674.1,588.9,633.5,575.4z"/>
</svg>
