<?xml version="1.0" encoding="utf-8"?>
<!-- Generator: Adobe Illustrator 21.1.0, SVG Export Plug-In . SVG Version: 6.00 Build 0)  -->
<svg version="1.1" id="Layer_1" xmlns="http://www.w3.org/2000/svg" xmlns:xlink="http://www.w3.org/1999/xlink" x="0px" y="0px"
	 viewBox="0 0 1000 538.6" style="enable-background:new 0 0 1000 538.6;" xml:space="preserve">
<path d="M3.2,0.9h226.6c56.8,0,107.3,11.3,151.3,33.8c44,22.5,78.2,54.2,102.5,94.9c24.3,40.7,36.5,87.5,36.5,140.2
	c0,52.8-12.2,99.5-36.5,140.2c-24.3,40.7-58.5,72.3-102.5,94.9c-44,22.5-94.5,33.8-151.3,33.8H3.2V0.9z M225.2,471.8
	c43.5,0,81.8-8.5,114.8-25.3c33-16.9,58.5-40.6,76.4-71.1c17.9-30.5,26.9-65.7,26.9-105.6s-9-75.1-26.9-105.6
	c-17.9-30.5-43.4-54.2-76.4-71.1c-33-16.9-71.3-25.3-114.8-25.3H80v404.1H225.2z M736.8,67.8H552.4V0.9h444.8v66.8H812.8v470.9h-76
	V67.8z"/>
</svg>
