<?xml version="1.0" encoding="utf-8"?>
<!-- Generator: Adobe Illustrator 21.1.0, SVG Export Plug-In . SVG Version: 6.00 Build 0)  -->
<svg version="1.1" id="Layer_1" xmlns="http://www.w3.org/2000/svg" xmlns:xlink="http://www.w3.org/1999/xlink" x="0px" y="0px"
	 viewBox="0 0 182 147.8" style="enable-background:new 0 0 182 147.8;" xml:space="preserve">
<style type="text/css">
	.st0{display:none;}
	.st1{display:inline;fill:none;}
	.st2{enable-background:new    ;}
</style>
<g>
	<title>background</title>
	<g id="canvasGrid" class="st0">
		<rect x="-31.2" y="-4.8" class="st1" width="250" height="160"/>
	</g>
</g>
<g>
	<title>Layer 1</title>
	<g id="svg_24" class="st2">
		<path d="M38.4,32.4H0.6V18.7h91.1v13.7H53.9v96.4H38.4V32.4z"/>
		<path d="M172.8,119.9c-6.2,5.8-15.3,9.1-27.1,10.1v17.8h-10.1v-17.8c-7.7-0.4-14.9-1.9-21.8-4.3c-6.9-2.5-12.3-5.6-16.4-9.4
			l5.8-12.3c3.8,3.5,8.5,6.3,14.3,8.6c5.8,2.3,11.8,3.6,18.1,4V80.1c-7.3-1.8-13.4-3.7-18.3-5.8c-4.9-2.1-9-5.2-12.3-9.3
			c-3.3-4.1-5-9.4-5-16c0-8.3,3-15.3,9-21.1c6-5.8,14.9-9.1,26.5-10.1V-0.1h10.1v17.8c6,0.2,11.8,1.2,17.4,2.8
			c5.6,1.7,10.5,3.9,14.5,6.8l-5.2,12.6c-8.5-5.3-17.4-8.3-26.7-8.8v36.6c7.7,1.9,13.9,3.9,18.9,5.9c4.9,2,9.1,5.1,12.5,9.1
			c3.4,4,5.1,9.4,5.1,16.1C182.1,107.1,179,114.1,172.8,119.9z M120.6,58.9c3.5,2.5,8.4,4.6,14.9,6.3v-34
			c-6.7,0.8-11.7,2.8-15.1,5.9c-3.4,3.1-5,6.8-5,11.2C115.4,52.8,117.2,56.3,120.6,58.9z M161.4,111c3.5-3,5.3-6.7,5.3-11.2
			c0-4.6-1.8-8.2-5.4-10.6c-3.6-2.5-8.8-4.6-15.6-6.5v33.8C152.7,115.8,157.9,114,161.4,111z"/>
	</g>
</g>
</svg>
