<?xml version="1.0" encoding="utf-8"?>
<!-- Generator: Adobe Illustrator 21.1.0, SVG Export Plug-In . SVG Version: 6.00 Build 0)  -->
<svg version="1.1" id="Capa_1" xmlns="http://www.w3.org/2000/svg" xmlns:xlink="http://www.w3.org/1999/xlink" x="0px" y="0px"
	 viewBox="0 0 381 512" style="enable-background:new 0 0 381 512;" xml:space="preserve">
<g>
	<path d="M103.8,512c-2.1-0.8-4.2-1.6-6.7-2.6c0-83.8,0-167.6,0-252.6c-32.6,11.6-64.3,22.9-97.4,34.7c0-13.3-0.3-25.6,0.3-37.9
		c0.1-2,3.6-4.6,6.1-5.5c26.4-9.7,52.7-19.5,79.4-28.2c9.5-3.1,13.6-7.6,11.8-17.4c-0.4-2.5-0.1-5.1-0.1-8.9
		c-32.6,11.7-64.4,23.1-97.6,35c0-14.1-0.3-26.5,0.3-38.9c0.1-1.9,3.8-4.3,6.2-5.2c28-10.1,56.2-20,84.3-29.8c4-1.4,6.9-2.6,6.8-8
		C97.1,97.8,97.1,48.9,97,0c17.1,0,34.1,0,51.2,0c0.2,5.9,0.7,11.9,0.7,17.8c0.1,35,0,70,0,105c0,3,0,6.1,0,10.5
		c52.7-19,104.1-37.6,156.3-56.5c0,13.1,0.4,25-0.3,36.9c-0.1,2.4-4,5.7-6.8,6.7c-44.3,16.3-88.6,32.3-133,48.3
		c-17.9,6.5-18,6.4-15.4,27.6c51.7-18.6,103-37.2,155.4-56.1c0,13,0.4,25.4-0.4,37.8c-0.1,2.2-4.7,4.9-7.8,6
		c-44.6,16.2-89.3,32.1-133.9,48.1c-17.5,6.3-14.1,3.9-14.2,20.1c-0.1,64.9-0.1,129.7-0.1,194.6c0,3.4,0,6.7,0,10.1
		c63.8-1,178.9-68.7,179.5-200.8c16.9,0,33.8,0,52.6,0c-1.7,15-2.2,30.1-5.1,44.6c-22.2,113.3-110.6,195.6-224.7,209.8
		c-1.6,0.2-3.2,0.9-4.8,1.4C132.2,512,118,512,103.8,512L103.8,512z"/>
</g>
</svg>
