<?xml version="1.0" encoding="utf-8"?>
<!-- Generator: Adobe Illustrator 21.1.0, SVG Export Plug-In . SVG Version: 6.00 Build 0)  -->
<svg version="1.1" id="Capa_1" xmlns="http://www.w3.org/2000/svg" xmlns:xlink="http://www.w3.org/1999/xlink" x="0px" y="0px"
	 viewBox="0 0 524.9 281" style="enable-background:new 0 0 524.9 281;" xml:space="preserve">
<g>
	<path d="M74.3,62.5H2.9V36.6h172.2v25.9h-71.4v182.3H74.3V62.5z"/>
	<path d="M251.8,62.5h-71.4V36.6h172.2v25.9h-71.4v182.3h-29.4V62.5z"/>
	<path d="M505.9,227.8c-11.8,10.9-28.9,17.2-51.3,19v33.6h-19v-33.6c-14.5-0.8-28.2-3.5-41.2-8.2c-13-4.7-23.3-10.6-31.1-17.7
		l11-23.2c7.1,6.5,16.2,11.9,27.1,16.2c10.9,4.3,22.3,6.8,34.2,7.6v-69c-13.9-3.4-25.4-7-34.6-11c-9.2-4-17-9.8-23.2-17.5
		c-6.2-7.7-9.4-17.8-9.4-30.3c0-15.7,5.7-28.9,17.1-39.8c11.4-10.9,28.1-17.2,50.1-19V0.9h19v33.6c11.3,0.4,22.3,2.2,32.9,5.4
		c10.6,3.2,19.8,7.4,27.5,12.8l-9.8,23.8c-16.1-10.1-32.9-15.7-50.6-16.7v69.3c14.5,3.6,26.4,7.3,35.7,11.2
		c9.3,3.9,17.2,9.6,23.6,17.2c6.4,7.6,9.7,17.8,9.7,30.5C523.6,203.6,517.7,216.9,505.9,227.8z M407.4,112.4
		c6.5,4.8,16,8.7,28.3,11.9V60.1c-12.7,1.6-22.2,5.3-28.5,11.2c-6.3,5.9-9.5,12.9-9.5,21.3C397.5,101,400.8,107.7,407.4,112.4z
		 M484.5,211c6.6-5.7,10-12.7,10-21.3c0-8.7-3.4-15.4-10.3-20.1c-6.8-4.7-16.7-8.8-29.6-12.3v63.9
		C467.9,220.1,477.9,216.7,484.5,211z"/>
</g>
</svg>
