<?xml version="1.0" encoding="utf-8"?>
<!-- Generator: Adobe Illustrator 21.1.0, SVG Export Plug-In . SVG Version: 6.00 Build 0)  -->
<svg version="1.1" id="Layer_1" xmlns="http://www.w3.org/2000/svg" xmlns:xlink="http://www.w3.org/1999/xlink" x="0px" y="0px"
	 viewBox="0 0 237.7 120.5" style="enable-background:new 0 0 237.7 120.5;" xml:space="preserve">
<style type="text/css">
	.st0{enable-background:new    ;}
</style>
<g>
	<title>background</title>
</g>
<g>
	<title>Layer 1</title>
	<g id="svg_1" class="st0">
		<path d="M76.7,15.8v89.1H66.3L12.8,38.5v66.4H0.1V15.8h10.4L64,82.2V15.8H76.7z"/>
		<path d="M121.2,26.9H90.6V15.8h73.7v11.1h-30.6v78h-12.6V26.9z"/>
		<path d="M229.9,97.6c-5,4.7-12.4,7.4-22,8.1v14.4h-8.1v-14.4c-6.2-0.3-12.1-1.5-17.6-3.5c-5.6-2-10-4.5-13.3-7.6l4.7-9.9
			c3.1,2.8,6.9,5.1,11.6,6.9c4.7,1.8,9.5,2.9,14.6,3.2V65.4c-5.9-1.4-10.9-3-14.8-4.7c-3.9-1.7-7.3-4.2-9.9-7.5c-2.7-3.3-4-7.6-4-13
			c0-6.7,2.4-12.4,7.3-17.1c4.9-4.7,12-7.4,21.5-8.1V0.5h8.1v14.4c4.8,0.2,9.5,0.9,14.1,2.3c4.5,1.4,8.5,3.2,11.8,5.5l-4.2,10.2
			c-6.9-4.3-14.1-6.7-21.6-7.1v29.7c6.2,1.5,11.3,3.1,15.3,4.8c4,1.7,7.4,4.1,10.1,7.4c2.8,3.3,4.1,7.6,4.1,13
			C237.5,87.3,235,93,229.9,97.6z M187.7,48.3c2.8,2,6.8,3.7,12.1,5.1V25.9c-5.4,0.7-9.5,2.3-12.2,4.8c-2.7,2.5-4.1,5.5-4.1,9.1
			C183.5,43.4,184.9,46.2,187.7,48.3z M220.8,90.5c2.8-2.4,4.3-5.5,4.3-9.1c0-3.7-1.5-6.6-4.4-8.6c-2.9-2-7.2-3.8-12.7-5.3v27.4
			C213.7,94.3,217.9,92.9,220.8,90.5z"/>
	</g>
</g>
</svg>
