<?xml version="1.0" encoding="utf-8"?>
<!-- Generator: Adobe Illustrator 21.1.0, SVG Export Plug-In . SVG Version: 6.00 Build 0)  -->
<svg version="1.1" id="Layer_1" xmlns="http://www.w3.org/2000/svg" xmlns:xlink="http://www.w3.org/1999/xlink" x="0px" y="0px"
	 viewBox="0 0 245.3 104.3" style="enable-background:new 0 0 245.3 104.3;" xml:space="preserve">
<style type="text/css">
	.st0{enable-background:new    ;}
</style>
<g>
	<title>background</title>
</g>
<g>
	<title>Layer 1</title>
	<g id="svg_2" class="st0">
		<path d="M33.4,102.4V13.8H0.3V1.9H80v11.9H46.7v88.6H33.4z"/>
		<path d="M89.1,70.1l12.5-1.1c0.6,5,2,9.1,4.1,12.4c2.2,3.2,5.5,5.8,10.1,7.8c4.6,2,9.7,3,15.4,3c5.1,0,9.5-0.8,13.4-2.3
			c3.9-1.5,6.8-3.6,8.7-6.2c1.9-2.6,2.8-5.5,2.8-8.6c0-3.2-0.9-5.9-2.7-8.3c-1.8-2.4-4.8-4.3-9-5.9c-2.7-1-8.7-2.7-17.9-4.9
			c-9.2-2.2-15.7-4.3-19.4-6.3c-4.8-2.5-8.4-5.6-10.7-9.4c-2.4-3.7-3.5-7.9-3.5-12.5c0-5.1,1.4-9.8,4.3-14.2
			c2.9-4.4,7.1-7.8,12.6-10c5.5-2.3,11.7-3.4,18.4-3.4c7.4,0,14,1.2,19.7,3.6c5.7,2.4,10.1,5.9,13.1,10.6c3.1,4.7,4.7,9.9,4.9,15.8
			l-12.7,1c-0.7-6.4-3-11.1-7-14.4c-4-3.2-9.8-4.9-17.5-4.9c-8,0-13.9,1.5-17.6,4.4c-3.7,2.9-5.5,6.5-5.5,10.7
			c0,3.6,1.3,6.6,3.9,8.9c2.6,2.3,9.2,4.7,20,7.2c10.8,2.4,18.2,4.6,22.2,6.4c5.8,2.7,10.2,6.1,13,10.2c2.8,4.1,4.2,8.9,4.2,14.3
			c0,5.3-1.5,10.4-4.6,15.1c-3.1,4.7-7.5,8.4-13.2,11s-12.2,3.9-19.4,3.9c-9.1,0-16.7-1.3-22.9-4c-6.1-2.6-11-6.6-14.5-12
			C91.1,82.8,89.3,76.8,89.1,70.1z"/>
		<path d="M185.7,102.4V1.9H198V38c5.8-6.7,13-10,21.8-10c5.4,0,10.1,1.1,14,3.2c4,2.1,6.8,5.1,8.5,8.8c1.7,3.7,2.6,9.2,2.6,16.3
			v46.1h-12.3V56.3c0-6.2-1.3-10.7-4-13.5s-6.5-4.2-11.3-4.2c-3.7,0-7.1,0.9-10.3,2.8c-3.2,1.9-5.5,4.5-6.9,7.7
			c-1.4,3.2-2.1,7.7-2.1,13.4v39.8H185.7z"/>
	</g>
</g>
</svg>
