<?xml version="1.0" encoding="utf-8"?>
<!-- Generator: Adobe Illustrator 21.1.0, SVG Export Plug-In . SVG Version: 6.00 Build 0)  -->
<svg version="1.1" id="Capa_1" xmlns="http://www.w3.org/2000/svg" xmlns:xlink="http://www.w3.org/1999/xlink" x="0px" y="0px"
	 viewBox="0 0 302.6 423.8" style="enable-background:new 0 0 302.6 423.8;" xml:space="preserve">
<g>
	<path d="M281.4,237.5H152.7c13-10,26.4-19.2,37.9-28c2.9-2.2,5.7-4.4,8.4-6.7h82.4c11.7,0,21.2-9.5,21.2-21.2s-9.5-21.2-21.2-21.2
		h-43.2c5.9-9,10.9-18.7,14.6-29.4c9.5-27.5,4.8-59.3-11.2-83.4C201.5-13.1,118.9-8.6,61.4,21.6c-24.2,12.7-2.8,49.3,21.4,36.6
		c28.5-15,60.2-21.8,91.4-11.5c21.4,7,39.1,26.4,40.9,49.2c2.1,25.8-13.6,47.5-31.6,64.6H21.2C9.5,160.4,0,169.9,0,181.6
		c0,11.7,9.5,21.2,21.2,21.2h108c-9.9,7.3-19.5,14.8-28.6,23.1c-4,3.7-7.7,7.5-11.2,11.6H21.2C9.5,237.5,0,247,0,258.7
		c0,11.7,9.5,21.2,21.2,21.2h43.4c-13.8,38.2-9.4,81.6,21.5,113.6c42.9,44.2,116.4,33.4,166.1,9.1c24.6-12,3.1-48.5-21.4-36.6
		c-38.5,18.8-109.1,28.8-127.4-22.7c-8.8-24.8-4.2-45.5,7.2-63.4h170.7c11.7,0,21.2-9.5,21.2-21.2
		C302.6,247,293.2,237.5,281.4,237.5z"/>
</g>
</svg>
