<?xml version="1.0" encoding="utf-8"?>
<!-- Generator: Adobe Illustrator 21.1.0, SVG Export Plug-In . SVG Version: 6.00 Build 0)  -->
<svg version="1.1" id="Layer_1" xmlns="http://www.w3.org/2000/svg" xmlns:xlink="http://www.w3.org/1999/xlink" x="0px" y="0px"
	 viewBox="0 0 246.2 101.6" style="enable-background:new 0 0 246.2 101.6;" xml:space="preserve">
<style type="text/css">
	.st0{enable-background:new    ;}
</style>
<g>
	<title>background</title>
</g>
<g>
	<title>Layer 1</title>
	<g id="svg_1" class="st0">
		<path d="M64.2,1.9h13v56.6c0,9.8-1.1,17.7-3.3,23.5c-2.2,5.8-6.2,10.5-12.1,14.1c-5.8,3.6-13.4,5.4-22.9,5.4
			c-9.2,0-16.7-1.6-22.5-4.7c-5.8-3.2-10-7.7-12.5-13.7c-2.5-6-3.7-14.2-3.7-24.6V1.9h13v56.5c0,8.5,0.8,14.8,2.4,18.8
			c1.6,4,4.3,7.1,8.2,9.3c3.9,2.2,8.6,3.3,14.1,3.3c9.5,0,16.3-2.2,20.4-6.5c4.1-4.3,6.1-12.6,6.1-24.9V1.9z"/>
		<path d="M94.3,68.4l12.2-1.1c0.6,4.9,1.9,8.9,4,12.1c2.1,3.1,5.4,5.7,9.9,7.6c4.5,1.9,9.5,2.9,15,2.9c4.9,0,9.3-0.7,13.1-2.2
			c3.8-1.5,6.6-3.5,8.5-6c1.8-2.6,2.8-5.4,2.8-8.4c0-3.1-0.9-5.8-2.7-8.1c-1.8-2.3-4.7-4.2-8.8-5.8c-2.6-1-8.4-2.6-17.4-4.8
			c-9-2.2-15.3-4.2-18.9-6.1c-4.7-2.5-8.2-5.5-10.5-9.1c-2.3-3.6-3.4-7.7-3.4-12.2c0-4.9,1.4-9.6,4.2-13.9c2.8-4.3,6.9-7.6,12.3-9.8
			c5.4-2.2,11.4-3.3,18-3.3c7.3,0,13.7,1.2,19.2,3.5s9.8,5.8,12.8,10.3c3,4.5,4.6,9.7,4.8,15.4L157,30.5c-0.7-6.2-2.9-10.9-6.8-14
			c-3.9-3.2-9.5-4.7-17.1-4.7c-7.8,0-13.6,1.4-17.1,4.3c-3.6,2.9-5.4,6.3-5.4,10.4c0,3.5,1.3,6.4,3.8,8.7c2.5,2.3,9,4.6,19.6,7
			c10.5,2.4,17.8,4.5,21.7,6.2c5.7,2.6,9.9,6,12.6,10c2.7,4,4.1,8.7,4.1,13.9c0,5.2-1.5,10.1-4.5,14.7c-3,4.6-7.3,8.2-12.9,10.8
			c-5.6,2.6-11.9,3.8-18.9,3.8c-8.9,0-16.3-1.3-22.3-3.9c-6-2.6-10.7-6.5-14.1-11.7C96.3,80.8,94.5,75,94.3,68.4z"/>
		<path d="M188.5,99.9v-98h12v35.2c5.6-6.5,12.7-9.8,21.3-9.8c5.3,0,9.8,1,13.7,3.1c3.9,2.1,6.7,4.9,8.3,8.6c1.7,3.7,2.5,9,2.5,15.9
			v45h-12v-45c0-6-1.3-10.4-3.9-13.1c-2.6-2.7-6.3-4.1-11.1-4.1c-3.6,0-6.9,0.9-10.1,2.8c-3.1,1.8-5.4,4.4-6.7,7.5
			c-1.3,3.2-2,7.5-2,13.1v38.8H188.5z"/>
	</g>
</g>
</svg>
