<?xml version="1.0" encoding="utf-8"?>
<!-- Generator: Adobe Illustrator 21.1.0, SVG Export Plug-In . SVG Version: 6.00 Build 0)  -->
<svg version="1.1" id="Capa_1" xmlns="http://www.w3.org/2000/svg" xmlns:xlink="http://www.w3.org/1999/xlink" x="0px" y="0px"
	 viewBox="0 0 84.5 62.2" style="enable-background:new 0 0 84.5 62.2;" xml:space="preserve">
<g>
	<path d="M32.1,50.5c-2.6,2.4-6.4,3.8-11.4,4.2v7.5h-4.2v-7.5c-3.2-0.2-6.3-0.8-9.1-1.8c-2.9-1-5.2-2.3-6.9-3.9l2.4-5.1
		c1.6,1.5,3.6,2.6,6,3.6c2.4,0.9,4.9,1.5,7.6,1.7V33.8c-3.1-0.7-5.6-1.6-7.7-2.4c-2-0.9-3.8-2.2-5.1-3.9s-2.1-4-2.1-6.7
		c0-3.5,1.3-6.4,3.8-8.8c2.5-2.4,6.2-3.8,11.1-4.2V0.2h4.2v7.5c2.5,0.1,4.9,0.5,7.3,1.2c2.4,0.7,4.4,1.6,6.1,2.8l-2.2,5.3
		c-3.6-2.2-7.3-3.5-11.2-3.7v15.4c3.2,0.8,5.8,1.6,7.9,2.5c2.1,0.9,3.8,2.1,5.2,3.8c1.4,1.7,2.1,3.9,2.1,6.8
		C36,45.1,34.7,48,32.1,50.5z M10.2,24.9c1.5,1.1,3.5,1.9,6.3,2.6V13.3c-2.8,0.4-4.9,1.2-6.3,2.5C8.7,17,8,18.6,8,20.5
		C8,22.4,8.8,23.8,10.2,24.9z M27.3,46.7c1.5-1.3,2.2-2.8,2.2-4.7c0-1.9-0.8-3.4-2.3-4.5c-1.5-1-3.7-1.9-6.6-2.7V49
		C23.6,48.8,25.8,48,27.3,46.7z"/>
	<path d="M50.4,49.5c-3.4-3.5-5.1-8.6-5.1-15.2V8.1h6.6v26c0,9.9,4.3,14.8,13,14.8c4.2,0,7.5-1.2,9.7-3.7c2.2-2.4,3.4-6.2,3.4-11.2
		v-26h6.4v26.2c0,6.6-1.7,11.7-5.1,15.2c-3.4,3.5-8.2,5.2-14.4,5.2C58.6,54.8,53.8,53,50.4,49.5z"/>
</g>
</svg>
