<?xml version="1.0" encoding="utf-8"?>
<!-- Generator: Adobe Illustrator 21.1.0, SVG Export Plug-In . SVG Version: 6.00 Build 0)  -->
<svg version="1.1" id="Capa_1" xmlns="http://www.w3.org/2000/svg" xmlns:xlink="http://www.w3.org/1999/xlink" x="0px" y="0px"
	 viewBox="0 0 555.3 202.6" style="enable-background:new 0 0 555.3 202.6;" xml:space="preserve">
<g>
	<path d="M23.1,198.1c-9.3-2.7-16.6-6.1-21.8-10.3l9.3-17.6c5.4,3.9,12,7,19.7,9.3c7.7,2.3,15.5,3.5,23.4,3.5
		c19.5,0,29.2-5.6,29.2-16.7c0-3.7-1.3-6.6-3.9-8.8c-2.6-2.2-5.9-3.7-9.9-4.8c-3.9-1-9.6-2.1-16.8-3.4c-9.9-1.5-18-3.3-24.3-5.3
		c-6.3-2-11.6-5.4-16.1-10.2c-4.5-4.8-6.7-11.5-6.7-20.2c0-11.1,4.6-20.1,13.9-26.8c9.3-6.7,21.7-10.1,37.4-10.1
		c8.2,0,16.4,1,24.6,3c8.2,2,14.9,4.7,20.2,8.1l-9.5,17.6c-10.1-6.5-21.9-9.7-35.5-9.7c-9.4,0-16.6,1.5-21.6,4.6
		c-5,3.1-7.4,7.2-7.4,12.3c0,4,1.4,7.2,4.2,9.5c2.8,2.3,6.2,4,10.3,5.1c4.1,1.1,9.9,2.3,17.3,3.7c9.9,1.7,17.9,3.5,24,5.5
		c6.1,1.9,11.3,5.2,15.7,9.9c4.3,4.6,6.5,11.1,6.5,19.5c0,11.1-4.8,20-14.3,26.6c-9.5,6.6-22.5,9.9-38.9,9.9
		C42,202.2,32.4,200.8,23.1,198.1z"/>
	<path d="M152.8,194.1c-9.7-5.4-17.4-12.9-22.9-22.4c-5.5-9.5-8.2-20.3-8.2-32.4s2.7-22.9,8.2-32.4c5.5-9.5,13.1-16.9,22.9-22.3
		c9.7-5.3,20.7-8,33-8c12.2,0,23.2,2.7,32.8,8c9.7,5.3,17.2,12.8,22.7,22.3c5.5,9.5,8.2,20.3,8.2,32.4s-2.7,22.9-8.2,32.4
		c-5.5,9.5-13.1,17-22.7,22.4c-9.7,5.4-20.6,8.1-32.8,8.1C173.5,202.2,162.5,199.5,152.8,194.1z M207,177.3
		c6.3-3.6,11.2-8.7,14.7-15.3c3.6-6.6,5.3-14.1,5.3-22.6c0-8.5-1.8-16-5.3-22.6c-3.6-6.6-8.5-11.6-14.7-15.2
		c-6.3-3.6-13.3-5.3-21.2-5.3s-15,1.8-21.2,5.3c-6.3,3.6-11.2,8.6-14.9,15.2c-3.6,6.6-5.5,14.1-5.5,22.6c0,8.5,1.8,16.1,5.5,22.6
		c3.6,6.6,8.6,11.7,14.9,15.3c6.3,3.6,13.3,5.5,21.2,5.5S200.7,180.9,207,177.3z"/>
	<path d="M299.9,40.9c1.7,2.5,2.6,5.5,2.6,9.1c0,4.6-1.5,8.4-4.4,11.4c-2.9,2.9-6.6,4.4-10.9,4.4c-4.5,0-8.2-1.5-11.1-4.5
		c-2.9-3-4.4-6.8-4.4-11.3c0-2.2,0.3-4.4,0.8-6.6c0.5-2.2,1.7-5.5,3.4-9.9L286.7,1h14.6l-8.6,34.6C295.8,36.7,298.2,38.4,299.9,40.9
		z"/>
	<path d="M538.6,90.1c9.1,9,13.6,22.3,13.6,39.9v70.8h-22.3v-68.2c0-11.9-2.7-20.9-8.2-26.9c-5.5-6-13.3-9.1-23.6-9.1
		c-11.3,0-20.3,3.5-26.9,10.6c-6.7,7-10,17.1-10,30.3v63.4h-22.3v-68.2c0-11.9-2.7-20.9-8.2-26.9c-5.5-6-13.3-9.1-23.6-9.1
		c-11.3,0-20.3,3.5-26.9,10.6c-6.7,7-10,17.1-10,30.3v63.4H348v-123h21.3v18.3c4.5-6.3,10.4-11.2,17.6-14.5c7.3-3.3,15.5-5,24.8-5
		c9.6,0,18.1,1.9,25.5,5.8c7.4,3.9,13.1,9.5,17.2,16.9c4.6-7.1,11.1-12.7,19.4-16.7c8.3-4,17.6-6,28-6
		C517.3,76.7,529.6,81.1,538.6,90.1z"/>
</g>
</svg>
