<?xml version="1.0" encoding="utf-8"?>
<!-- Generator: Adobe Illustrator 21.1.0, SVG Export Plug-In . SVG Version: 6.00 Build 0)  -->
<svg version="1.1" id="Capa_1" xmlns="http://www.w3.org/2000/svg" xmlns:xlink="http://www.w3.org/1999/xlink" x="0px" y="0px"
	 viewBox="0 0 423.5 220" style="enable-background:new 0 0 423.5 220;" xml:space="preserve">
<path d="M178.9,126c7.3,9.3,10.9,20.9,10.9,35.1c0,18.9-7.1,33.5-21.4,43.6c-14.2,10.2-35,15.3-62.2,15.3H2.2V1.8h97.9
	c24.9,0,44.2,5,57.8,15c13.6,10,20.4,23.8,20.4,41.5c0,11.4-2.6,21.3-7.9,29.6c-5.3,8.3-12.4,14.7-21.4,19
	C161.7,110.3,171.7,116.7,178.9,126z M33.3,27v69.8h63.9c16,0,28.3-3,36.9-8.9c8.6-5.9,12.9-14.6,12.9-26c0-11.4-4.3-20.1-12.9-26
	C125.6,30,113.3,27,97.3,27H33.3z M144.9,186c8.9-5.8,13.4-15,13.4-27.4c0-24.3-17.8-36.5-53.3-36.5H33.3v72.6H105
	C122.7,194.7,136,191.8,144.9,186z M242.2,216.4c-12.5-3.6-22.2-8.3-29.3-13.9l12.5-23.7c7.3,5.2,16.1,9.4,26.5,12.5
	c10.4,3.1,20.9,4.7,31.5,4.7c26.2,0,39.3-7.5,39.3-22.4c0-5-1.8-8.9-5.3-11.8c-3.5-2.9-7.9-5-13.2-6.4c-5.3-1.3-12.8-2.9-22.6-4.5
	c-13.3-2.1-24.2-4.5-32.6-7.2c-8.4-2.7-15.6-7.3-21.7-13.7c-6-6.4-9-15.5-9-27.1c0-15,6.2-27,18.7-36c12.5-9,29.2-13.6,50.2-13.6
	c11,0,22,1.4,33,4.1c11,2.7,20.1,6.3,27.1,10.9l-12.8,23.7c-13.5-8.7-29.4-13.1-47.7-13.1c-12.7,0-22.3,2.1-29,6.2
	c-6.7,4.2-10,9.7-10,16.5c0,5.4,1.9,9.7,5.6,12.8c3.7,3.1,8.4,5.4,13.9,6.9c5.5,1.5,13.2,3.1,23.2,5c13.3,2.3,24.1,4.7,32.3,7.3
	c8.2,2.6,15.2,7,21,13.2c5.8,6.2,8.7,15,8.7,26.2c0,15-6.4,26.9-19.2,35.7c-12.8,8.8-30.2,13.2-52.2,13.2
	C267.7,221.8,254.7,220,242.2,216.4z M382.2,215.8c-4.2-4.1-6.2-9.2-6.2-15.4c0-6,2.1-11.1,6.2-15.1c4.2-4.1,9.1-6.1,15-6.1
	c5.8,0,10.7,2,14.7,5.9c3.9,4,5.9,9,5.9,15.3c0,6.2-2,11.4-6.1,15.4c-4.1,4.1-8.9,6.1-14.5,6.1C391.3,221.8,386.3,219.8,382.2,215.8
	z"/>
</svg>
