<?xml version="1.0" encoding="utf-8"?>
<!-- Generator: Adobe Illustrator 21.1.0, SVG Export Plug-In . SVG Version: 6.00 Build 0)  -->
<svg version="1.1" id="Capa_1" xmlns="http://www.w3.org/2000/svg" xmlns:xlink="http://www.w3.org/1999/xlink" x="0px" y="0px"
	 viewBox="0 0 355.9 513" style="enable-background:new 0 0 355.9 513;" xml:space="preserve">
<g>
	<path d="M342.3,62.5h-50V42.7c0-14-3.1-24.6-9.2-31.9C277,3.6,268.3,0,257,0c-11.3,0-20,3.9-26.1,11.8c-6.1,7.8-9.2,19.4-9.2,34.7
		v16h-43.7c-7.5,0-13.6,6.1-13.6,13.6c0,7.5,6.1,13.6,13.6,13.6h43.7v111.9c-14-15.3-28.4-23.9-43.2-31.3
		c-14.8-7.4-32.9-11.1-54.4-11.1c-37.2,0-67.2,13-90,39.1C11.4,224.2,0,260.6,0,307.3c0,22.1,2.9,42.6,8.6,61.5
		c5.7,19,14.2,35.5,25.3,49.5c11.1,14,24.3,24.8,39.5,32.4c15.2,7.6,31.8,11.3,49.6,11.3c13.5,0,25.9-1.9,37.3-5.6
		c11.4-3.7,22-9.2,31.7-16.4c9.7-7.2,19.6-16.5,29.7-28v7.4c0,13.7,3.3,24.2,10,31.6c6.6,7.4,15.1,11.1,25.3,11.1
		c10.4,0,18.9-3.5,25.4-10.7c6.6-7.1,9.8-17.8,9.8-32V89.6h50c7.5,0,13.6-6.1,13.6-13.6C355.9,68.5,349.8,62.5,342.3,62.5z
		 M197.1,362.6c-6.5,14.1-15.1,24.6-26,31.4c-10.8,6.8-22.8,10.3-36,10.3c-12.9,0-24.9-3.6-35.8-10.8c-10.9-7.2-19.6-17.9-25.8-32.1
		c-6.3-14.2-9.4-31.4-9.4-51.7c0-19.1,3-36,8.9-50.4c5.9-14.5,14.3-25.6,25-33.4c10.8-7.7,23-11.6,36.6-11.6
		c13.1,0,25.2,3.8,36.2,11.3c11,7.6,19.8,18.5,26.3,32.8c6.5,14.3,9.7,31.4,9.7,51.3C206.8,330.9,203.6,348.5,197.1,362.6z
		 M284.8,499.4c0,7.5-6.1,13.6-13.6,13.6H32.4c-7.5,0-13.6-6.1-13.6-13.6c0-7.5,6.1-13.6,13.6-13.6h238.8
		C278.8,485.9,284.8,491.9,284.8,499.4z"/>
</g>
</svg>
