<?xml version="1.0" encoding="utf-8"?>
<!-- Generator: Adobe Illustrator 21.1.0, SVG Export Plug-In . SVG Version: 6.00 Build 0)  -->
<svg version="1.1" id="Layer_1" xmlns="http://www.w3.org/2000/svg" xmlns:xlink="http://www.w3.org/1999/xlink" x="0px" y="0px"
	 viewBox="0 0 256.1 108" style="enable-background:new 0 0 256.1 108;" xml:space="preserve">
<style type="text/css">
	.st0{enable-background:new    ;}
</style>
<g>
	<title>background</title>
</g>
<g>
	<title>Layer 1</title>
	<g id="svg_2" class="st0">
		<path d="M119.2,14.2L93,92.6H81.2L59.8,30L38.4,92.6h-12L0.2,14.2h11.5l21.2,63.8L55,14.2h10.3L87,78.3l21.6-64.1H119.2z"/>
		<path d="M138.7,90.7c-5.5-1.8-9.8-4.2-12.9-7.1l4.1-8.7c3,2.7,6.8,4.9,11.5,6.6c4.7,1.7,9.5,2.5,14.4,2.5c6.5,0,11.4-1.1,14.6-3.3
			c3.2-2.2,4.8-5.1,4.8-8.8c0-2.7-0.9-4.9-2.6-6.6c-1.8-1.7-3.9-3-6.5-3.9c-2.6-0.9-6.2-1.9-10.9-3c-5.9-1.4-10.7-2.8-14.3-4.3
			c-3.6-1.4-6.7-3.6-9.3-6.6c-2.6-2.9-3.9-6.9-3.9-11.9c0-4.2,1.1-8,3.3-11.3c2.2-3.4,5.5-6.1,10-8.1c4.5-2,10-3,16.7-3
			c4.6,0,9.2,0.6,13.7,1.8c4.5,1.2,8.3,2.9,11.5,5.2l-3.7,9c-3.3-2.1-6.8-3.7-10.5-4.8c-3.7-1.1-7.4-1.6-11-1.6
			c-6.3,0-11.1,1.2-14.3,3.5c-3.2,2.3-4.8,5.3-4.8,9c0,2.7,0.9,4.9,2.7,6.6c1.8,1.7,4,3,6.7,3.9c2.7,0.9,6.3,1.9,10.8,3
			c5.9,1.4,10.6,2.8,14.2,4.3c3.6,1.4,6.7,3.6,9.2,6.5c2.6,2.9,3.9,6.8,3.9,11.8c0,4.1-1.1,7.9-3.4,11.3c-2.2,3.4-5.6,6.1-10.2,8.1
			c-4.6,2-10.2,3-16.8,3C149.8,93.5,144.1,92.6,138.7,90.7z"/>
		<path d="M249,86.2c-4.4,4.1-10.9,6.5-19.3,7.2V106h-7.2V93.4c-5.5-0.3-10.6-1.3-15.5-3.1c-4.9-1.8-8.8-4-11.7-6.7l4.1-8.7
			c2.7,2.5,6.1,4.5,10.2,6.1c4.1,1.6,8.4,2.6,12.9,2.9v-26c-5.2-1.3-9.6-2.7-13.1-4.1c-3.5-1.5-6.4-3.7-8.7-6.6
			c-2.4-2.9-3.5-6.7-3.5-11.4c0-5.9,2.1-10.9,6.4-15c4.3-4.1,10.6-6.5,18.9-7.2V0.7h7.2v12.7c4.3,0.2,8.4,0.8,12.4,2
			c4,1.2,7.5,2.8,10.4,4.8l-3.7,9c-6-3.8-12.4-5.9-19-6.3V49c5.5,1.3,9.9,2.7,13.4,4.2c3.5,1.5,6.5,3.6,8.9,6.5
			c2.4,2.9,3.6,6.7,3.6,11.5C255.7,77.1,253.5,82.1,249,86.2z M211.9,42.7c2.5,1.8,6,3.3,10.6,4.5V23c-4.8,0.6-8.4,2-10.8,4.2
			c-2.4,2.2-3.6,4.9-3.6,8C208.2,38.4,209.4,40.9,211.9,42.7z M241,79.9c2.5-2.1,3.8-4.8,3.8-8c0-3.3-1.3-5.8-3.9-7.6
			c-2.6-1.8-6.3-3.3-11.1-4.6v24.1C234.7,83.3,238.5,82,241,79.9z"/>
	</g>
</g>
</svg>
