<?xml version="1.0" encoding="utf-8"?>
<!-- Generator: Adobe Illustrator 21.1.0, SVG Export Plug-In . SVG Version: 6.00 Build 0)  -->
<svg version="1.1" id="Layer_1" xmlns="http://www.w3.org/2000/svg" xmlns:xlink="http://www.w3.org/1999/xlink" x="0px" y="0px"
	 viewBox="0 0 248.9 69.3" style="enable-background:new 0 0 248.9 69.3;" xml:space="preserve">
<style type="text/css">
	.st0{enable-background:new    ;}
</style>
<g>
	<title>background</title>
</g>
<g>
	<title>Layer 1</title>
	<g id="svg_3" class="st0">
		<path d="M10.1,9.8v23.4h33.6v8.2H10.1v27.1H0.5v-67h47.3v8.3H10.1z"/>
		<path d="M72.4,64.8c-5.4-3-9.6-7.1-12.7-12.3S55.1,41.5,55.1,35s1.5-12.4,4.6-17.6c3.1-5.2,7.3-9.3,12.7-12.3
			c5.4-3,11.5-4.5,18.2-4.5c5.2,0,10,0.9,14.4,2.6c4.3,1.8,8,4.4,11.1,7.8l-6.2,6c-5-5.3-11.3-7.9-18.9-7.9c-5,0-9.5,1.1-13.5,3.4
			c-4,2.2-7.2,5.3-9.4,9.2c-2.3,3.9-3.4,8.3-3.4,13.2c0,4.9,1.1,9.2,3.4,13.2c2.3,3.9,5.4,7,9.4,9.2S86,60.8,91,60.8
			c7.5,0,13.8-2.7,18.9-8l6.2,6c-3.1,3.4-6.8,6.1-11.2,7.9c-4.4,1.8-9.2,2.7-14.4,2.7C83.8,69.3,77.8,67.8,72.4,64.8z"/>
		<path d="M139.4,9.8v23.4H173v8.2h-33.6v27.1h-9.6v-67h47.3v8.3H139.4z"/>
		<path d="M230.2,51.8h-35.6l-7.4,16.8h-9.9l30.4-67h9.5l30.5,67h-10.1L230.2,51.8z M226.9,44.1l-14.5-32.8L198,44.1H226.9z"/>
	</g>
</g>
</svg>
