<?xml version="1.0" encoding="utf-8"?>
<!-- Generator: Adobe Illustrator 21.1.0, SVG Export Plug-In . SVG Version: 6.00 Build 0)  -->
<svg version="1.1" id="Layer_1" xmlns="http://www.w3.org/2000/svg" xmlns:xlink="http://www.w3.org/1999/xlink" x="0px" y="0px"
	 viewBox="0 0 234.9 85.2" style="enable-background:new 0 0 234.9 85.2;" xml:space="preserve">
<style type="text/css">
	.st0{enable-background:new    ;}
</style>
<g>
	<title>background</title>
</g>
<g>
	<title>Layer 1</title>
	<g id="svg_1" class="st0">
		<path d="M0.2,57.2l10.2-0.9c0.5,4.1,1.6,7.5,3.4,10.1c1.8,2.6,4.5,4.8,8.2,6.4c3.7,1.6,7.9,2.4,12.6,2.4c4.1,0,7.8-0.6,11-1.8
			c3.2-1.2,5.5-2.9,7.1-5.1c1.5-2.1,2.3-4.5,2.3-7c0-2.6-0.7-4.8-2.2-6.7c-1.5-1.9-3.9-3.5-7.4-4.8c-2.2-0.9-7.1-2.2-14.6-4
			C23.3,43.9,18,42.2,15,40.6c-3.9-2-6.8-4.6-8.7-7.6c-1.9-3-2.9-6.4-2.9-10.2c0-4.1,1.2-8,3.5-11.6C9.2,7.5,12.6,4.8,17.1,3
			c4.5-1.9,9.5-2.8,15-2.8c6.1,0,11.4,1,16.1,2.9s8.2,4.8,10.7,8.6c2.5,3.8,3.8,8.1,4,12.9l-10.4,0.8c-0.6-5.2-2.5-9.1-5.7-11.7
			c-3.2-2.6-8-4-14.3-4c-6.6,0-11.3,1.2-14.3,3.6c-3,2.4-4.5,5.3-4.5,8.7c0,2.9,1.1,5.4,3.2,7.3c2.1,1.9,7.5,3.8,16.3,5.8
			c8.8,2,14.9,3.7,18.1,5.2c4.8,2.2,8.3,5,10.6,8.4c2.3,3.4,3.4,7.3,3.4,11.7c0,4.4-1.2,8.5-3.7,12.3c-2.5,3.9-6.1,6.9-10.8,9
			c-4.7,2.1-9.9,3.2-15.8,3.2c-7.4,0-13.6-1.1-18.6-3.2c-5-2.2-8.9-5.4-11.8-9.8C1.9,67.5,0.4,62.6,0.2,57.2z"/>
		<path d="M80.2,83.5V1.6h28.2c6.4,0,11.2,0.4,14.6,1.2c4.7,1.1,8.7,3,12,5.9c4.3,3.7,7.6,8.3,9.7,14c2.1,5.7,3.2,12.2,3.2,19.5
			c0,6.2-0.7,11.7-2.2,16.5c-1.5,4.8-3.3,8.8-5.6,11.9s-4.8,5.6-7.5,7.4c-2.7,1.8-6,3.2-9.8,4.1c-3.8,0.9-8.2,1.4-13.2,1.4H80.2z
			 M91.1,73.8h17.5c5.4,0,9.6-0.5,12.7-1.5c3.1-1,5.5-2.4,7.3-4.2c2.6-2.6,4.6-6,6-10.4c1.4-4.3,2.2-9.6,2.2-15.8
			c0-8.6-1.4-15.2-4.2-19.8c-2.8-4.6-6.2-7.7-10.3-9.2c-2.9-1.1-7.6-1.7-14-1.7H91.1V73.8z"/>
		<path d="M163.1,83.5V1.6h36.3c7.3,0,12.9,0.7,16.7,2.2c3.8,1.5,6.8,4.1,9.1,7.8c2.3,3.7,3.4,7.8,3.4,12.4c0,5.8-1.9,10.7-5.6,14.7
			c-3.8,4-9.6,6.5-17.4,7.6c2.9,1.4,5,2.7,6.5,4.1c3.2,2.9,6.2,6.5,9,10.9l14.3,22.3h-13.6l-10.8-17c-3.2-4.9-5.8-8.7-7.8-11.3
			c-2-2.6-3.9-4.4-5.5-5.5c-1.6-1-3.3-1.8-4.9-2.2c-1.2-0.3-3.2-0.4-6-0.4h-12.6v36.4H163.1z M173.9,37.7h23.3c5,0,8.8-0.5,11.6-1.5
			c2.8-1,4.9-2.7,6.4-4.9c1.5-2.3,2.2-4.7,2.2-7.3c0-3.9-1.4-7.1-4.2-9.6c-2.8-2.5-7.3-3.7-13.3-3.7h-25.9V37.7z"/>
	</g>
</g>
</svg>
