<?xml version="1.0" encoding="utf-8"?>
<!-- Generator: Adobe Illustrator 21.1.0, SVG Export Plug-In . SVG Version: 6.00 Build 0)  -->
<svg version="1.1" id="Layer_1" xmlns="http://www.w3.org/2000/svg" xmlns:xlink="http://www.w3.org/1999/xlink" x="0px" y="0px"
	 viewBox="0 0 246.9 88.2" style="enable-background:new 0 0 246.9 88.2;" xml:space="preserve">
<style type="text/css">
	.st0{enable-background:new    ;}
</style>
<g>
	<title>background</title>
</g>
<g>
	<title>Layer 1</title>
	<g id="svg_2" class="st0">
		<path d="M22.7,82.2c-6.9-3.8-12.3-9-16.2-15.7C2.5,59.9,0.6,52.4,0.6,44c0-8.3,2-15.8,5.9-22.5c3.9-6.7,9.3-11.9,16.3-15.7
			C29.7,2.1,37.4,0.2,46,0.2c6.7,0,12.8,1.1,18.4,3.4c5.6,2.2,10.3,5.6,14.2,10l-8,7.7c-6.5-6.8-14.5-10.2-24.1-10.2
			c-6.4,0-12.1,1.4-17.3,4.3c-5.1,2.9-9.2,6.8-12.1,11.8c-2.9,5-4.3,10.6-4.3,16.8c0,6.2,1.4,11.8,4.3,16.8c2.9,5,6.9,9,12.1,11.8
			c5.1,2.9,10.9,4.3,17.3,4.3c9.6,0,17.6-3.4,24.1-10.3l8,7.7c-3.9,4.4-8.7,7.8-14.3,10c-5.6,2.3-11.7,3.4-18.4,3.4
			C37.3,87.9,29.6,86,22.7,82.2z"/>
		<path d="M108.3,11.8v29.9h43v10.5h-43v34.7H96.1V1.2h60.5v10.7H108.3z"/>
		<path d="M224.6,65.5H179l-9.4,21.4H157l38.8-85.7h12.1l38.9,85.7H234L224.6,65.5z M220.3,55.7l-18.5-42l-18.5,42H220.3z"/>
	</g>
</g>
</svg>
