<?xml version="1.0" encoding="utf-8"?>
<!-- Generator: Adobe Illustrator 21.1.0, SVG Export Plug-In . SVG Version: 6.00 Build 0)  -->
<svg version="1.1" id="Layer_1" xmlns="http://www.w3.org/2000/svg" xmlns:xlink="http://www.w3.org/1999/xlink" x="0px" y="0px"
	 viewBox="0 0 245.7 89.1" style="enable-background:new 0 0 245.7 89.1;" xml:space="preserve">
<style type="text/css">
	.st0{enable-background:new    ;}
</style>
<g>
	<title>background</title>
</g>
<g>
	<title>Layer 1</title>
	<g id="svg_3" class="st0">
		<path d="M22.6,83.2c-7-3.8-12.4-9.1-16.4-15.8c-4-6.7-5.9-14.3-5.9-22.7c0-8.4,2-16,5.9-22.7c4-6.7,9.5-12,16.5-15.8
			c7-3.8,14.9-5.8,23.5-5.8c6.8,0,13,1.1,18.6,3.4C70.3,6,75.1,9.3,79.1,13.8l-8,7.8c-6.5-6.9-14.7-10.3-24.4-10.3
			c-6.4,0-12.3,1.4-17.5,4.3C24,18.5,19.9,22.5,17,27.6c-2.9,5.1-4.4,10.8-4.4,17c0,6.3,1.5,11.9,4.4,17c2.9,5.1,7,9.1,12.2,11.9
			c5.2,2.9,11,4.3,17.5,4.3c9.7,0,17.8-3.5,24.4-10.4l8,7.8c-4,4.5-8.8,7.8-14.4,10.2C59,87.8,52.8,88.9,46,88.9
			C37.4,88.9,29.5,87,22.6,83.2z"/>
		<path d="M109.2,12v30.2h43.5v10.6h-43.5v35H96.8V1.3H158V12H109.2z"/>
		<path d="M235.7,9.3c6.4,5.4,9.7,12.8,9.7,22.2c0,9.4-3.2,16.8-9.7,22.2c-6.4,5.4-15.3,8-26.5,8h-21.4V88h-12.4V1.3h33.8
			C220.4,1.3,229.3,4,235.7,9.3z M226.8,45.9c4.1-3.3,6.2-8.2,6.2-14.4c0-6.3-2.1-11.1-6.2-14.4c-4.1-3.3-10.1-5-18-5h-21v38.9h21
			C216.7,50.9,222.7,49.3,226.8,45.9z"/>
	</g>
</g>
</svg>
