<?xml version="1.0" encoding="utf-8"?>
<!-- Generator: Adobe Illustrator 21.1.0, SVG Export Plug-In . SVG Version: 6.00 Build 0)  -->
<svg version="1.1" id="Capa_1" xmlns="http://www.w3.org/2000/svg" xmlns:xlink="http://www.w3.org/1999/xlink" x="0px" y="0px"
	 viewBox="0 0 537.6 189.4" style="enable-background:new 0 0 537.6 189.4;" xml:space="preserve">
<g>
	<path d="M103.3,124.6v64.9H76.7V124L2.2,1.8h28.7l60,98.9l60.3-98.9h26.5L103.3,124.6z"/>
	<path d="M337.8,166.1v23.3H201.6V1.8H334v23.3H228.4v57.6h94.1v22.8h-94.1v60.6H337.8z"/>
	<path d="M506.6,189.4l-40.5-57.6c-5,0.4-8.9,0.5-11.8,0.5H408v57.1h-26.8V1.8h73.2c24.3,0,43.4,5.8,57.4,17.4
		c13.9,11.6,20.9,27.6,20.9,48c0,14.5-3.6,26.8-10.7,37c-7.1,10.2-17.3,17.6-30.6,22.2l44.5,63H506.6z M492.4,98.6
		c8.9-7.3,13.4-17.8,13.4-31.4c0-13.6-4.5-24-13.4-31.2c-8.9-7.2-21.9-10.9-38.9-10.9H408v84.4h45.6
		C470.5,109.6,483.5,105.9,492.4,98.6z"/>
</g>
</svg>
