<?xml version="1.0" encoding="utf-8"?>
<!-- Generator: Adobe Illustrator 21.1.0, SVG Export Plug-In . SVG Version: 6.00 Build 0)  -->
<svg version="1.1" id="Layer_1" xmlns="http://www.w3.org/2000/svg" xmlns:xlink="http://www.w3.org/1999/xlink" x="0px" y="0px"
	 viewBox="0 0 421 506.7" style="enable-background:new 0 0 421 506.7;" xml:space="preserve">
<path d="M339.9,506.7L230.7,351.2c-13.5,1-24.1,1.4-31.8,1.4H73.7v154H1.4V0.5h197.4c65.6,0,117.2,15.7,154.8,47
	C391.2,78.8,410,122,410,176.9c0,39.1-9.7,72.3-28.9,99.8c-19.3,27.5-46.8,47.5-82.4,60l120.1,170H339.9z M301.6,261.6
	c24.1-19.8,36.2-48,36.2-84.6c0-36.6-12.1-64.7-36.2-84.3c-24.1-19.5-59.1-29.3-104.9-29.3H73.7v227.8h122.9
	C242.5,291.2,277.4,281.3,301.6,261.6z"/>
</svg>
