<?xml version="1.0" encoding="utf-8"?>
<!-- Generator: Adobe Illustrator 21.1.0, SVG Export Plug-In . SVG Version: 6.00 Build 0)  -->
<svg version="1.1" id="Capa_1" xmlns="http://www.w3.org/2000/svg" xmlns:xlink="http://www.w3.org/1999/xlink" x="0px" y="0px"
	 viewBox="0 0 500.9 391" style="enable-background:new 0 0 500.9 391;" xml:space="preserve">
<path d="M246.1,305.3v36.2H2.8v-28.3l183-226.7H5.7V50.4h235v28.3L58.5,305.3H246.1z M474.6,317.8c-16.5,15.3-40.4,24.1-71.7,26.6
	v47h-26.6v-47c-20.2-1.1-39.4-4.9-57.6-11.4c-18.2-6.5-32.6-14.8-43.5-24.7l15.4-32.4c10,9.2,22.6,16.7,37.8,22.7
	c15.2,6,31.2,9.5,47.8,10.6v-96.5c-19.4-4.7-35.6-9.8-48.5-15.4c-12.9-5.5-23.7-13.7-32.4-24.5c-8.7-10.8-13.1-25-13.1-42.4
	c0-21.9,8-40.5,23.9-55.7c15.9-15.2,39.3-24.1,70.1-26.6V0.5h26.6v47c15.8,0.6,31.1,3.1,46,7.5c14.8,4.4,27.7,10.4,38.5,17.9
	l-13.7,33.3c-22.5-14.1-46-21.9-70.7-23.3v96.9c20.2,5,36.9,10.2,49.9,15.6c13,5.4,24.1,13.5,33.1,24.1c9,10.7,13.5,24.9,13.5,42.6
	C499.4,284,491.1,302.6,474.6,317.8z M336.8,156.4c9.2,6.7,22.3,12.2,39.5,16.6V83.2c-17.7,2.2-31.1,7.4-39.9,15.6
	c-8.9,8.2-13.3,18.1-13.3,29.7C323,140.5,327.6,149.8,336.8,156.4z M444.7,294.3c9.3-7.9,13.9-17.8,13.9-29.7
	c0-12.2-4.8-21.6-14.3-28.1c-9.6-6.5-23.4-12.3-41.4-17.3v89.4C421.5,307,435.4,302.2,444.7,294.3z"/>
</svg>
